<svg width="27" height="29" viewBox="0 0 27 29" fill="none" xmlns="http://www.w3.org/2000/svg">
<rect x="3.375" y="7.25" width="20.25" height="18.125" rx="2" stroke="#222222"/>
<path d="M3.375 11.25C3.375 9.36438 3.375 8.42157 3.96079 7.83579C4.54657 7.25 5.48938 7.25 7.375 7.25H19.625C21.5106 7.25 22.4534 7.25 23.0392 7.83579C23.625 8.42157 23.625 9.36438 23.625 11.25V12.0833H3.375V11.25Z" fill="#222222"/>
<path d="M7.875 3.625L7.875 7.25" stroke="#222222" stroke-linecap="round"/>
<path d="M19.125 3.625L19.125 7.25" stroke="#222222" stroke-linecap="round"/>
<rect x="7.875" y="14.5" width="4.5" height="2.41667" rx="0.5" fill="#222222"/>
<rect x="7.875" y="19.3333" width="4.5" height="2.41667" rx="0.5" fill="#222222"/>
<rect x="14.625" y="14.5" width="4.5" height="2.41667" rx="0.5" fill="#222222"/>
<rect x="14.625" y="19.3333" width="4.5" height="2.41667" rx="0.5" fill="#222222"/>
</svg>
