<svg width="34" height="37" viewBox="0 0 34 37" fill="none" xmlns="http://www.w3.org/2000/svg">
<path d="M16.9998 12.3334C18.5582 12.3334 19.8332 10.9459 19.8332 9.25008C19.8332 7.55425 18.5582 6.16675 16.9998 6.16675C15.4415 6.16675 14.1665 7.55425 14.1665 9.25008C14.1665 10.9459 15.4415 12.3334 16.9998 12.3334ZM16.9998 15.4167C15.4415 15.4167 14.1665 16.8042 14.1665 18.5001C14.1665 20.1959 15.4415 21.5834 16.9998 21.5834C18.5582 21.5834 19.8332 20.1959 19.8332 18.5001C19.8332 16.8042 18.5582 15.4167 16.9998 15.4167ZM16.9998 24.6667C15.4415 24.6667 14.1665 26.0542 14.1665 27.7501C14.1665 29.4459 15.4415 30.8334 16.9998 30.8334C18.5582 30.8334 19.8332 29.4459 19.8332 27.7501C19.8332 26.0542 18.5582 24.6667 16.9998 24.6667Z" fill="#27005D"/>
</svg>
