<svg width="29" height="39" viewBox="0 0 29 39" fill="none" xmlns="http://www.w3.org/2000/svg">
<path d="M9.59366 3.98775C9.25387 4.44484 9.06299 5.06472 9.06299 5.71106C9.06299 6.3574 9.25387 6.97727 9.59366 7.43437L18.5655 19.5L9.59366 31.5656C9.2635 32.0253 9.08081 32.6411 9.08494 33.2802C9.08907 33.9193 9.27969 34.5306 9.61574 34.9826C9.95179 35.4345 10.4064 35.6908 10.8816 35.6964C11.3569 35.7019 11.8147 35.4563 12.1565 35.0122L22.4099 21.2233C22.7496 20.7662 22.9405 20.1463 22.9405 19.5C22.9405 18.8537 22.7496 18.2338 22.4099 17.7767L12.1565 3.98775C11.8166 3.53078 11.3557 3.27408 10.8751 3.27408C10.3945 3.27408 9.93356 3.53078 9.59366 3.98775Z" fill="black" fill-opacity="0.7"/>
</svg>
