<svg width="17" height="16" viewBox="0 0 17 16" fill="none" xmlns="http://www.w3.org/2000/svg">
<g opacity="0.6">
<mask id="mask0_5_12402" style="mask-type:luminance" maskUnits="userSpaceOnUse" x="0" y="0" width="17" height="16">
<path d="M0 0H17V16H0V0Z" fill="white"/>
<path fill-rule="evenodd" clip-rule="evenodd" d="M9.15351 4.00018H5.88428V2.76941H9.15351C10.0206 2.76941 10.8521 3.09358 11.4652 3.67062C12.0783 4.24765 12.4227 5.03028 12.4227 5.84633V6.46172C12.4227 7.27777 12.0783 8.0604 11.4652 8.63743C10.8521 9.21447 10.0206 9.53864 9.15351 9.53864H5.88428V8.30787H9.15351C9.67374 8.30787 10.1727 8.11337 10.5405 7.76715C10.9084 7.42092 11.115 6.95135 11.115 6.46172V5.84633C11.115 5.3567 10.9084 4.88713 10.5405 4.5409C10.1727 4.19468 9.67374 4.00018 9.15351 4.00018Z" fill="black"/>
<path fill-rule="evenodd" clip-rule="evenodd" d="M5.88431 2.76941C6.05773 2.76941 6.22403 2.83424 6.34665 2.94965C6.46927 3.06506 6.53816 3.22158 6.53816 3.38479V12.9233C6.53816 13.0865 6.46927 13.243 6.34665 13.3584C6.22403 13.4738 6.05773 13.5386 5.88431 13.5386C5.7109 13.5386 5.5446 13.4738 5.42198 13.3584C5.29936 13.243 5.23047 13.0865 5.23047 12.9233V3.38479C5.23047 3.22158 5.29936 3.06506 5.42198 2.94965C5.5446 2.83424 5.7109 2.76941 5.88431 2.76941Z" fill="black"/>
<path fill-rule="evenodd" clip-rule="evenodd" d="M3.26904 5.19159C3.26904 5.02838 3.33793 4.87185 3.46055 4.75644C3.58317 4.64104 3.74948 4.5762 3.92289 4.5762H13.0767C13.2501 4.5762 13.4165 4.64104 13.5391 4.75644C13.6617 4.87185 13.7306 5.02838 13.7306 5.19159C13.7306 5.3548 13.6617 5.51132 13.5391 5.62673C13.4165 5.74214 13.2501 5.80697 13.0767 5.80697H3.92289C3.74948 5.80697 3.58317 5.74214 3.46055 5.62673C3.33793 5.51132 3.26904 5.3548 3.26904 5.19159ZM3.26904 7.03774C3.26904 6.87453 3.33793 6.71801 3.46055 6.6026C3.58317 6.48719 3.74948 6.42236 3.92289 6.42236H13.0767C13.2501 6.42236 13.4165 6.48719 13.5391 6.6026C13.6617 6.71801 13.7306 6.87453 13.7306 7.03774C13.7306 7.20095 13.6617 7.35748 13.5391 7.47288C13.4165 7.58829 13.2501 7.65313 13.0767 7.65313H3.92289C3.74948 7.65313 3.58317 7.58829 3.46055 7.47288C3.33793 7.35748 3.26904 7.20095 3.26904 7.03774Z" fill="black"/>
</mask>
<g mask="url(#mask0_5_12402)">
<path d="M8.5 16C13.1944 16 17 12.4183 17 8C17 3.58172 13.1944 0 8.5 0C3.80558 0 0 3.58172 0 8C0 12.4183 3.80558 16 8.5 16Z" fill="black"/>
</g>
</g>
</svg>
