<svg width="206" height="176" viewBox="0 0 206 176" fill="none" xmlns="http://www.w3.org/2000/svg">
<path d="M100.768 176C155.685 176 200.204 150.297 200.204 118.589C200.204 86.8824 155.685 61.1787 100.768 61.1787C45.8511 61.1787 1.33203 86.8824 1.33203 118.589C1.33203 150.297 45.8511 176 100.768 176Z" fill="#F5F5F5"/>
<path d="M17.9017 139.486L24.526 143.285C24.8719 143.462 25.2549 143.554 25.6434 143.554C26.032 143.554 26.415 143.462 26.7609 143.285L78.9955 113.114C79.6079 112.761 79.6079 112.188 78.9955 111.84L72.2908 108.072C71.9443 107.896 71.5615 107.805 71.1733 107.805C70.7851 107.805 70.4023 107.896 70.0558 108.072L17.9017 138.207C17.2893 138.56 17.2893 139.133 17.9017 139.486Z" fill="#919191"/>
<path d="M183.053 139.486L176.429 143.285C176.083 143.461 175.7 143.553 175.312 143.553C174.923 143.553 174.54 143.461 174.194 143.285L121.96 113.114C121.347 112.761 121.352 112.188 121.96 111.84L128.664 108.072C129.011 107.896 129.394 107.805 129.782 107.805C130.17 107.805 130.553 107.896 130.899 108.072L183.053 138.198C183.666 138.56 183.666 139.133 183.053 139.486Z" fill="#919191"/>
<path d="M177.815 120.694C177.815 120.694 178.137 113.923 181.141 108.483C184.144 103.043 188.52 99.4894 192.784 98.8681C197.049 98.2468 200.772 101.961 196.36 104.974C191.949 107.987 183.983 111.281 180.904 121.66L177.815 120.694Z" fill="#9400FF"/>
<g opacity="0.2">
<path opacity="0.2" d="M177.815 120.694C177.815 120.694 178.137 113.923 181.141 108.483C184.144 103.043 188.52 99.4894 192.784 98.8681C197.049 98.2468 200.772 101.961 196.36 104.974C191.949 107.987 183.983 111.281 180.904 121.66L177.815 120.694Z" fill="black"/>
</g>
<path d="M178.959 118.866H178.91C178.881 118.857 178.855 118.842 178.832 118.822C178.81 118.802 178.791 118.778 178.778 118.751C178.765 118.724 178.757 118.694 178.755 118.664C178.753 118.634 178.757 118.604 178.767 118.576C182.557 107.137 190.862 101.921 194.724 100.759C194.784 100.741 194.847 100.748 194.902 100.777C194.956 100.806 194.997 100.856 195.015 100.915C195.033 100.975 195.026 101.038 194.997 101.093C194.967 101.147 194.918 101.188 194.858 101.206C191.072 102.346 182.933 107.464 179.214 118.732C179.192 118.779 179.155 118.818 179.109 118.842C179.063 118.867 179.01 118.875 178.959 118.866Z" fill="white"/>
<path d="M202.435 118.643C202.086 119.599 201.094 120.154 200.2 120.596C199.306 121.039 198.283 121.513 197.827 122.424C196.933 124.27 198.77 126.657 197.782 128.459C197.546 128.822 197.239 129.134 196.88 129.375C196.52 129.616 196.115 129.782 195.69 129.862C194.988 130.008 194.28 130.119 193.567 130.193C193.227 130.213 192.887 130.213 192.548 130.193C191.56 130.113 190.492 130.139 189.629 130.698C188.288 131.592 187.953 133.38 187.184 134.828C186.708 135.675 186.054 136.408 185.266 136.977C184.479 137.545 183.578 137.936 182.625 138.122C181.994 138.248 180.837 138.44 180.153 138.122C180.104 138.102 180.058 138.076 180.014 138.046C179.92 137.953 179.8 137.832 179.746 137.765C179.692 137.698 179.746 137.738 179.719 137.725C179.406 136.831 179.755 135.834 179.719 134.882C179.719 134.819 179.719 134.766 179.719 134.708C179.603 133.603 179.5 132.508 179.402 131.404C179.217 129.378 179.068 127.347 178.955 125.312C178.883 123.993 178.629 122.558 179.102 121.289C179.634 119.881 181.167 119.751 181.664 118.37C181.86 117.82 181.945 117.239 182.133 116.685C182.43 115.869 182.946 115.151 183.624 114.608C184.302 114.066 185.116 113.721 185.977 113.61C188.659 113.297 191.202 115.308 193.871 114.951C194.564 114.848 195.212 114.593 195.9 114.423C198.05 113.874 200.602 114.325 201.948 116.086C202.228 116.442 202.419 116.86 202.504 117.305C202.589 117.75 202.565 118.209 202.435 118.643Z" fill="#9400FF"/>
<path d="M179.192 133.492H179.17C179.11 133.48 179.058 133.445 179.025 133.395C178.991 133.344 178.979 133.283 178.991 133.224C181.784 119.063 196.316 116.086 199.762 116.109C199.823 116.111 199.88 116.136 199.922 116.179C199.965 116.223 199.989 116.28 199.99 116.341C199.99 116.371 199.984 116.401 199.972 116.429C199.961 116.457 199.943 116.483 199.922 116.504C199.9 116.525 199.874 116.542 199.846 116.553C199.818 116.564 199.788 116.57 199.758 116.569C196.387 116.547 182.173 119.456 179.442 133.313C179.43 133.369 179.398 133.418 179.352 133.451C179.305 133.484 179.248 133.499 179.192 133.492Z" fill="white"/>
<path d="M195.015 125.37C194.968 125.363 194.925 125.343 194.89 125.312C193.459 124.227 191.806 123.472 190.05 123.1C188.294 122.727 186.477 122.747 184.73 123.157C184.7 123.164 184.67 123.164 184.64 123.159C184.611 123.154 184.583 123.143 184.557 123.127C184.532 123.11 184.51 123.089 184.493 123.065C184.476 123.04 184.463 123.012 184.457 122.983C184.451 122.954 184.45 122.923 184.455 122.894C184.46 122.864 184.472 122.836 184.488 122.81C184.504 122.785 184.525 122.763 184.55 122.746C184.574 122.729 184.602 122.717 184.631 122.71C186.45 122.286 188.34 122.268 190.167 122.659C191.993 123.049 193.711 123.837 195.198 124.968C195.234 125.001 195.259 125.044 195.269 125.093C195.279 125.141 195.273 125.191 195.253 125.235C195.232 125.28 195.198 125.317 195.156 125.341C195.113 125.365 195.064 125.375 195.015 125.37Z" fill="white"/>
<path d="M22.5055 119.184C22.2672 116.269 21.5953 113.407 20.512 110.691C18.724 106.319 15.3359 101.912 11.4158 101.081C7.49579 100.249 5.82854 102.891 6.65546 105.484C7.37064 107.718 10.285 109.569 12.4976 111.518C14.7101 113.467 18.8447 118.173 19.9935 122.724L22.2061 122.965L22.5055 119.184Z" fill="#9400FF"/>
<g opacity="0.15">
<path opacity="0.15" d="M22.5055 119.184C22.2672 116.269 21.5953 113.407 20.512 110.691C18.724 106.319 15.3359 101.912 11.4158 101.081C7.49579 100.249 5.82854 102.891 6.65546 105.484C7.37064 107.718 10.285 109.569 12.4976 111.518C14.7101 113.467 18.8447 118.173 19.9935 122.724L22.2061 122.965L22.5055 119.184Z" fill="black"/>
</g>
<path d="M20.9949 121.235C20.9316 121.234 20.871 121.209 20.8254 121.165C20.7797 121.121 20.7525 121.061 20.7491 120.998C20.3379 109.56 9.15431 103.168 9.0381 103.119C8.97882 103.087 8.93469 103.032 8.91541 102.968C8.89613 102.903 8.90328 102.834 8.93529 102.774C8.9673 102.715 9.02154 102.671 9.08609 102.652C9.15063 102.632 9.22019 102.64 9.27947 102.672C9.39568 102.739 20.8206 109.269 21.2452 120.998C21.2465 121.064 21.2218 121.127 21.1767 121.175C21.1315 121.222 21.0695 121.25 21.0039 121.253L20.9949 121.235Z" fill="white"/>
<path d="M21.1245 136.866C21.1245 136.866 18.8359 138.31 15.2645 137.698C14.1102 137.546 13.0334 137.033 12.1893 136.231C11.2685 135.279 11.121 134.323 10.8483 133.049C10.7776 132.517 10.5947 132.007 10.3119 131.551C9.54313 130.497 8.01444 130.514 6.73606 130.242C4.94812 129.853 3.26746 128.552 2.74449 126.782C2.22151 125.012 3.07078 122.849 4.78274 122.151L2.68191 120.81C2.03165 120.428 1.43112 119.968 0.893969 119.438C0.355353 118.897 0.03677 118.176 0 117.413C0.0339242 116.854 0.225266 116.317 0.551924 115.862C0.878582 115.407 1.32723 115.054 1.84605 114.843C2.89342 114.441 4.02894 114.326 5.13585 114.508C6.25509 114.641 7.35568 114.901 8.41672 115.281C8.70612 115.413 9.01966 115.483 9.33751 115.487C9.75857 115.416 10.1525 115.232 10.4773 114.955C12.8821 113.368 16.7977 113.489 18.0761 116.479C18.2683 116.926 18.38 117.373 18.5812 117.82C19.3321 119.429 21.4329 118.947 22.7873 119.697C23.2161 119.966 23.5802 120.326 23.8537 120.752C24.1273 121.178 24.3034 121.659 24.3696 122.16C24.6378 123.756 24.1953 125.571 23.9226 127.149C23.65 128.727 23.2566 130.188 22.8275 131.681C22.4789 132.915 22.0945 134.135 21.6832 135.346C21.567 135.619 21.3748 136.705 21.1245 136.866Z" fill="#9400FF"/>
<path d="M22.5457 133.178C21.3452 129.881 19.3762 126.918 16.802 124.534C16.7754 124.478 16.7293 124.433 16.6723 124.409C15.9305 123.712 15.1532 123.054 14.3435 122.437C14.04 120.318 14.3133 118.157 15.1347 116.18C15.1485 116.15 15.1564 116.118 15.1579 116.086C15.1594 116.054 15.1545 116.021 15.1435 115.991C15.1325 115.96 15.1156 115.932 15.0938 115.908C15.072 115.884 15.0456 115.865 15.0163 115.851C14.9869 115.837 14.9551 115.829 14.9227 115.828C14.8903 115.826 14.858 115.831 14.8275 115.842C14.797 115.853 14.7689 115.87 14.7449 115.892C14.721 115.914 14.7015 115.94 14.6877 115.97C13.881 117.88 13.5734 119.964 13.7938 122.026C10.5012 119.653 6.84904 117.824 2.97672 116.609C2.94561 116.6 2.91306 116.598 2.881 116.602C2.84894 116.606 2.81803 116.616 2.7901 116.633C2.76217 116.649 2.73779 116.67 2.7184 116.696C2.69902 116.722 2.68502 116.752 2.67724 116.783C2.66845 116.814 2.66587 116.846 2.66967 116.878C2.67347 116.91 2.68358 116.941 2.69939 116.968C2.7152 116.996 2.7364 117.021 2.76176 117.04C2.78712 117.06 2.81613 117.074 2.8471 117.083C2.94991 117.114 9.92734 119.09 15.6845 124.167C12.1533 123.546 7.93379 125.253 7.74158 125.334C7.68852 125.355 7.64459 125.395 7.61736 125.445C7.59014 125.495 7.58133 125.553 7.59245 125.61C7.60357 125.666 7.63393 125.716 7.67829 125.752C7.72264 125.789 7.77822 125.808 7.83545 125.808C7.86641 125.814 7.89835 125.814 7.92932 125.808C7.97848 125.785 12.9311 123.783 16.422 124.869C18.9584 127.208 20.8987 130.12 22.0809 133.362C22.0981 133.41 22.1297 133.451 22.1712 133.481C22.2127 133.51 22.2623 133.526 22.3133 133.527H22.3937C22.4283 133.517 22.4602 133.499 22.4871 133.475C22.5141 133.451 22.5355 133.421 22.55 133.388C22.5644 133.355 22.5715 133.319 22.5708 133.283C22.57 133.247 22.5615 133.211 22.5457 133.178Z" fill="white"/>
<path d="M14.6251 47.7959C14.0104 48.4936 13.2155 49.0085 12.3276 49.2844L12.2337 49.3067H12.1622L12.0057 49.3335H11.8269H11.7107C11.6931 49.3381 11.6747 49.3381 11.6571 49.3335C11.3005 49.335 10.9517 49.2298 10.6554 49.0314C10.3591 48.8331 10.1289 48.5507 9.9943 48.2206C9.86588 47.9267 9.78443 47.6145 9.75293 47.2953C9.89149 47.2327 10.0301 47.1567 10.1731 47.0763C11.2042 46.4038 12.0622 45.4976 12.6773 44.4312C13.2925 43.3649 13.6474 42.1685 13.7132 40.9392C13.7132 40.7693 13.7132 40.6084 13.7132 40.4609C14.1037 40.2749 14.5324 40.1831 14.9648 40.1927H15.0408H15.1033C15.1255 40.1884 15.1482 40.1884 15.1704 40.1927C15.4772 40.2389 15.7667 40.3642 16.0104 40.5562C16.2542 40.7482 16.4437 41.0004 16.5605 41.2878C17.2891 42.9998 16.4309 45.8918 14.6251 47.7959Z" fill="#5F05DB"/>
<path d="M21.1734 42.4231C21.1384 42.4063 21.1003 42.3972 21.0616 42.3963L19.5508 42.3113C19.5178 42.3125 19.4848 42.3071 19.454 42.2953C19.4231 42.2834 19.3949 42.2655 19.3712 42.2426C19.3474 42.2196 19.3285 42.1921 19.3156 42.1617C19.3026 42.1313 19.296 42.0985 19.296 42.0655C19.3184 41.8241 19.3273 41.5872 19.3318 41.3593C19.3337 41.1085 19.3217 40.8578 19.296 40.6083C19.3007 40.4445 19.3606 40.287 19.4659 40.1613L21.151 38.1142C21.2023 38.0585 21.2386 37.9908 21.2566 37.9173C21.2746 37.8438 21.2736 37.767 21.2538 37.694L20.4537 35.906C20.4435 35.8834 20.4262 35.8646 20.4045 35.8524C20.3583 35.837 20.3085 35.8364 20.2619 35.8509C20.2154 35.8653 20.1746 35.894 20.1453 35.9329L18.3573 37.5778C18.3094 37.6323 18.2441 37.6686 18.1725 37.6808C18.1009 37.693 18.0273 37.6803 17.964 37.6448C17.7323 37.4571 17.4729 37.3064 17.1952 37.1978C17.1332 37.1749 17.0811 37.1312 17.0477 37.0741C17.0142 37.0171 17.0016 36.9502 17.0119 36.8849L17.5662 34.3595C17.5747 34.3255 17.5719 34.2896 17.5582 34.2573C17.5445 34.225 17.5206 34.1981 17.4902 34.1807C17.4386 34.1567 17.3814 34.1474 17.3248 34.1539L15.5369 34.3282C15.4558 34.3381 15.3784 34.3678 15.3113 34.4145C15.2443 34.4613 15.1898 34.5237 15.1525 34.5964L14.1959 37.1621C14.1129 37.3253 13.9776 37.4559 13.8115 37.5331C13.4276 37.7131 13.0598 37.9254 12.7119 38.1678C12.56 38.2661 12.3946 38.2751 12.332 38.1678L11.438 36.7866C11.3754 36.6883 11.2279 36.7106 11.1117 36.8313L9.17628 38.8785C9.12061 38.9333 9.07802 38.9999 9.05171 39.0734C9.02539 39.147 9.01603 39.2255 9.02431 39.3031L9.56516 41.1268C9.58783 41.2828 9.55287 41.4417 9.46683 41.5738C9.13906 42.07 8.84056 42.5849 8.57286 43.1159C8.47826 43.2713 8.32801 43.3848 8.15269 43.4333L6.49438 43.8311C6.41162 43.8501 6.33451 43.8883 6.26928 43.9427C6.20405 43.9971 6.15254 44.066 6.11891 44.144L5.28305 46.951C5.27424 46.9817 5.27301 47.014 5.27946 47.0452C5.28592 47.0764 5.29986 47.1056 5.32009 47.1302C5.34032 47.1548 5.36623 47.1742 5.3956 47.1866C5.42496 47.199 5.4569 47.204 5.48866 47.2014L7.00394 47.2908C7.03712 47.2889 7.07034 47.2939 7.10149 47.3055C7.13265 47.3171 7.16108 47.335 7.185 47.358C7.20892 47.3811 7.22781 47.4089 7.2405 47.4396C7.25318 47.4703 7.25939 47.5034 7.25872 47.5366C7.2163 48.0214 7.2163 48.509 7.25872 48.9938C7.25758 49.1567 7.20081 49.3144 7.0978 49.4407L5.4082 51.4879C5.35691 51.5435 5.32057 51.6113 5.30259 51.6848C5.28461 51.7582 5.28557 51.8351 5.3054 51.9081L6.1055 53.696C6.11701 53.7191 6.13387 53.739 6.15467 53.7541C6.17502 53.7607 6.19689 53.7607 6.21725 53.7541C6.29226 53.7487 6.36247 53.7152 6.41392 53.6603L8.20186 52.0109C8.25043 51.9571 8.31593 51.9216 8.38749 51.9102C8.45905 51.8988 8.53235 51.9123 8.5952 51.9483C8.82635 52.1369 9.08582 52.2877 9.36402 52.3953C9.42688 52.4184 9.47965 52.4628 9.51314 52.5208C9.54663 52.5788 9.55871 52.6467 9.54728 52.7127L8.98855 55.2381C8.98206 55.2708 8.98589 55.3047 8.9995 55.3352C9.01312 55.3656 9.03584 55.391 9.06454 55.408C9.11488 55.4359 9.17286 55.4469 9.22992 55.4393L11.0179 55.265C11.099 55.255 11.1764 55.2254 11.2434 55.1786C11.3104 55.1319 11.3649 55.0694 11.4023 54.9968L12.3588 52.4311C12.4427 52.2674 12.5776 52.1356 12.7432 52.0556C12.9363 51.9679 13.1243 51.8694 13.3064 51.7606C13.4807 51.6578 13.6595 51.546 13.8383 51.4254C14.0171 51.3047 14.1512 51.3181 14.2138 51.4254L15.1078 52.8021C15.1192 52.8189 15.1345 52.8327 15.1525 52.8423C15.224 52.8915 15.3402 52.8423 15.4341 52.7574L17.3695 50.7146C17.4289 50.6579 17.4734 50.5875 17.4991 50.5096C17.5248 50.4316 17.531 50.3486 17.517 50.2677L16.9806 48.4395C16.9539 48.2834 16.9892 48.123 17.079 47.9925C17.4094 47.4964 17.708 46.9799 17.9729 46.4459C18.0228 46.3666 18.088 46.298 18.1648 46.2443C18.2416 46.1905 18.3283 46.1527 18.4199 46.1331L20.0738 45.7352C20.1565 45.7162 20.2336 45.678 20.2989 45.6236C20.3641 45.5693 20.4156 45.5003 20.4492 45.4224L21.2851 42.6153C21.2887 42.5756 21.2799 42.5358 21.2598 42.5014C21.2398 42.467 21.2096 42.4396 21.1734 42.4231ZM12.332 49.2843L12.2337 49.3067H12.1621L12.0057 49.3335H11.8224H11.657C11.3 49.3345 10.9508 49.2287 10.6544 49.0295C10.3581 48.8303 10.1282 48.547 9.99427 48.216C9.86535 47.9223 9.78388 47.61 9.75289 47.2908C9.73481 47.12 9.72586 46.9484 9.72608 46.7767C9.83433 44.8981 10.6094 43.1197 11.9118 41.7615C12.3054 41.3393 12.7569 40.9751 13.2528 40.6798C13.3971 40.5951 13.5464 40.5189 13.6998 40.4519C14.0913 40.2693 14.5194 40.1791 14.9513 40.1882H15.0273H15.0899H15.1614C15.4674 40.2351 15.756 40.3607 15.9989 40.5527C16.2418 40.7446 16.4307 40.9964 16.5471 41.2833C17.2935 42.9371 16.4353 45.8246 14.6295 47.7333C14.0238 48.455 13.2278 48.9923 12.332 49.2843Z" fill="#F5F5F5"/>
<path d="M14.178 37.1758C14.0897 37.3301 13.9575 37.4546 13.7981 37.5334C13.4183 37.713 13.0549 37.9254 12.7119 38.1681C12.5599 38.2664 12.3945 38.2753 12.332 38.1681L11.438 36.7914C11.4277 36.7736 11.412 36.7595 11.3933 36.7511L9.69922 35.7722C9.88129 35.6634 10.0693 35.565 10.2624 35.4772L10.325 35.4415C10.3918 35.3998 10.4533 35.3503 10.5083 35.294L10.5753 35.2224C10.5902 35.2068 10.6023 35.1886 10.6111 35.1688L10.6379 35.1196L14.178 37.1758Z" fill="#EBEBEB"/>
<path d="M9.58295 41.194C9.58594 41.3299 9.54861 41.4637 9.47567 41.5784C9.14868 42.0751 8.85021 42.5899 8.5817 43.1205C8.55957 43.1648 8.53094 43.2054 8.49678 43.2412L4.9209 41.1806C4.93984 41.1635 4.95638 41.144 4.97007 41.1225C4.98785 41.1038 5.0029 41.0828 5.01476 41.0599C5.27975 40.526 5.57834 40.0094 5.90873 39.5133C5.92636 39.4881 5.94134 39.4612 5.95343 39.4329C5.95343 39.4329 5.95343 39.3971 5.95343 39.3793C5.95537 39.3689 5.95537 39.3583 5.95343 39.348C5.95502 39.3227 5.95502 39.2973 5.95343 39.272C5.95994 39.2335 5.95994 39.1942 5.95343 39.1558L9.58295 41.194Z" fill="#EBEBEB"/>
<path d="M9.67244 35.7675L7.82192 34.6947C7.79762 34.6801 7.76981 34.6724 7.74146 34.6724C7.70231 34.6752 7.66419 34.6863 7.62955 34.7047C7.59491 34.7232 7.56452 34.7487 7.54032 34.7796L6.38263 36.0044L5.60487 36.8224C5.54127 36.8915 5.49393 36.974 5.46631 37.0637L8.18845 38.6282L9.03325 39.1109C9.062 39.028 9.10766 38.9519 9.16734 38.8874L9.19416 38.8606L11.1028 36.8402C11.1339 36.8006 11.1756 36.7707 11.2232 36.7541C11.2707 36.7375 11.322 36.7348 11.371 36.7464L9.67244 35.7675Z" fill="#F5F5F5"/>
<path d="M17.4411 34.1762C17.3943 34.152 17.3409 34.1442 17.2891 34.1538L15.5012 34.3281C15.3925 34.3408 15.2908 34.3878 15.2106 34.4622L11.6348 32.4061C11.7133 32.3286 11.8157 32.2798 11.9253 32.2675L13.7132 32.0932C13.7732 32.0836 13.8347 32.0946 13.8876 32.1245L14.3614 32.4016L14.5983 32.5357L16.1091 33.4297L16.4801 33.6443L16.7527 33.8007L17.4411 34.1762Z" fill="#F5F5F5"/>
<path d="M8.47445 43.2588C8.38218 43.3508 8.26852 43.4184 8.14368 43.4555L6.48537 43.8533C6.36441 43.8822 6.25614 43.9497 6.17695 44.0455L2.60107 41.9939C2.68231 41.8933 2.79348 41.8213 2.91843 41.7883L4.57675 41.3904C4.70061 41.3595 4.81257 41.2926 4.89858 41.1982L8.47445 43.2588Z" fill="#E6E6E6"/>
<path d="M7.2143 49.1992C7.18473 49.2876 7.14095 49.3707 7.08467 49.445L5.39507 51.4922C5.34635 51.5532 5.30992 51.623 5.28779 51.6978L1.71191 49.6372C1.73026 49.5596 1.76706 49.4875 1.81919 49.4272L3.50879 47.38C3.56504 47.3089 3.60887 47.2288 3.63842 47.1431L7.2143 49.1992Z" fill="#E6E6E6"/>
<path d="M2.64149 45.601L2.69066 45.6323L2.62809 45.592L2.50293 45.5205L2.64149 45.601Z" fill="#919191"/>
<path d="M14.6251 47.7959C14.0104 48.4936 13.2155 49.0085 12.3276 49.2844L12.2337 49.3067H12.1622L12.0057 49.3335H11.8269H11.7107C11.6931 49.3381 11.6747 49.3381 11.6571 49.3335C11.3005 49.335 10.9517 49.2298 10.6554 49.0314C10.3591 48.8331 10.1289 48.5507 9.9943 48.2206C9.86588 47.9267 9.78443 47.6145 9.75293 47.2953C9.89149 47.2327 10.0301 47.1567 10.1731 47.0763C11.2042 46.4038 12.0622 45.4976 12.6773 44.4312C13.2925 43.3649 13.6474 42.1685 13.7132 40.9392C13.7132 40.7693 13.7132 40.6084 13.7132 40.4609C14.1037 40.2749 14.5324 40.1831 14.9648 40.1927H15.0408H15.1033C15.1255 40.1884 15.1482 40.1884 15.1704 40.1927C15.4772 40.2389 15.7667 40.3642 16.0104 40.5562C16.2542 40.7482 16.4437 41.0004 16.5605 41.2878C17.2891 42.9998 16.4309 45.8918 14.6251 47.7959Z" fill="#919191"/>
<path d="M9.58329 41.1941L6.00741 39.138C6.01175 39.1158 6.01175 39.0931 6.00741 39.0709L5.46656 37.2472C5.4493 37.1874 5.4493 37.1238 5.46656 37.064L8.1887 38.6284L9.0335 39.1112C9.0145 39.1769 9.0145 39.2466 9.0335 39.3123L9.57435 41.136C9.57982 41.1549 9.58283 41.1744 9.58329 41.1941Z" fill="#919191"/>
<path d="M15.2332 34.4625C15.1927 34.4999 15.1607 34.5456 15.1394 34.5965L14.1828 37.1622L10.6069 35.1016L11.5769 32.5315C11.5956 32.4804 11.6281 32.4356 11.6708 32.4019L15.2332 34.4625Z" fill="#919191"/>
<path d="M20.3733 35.8477C20.3285 35.8379 20.2819 35.8407 20.2385 35.8557C20.1951 35.8707 20.1567 35.8973 20.1275 35.9326L18.3395 37.582C18.2903 37.6361 18.2244 37.6722 18.1522 37.6843C18.0801 37.6965 18.0059 37.6841 17.9417 37.649C17.71 37.4613 17.4507 37.3106 17.1729 37.202C17.1109 37.1791 17.0588 37.1354 17.0254 37.0783C16.992 37.0213 16.9793 36.9544 16.9896 36.8892L17.5439 34.3637C17.5532 34.3297 17.5508 34.2935 17.537 34.2611C17.5232 34.2286 17.4989 34.2018 17.4679 34.1849L16.793 33.7916C16.8136 33.7869 16.8349 33.7869 16.8555 33.7916L16.8958 33.8184L20.3733 35.8477Z" fill="#919191"/>
<path d="M21.1644 42.4184C21.1295 42.4016 21.0914 42.3925 21.0527 42.3916L19.5419 42.3066C19.5089 42.3078 19.4759 42.3024 19.4451 42.2906C19.4142 42.2787 19.386 42.2608 19.3622 42.2379C19.3385 42.2149 19.3195 42.1874 19.3066 42.157C19.2937 42.1266 19.2871 42.0939 19.2871 42.0608C19.3095 41.8194 19.3229 41.5825 19.3229 41.3501L21.1644 42.4184Z" fill="#919191"/>
<path d="M4.95656 41.1226C4.94296 41.1439 4.92653 41.1633 4.90771 41.1803C4.92625 41.1631 4.94265 41.1437 4.95656 41.1226Z" fill="#919191"/>
<path d="M2.6057 41.9761C2.58121 42.0088 2.56164 42.045 2.54759 42.0833L2.44478 42.432L1.89946 44.2646L1.7162 44.8904C1.70528 44.9238 1.70528 44.9598 1.7162 44.9932C1.7209 45.0135 1.72842 45.0331 1.73855 45.0513C1.7523 45.0673 1.76725 45.0823 1.78325 45.096H1.81007L2.09167 45.2614L2.16765 45.3016L2.39115 45.4268L2.50736 45.4983L2.64593 45.5788L2.6951 45.6101L2.8426 45.6905L3.64717 46.1375L5.34572 47.1209C5.31166 47.0991 5.28575 47.0667 5.27201 47.0287C5.25827 46.9907 5.25746 46.9493 5.26973 46.9108L6.00725 44.4926L6.11006 44.1439C6.12551 44.1016 6.14819 44.0623 6.17711 44.0277L2.6057 41.9761Z" fill="#919191"/>
<path d="M15.1572 52.847L13.3022 51.7519C13.4766 51.649 13.6554 51.5373 13.8342 51.4166C14.013 51.2959 14.147 51.3093 14.2096 51.4166L15.1036 52.7978C15.1162 52.8191 15.1349 52.8362 15.1572 52.847Z" fill="#919191"/>
<path d="M9.58319 52.7124L9.02446 55.2424C9.01797 55.275 9.0218 55.309 9.03541 55.3394C9.04903 55.3698 9.07175 55.3953 9.10045 55.4122L6.23975 53.7584C6.31412 53.7505 6.38356 53.7174 6.43642 53.6645L8.22436 52.0196C8.27225 51.9651 8.33718 51.9283 8.40858 51.9153C8.47998 51.9024 8.55368 51.9139 8.6177 51.9481C8.84788 52.138 9.10758 52.289 9.38652 52.3951C9.4524 52.4148 9.50878 52.458 9.54501 52.5165C9.58124 52.5749 9.59482 52.6446 9.58319 52.7124Z" fill="#919191"/>
<path d="M7.24535 48.9981C7.25053 49.0667 7.23982 49.1355 7.21406 49.1993L3.63818 47.1432C3.66193 47.0773 3.67256 47.0075 3.66947 46.9375C3.66947 46.6917 3.63818 46.4414 3.63818 46.1821L5.33673 47.1655C5.37394 47.1853 5.41528 47.196 5.45741 47.1968L6.97269 47.2817C7.0061 47.2805 7.0394 47.2861 7.07057 47.2982C7.10174 47.3103 7.13012 47.3286 7.15396 47.352C7.17781 47.3755 7.19663 47.4035 7.20927 47.4345C7.22191 47.4654 7.2281 47.4986 7.22747 47.532C7.19047 48.0203 7.19646 48.5109 7.24535 48.9981Z" fill="#919191"/>
<path d="M6.1369 53.7362L5.41279 53.316L5.27422 53.2401L4.10759 52.5606L3.79023 52.3818L2.59231 51.6846C2.58156 51.6796 2.5723 51.6719 2.5655 51.6622C2.555 51.6525 2.54728 51.6401 2.54315 51.6264L1.73857 49.8385C1.72256 49.7906 1.72256 49.7389 1.73857 49.691C1.73857 49.691 1.73857 49.6508 1.73857 49.6284L5.31445 51.689C5.28948 51.7568 5.28948 51.8313 5.31445 51.8991L6.11456 53.687C6.11871 53.7047 6.1263 53.7214 6.1369 53.7362Z" fill="#919191"/>
<path d="M26.2734 6.35583C26.1563 6.57157 25.973 6.74395 25.7504 6.84751C25.2293 7.09689 24.7287 7.38684 24.253 7.71466C24.0474 7.85323 23.806 7.86664 23.7301 7.71466L22.4964 5.82392C22.481 5.79772 22.4574 5.77731 22.4293 5.76581L21.2046 5.05063C21.4638 4.90313 21.7186 4.76456 21.9734 4.64835L22.0628 4.59918C22.1546 4.54332 22.2388 4.4757 22.3131 4.39803C22.3479 4.36709 22.3793 4.33264 22.407 4.29523C22.4262 4.2751 22.4427 4.25256 22.4561 4.22818L22.4919 4.16113L26.2734 6.35583Z" fill="#EBEBEB"/>
<path d="M19.931 11.8762C19.9353 12.0613 19.8839 12.2435 19.7835 12.3992C19.3343 13.0824 18.9254 13.7914 18.5588 14.5223C18.5271 14.5818 18.4864 14.6361 18.4381 14.6832L14.6343 12.4886C14.6616 12.4651 14.6857 12.438 14.7058 12.4081C14.7272 12.3812 14.7466 12.3528 14.7639 12.3232C15.1233 11.5835 15.531 10.8683 15.9842 10.1821C16.0088 10.1494 16.0284 10.1133 16.0423 10.0748C16.0581 10.0504 16.0687 10.023 16.0736 9.99438C16.076 9.98108 16.076 9.96745 16.0736 9.95415C16.0736 9.91839 16.0736 9.88263 16.0736 9.85134C16.0844 9.79825 16.0844 9.74352 16.0736 9.69043L19.931 11.8762Z" fill="#EBEBEB"/>
<path d="M21.2049 5.05069L18.6615 3.58012C18.6292 3.56039 18.5922 3.5496 18.5543 3.54883C18.4991 3.55266 18.4452 3.56772 18.396 3.59308C18.3468 3.61844 18.3033 3.65358 18.2682 3.69633L16.6769 5.37699L15.6086 6.50339C15.5216 6.59961 15.4575 6.71419 15.4209 6.83863L18.0626 8.34944L19.2247 9.01545C19.262 8.90022 19.3246 8.79483 19.408 8.70703L19.4438 8.67127L22.0676 5.8955C22.1096 5.84084 22.1666 5.79952 22.2317 5.77652C22.2967 5.75352 22.367 5.74982 22.4341 5.76587L21.2049 5.05069Z" fill="#F5F5F5"/>
<path d="M30.7612 2.23468C30.6955 2.20496 30.6227 2.19412 30.5511 2.20339L28.124 2.44476C27.976 2.46443 27.8373 2.5283 27.7262 2.62802L23.9224 0.433331C24.0337 0.330429 24.1743 0.264802 24.3247 0.245595L26.7518 0.00422605C26.8335 -0.00837472 26.9171 0.00739906 26.9887 0.0489238L27.6413 0.42886L27.9631 0.616593L28.942 1.18427L29.456 1.48374C29.5857 1.55079 29.7108 1.62678 29.827 1.69383L30.7612 2.23468Z" fill="#F5F5F5"/>
<path d="M18.438 14.6879C18.3161 14.8162 18.1616 14.9089 17.991 14.9561L15.7114 15.5058C15.5473 15.5476 15.4014 15.6418 15.2957 15.774L11.4829 13.5838C11.5967 13.4431 11.7539 13.3441 11.9299 13.3022L14.205 12.7569C14.3751 12.7108 14.5295 12.6197 14.652 12.4932L18.438 14.6879Z" fill="#E6E6E6"/>
<path d="M16.7082 22.8763C16.6688 22.9986 16.6066 23.1124 16.525 23.2116L14.2096 26.0231C14.1415 26.1058 14.0913 26.2017 14.0621 26.3047L10.2627 24.11C10.2883 24.0051 10.3372 23.9074 10.4057 23.8239L12.7301 21.0124C12.808 20.9138 12.8671 20.8017 12.9044 20.6816L16.7082 22.8763Z" fill="#E6E6E6"/>
<path d="M11.5188 18.5633L11.5903 18.608L11.5009 18.5544L11.3311 18.4561L11.5188 18.5633Z" fill="#919191"/>
<path d="M26.8858 20.9499C26.0493 21.9042 24.9671 22.6107 23.7569 22.9926L23.6228 23.0239C23.5917 23.028 23.5601 23.028 23.529 23.0239L23.3144 23.0597C23.2315 23.073 23.1479 23.082 23.0641 23.0865H22.8317C22.3413 23.0911 21.861 22.9472 21.4541 22.6735C21.0471 22.3998 20.7326 22.0093 20.552 21.5533C20.3746 21.1488 20.2615 20.7189 20.2168 20.2794C20.4045 20.1945 20.5967 20.0917 20.7934 19.9844C23.4753 18.4289 25.6611 14.6563 25.6611 11.5498C25.6611 11.3174 25.6611 11.1028 25.6343 10.8883C26.1708 10.6369 26.7583 10.513 27.3507 10.5262H27.4579H27.5429C27.574 10.5219 27.6056 10.5219 27.6367 10.5262C28.0585 10.5877 28.4566 10.7588 28.7916 11.0223C29.1265 11.2859 29.3864 11.6327 29.5454 12.0281C30.5511 14.3569 29.371 18.3306 26.8858 20.9499Z" fill="#919191"/>
<path d="M19.9308 11.8764L16.1269 9.68616C16.1315 9.65654 16.1315 9.62639 16.1269 9.59677L15.3939 7.08918C15.37 7.00745 15.37 6.9206 15.3939 6.83887L18.0355 8.34968L19.1977 9.01568C19.1634 9.10383 19.1542 9.19973 19.1709 9.29282L19.9129 11.7959C19.9236 11.8215 19.9296 11.8487 19.9308 11.8764Z" fill="#919191"/>
<path d="M27.7261 2.6281C27.6693 2.68008 27.625 2.74426 27.5965 2.81583L26.2824 6.33808L22.4785 4.14338C22.4785 4.14338 22.4785 4.14338 22.4785 4.11656L23.7927 0.594322C23.819 0.525298 23.862 0.463869 23.9178 0.415527L27.7261 2.6281Z" fill="#919191"/>
<path d="M34.7887 4.53218C34.7258 4.51856 34.6603 4.52263 34.5996 4.54393C34.5388 4.56523 34.4851 4.60294 34.4445 4.65287L31.9727 6.91461C31.905 6.98849 31.8144 7.03746 31.7155 7.05367C31.6166 7.06989 31.5151 7.05239 31.4274 7.00401C31.1096 6.74412 30.7518 6.53733 30.368 6.39164C30.2808 6.35782 30.2082 6.29471 30.1625 6.21314C30.1168 6.13157 30.101 6.03663 30.1177 5.94465L30.882 2.48052C30.8947 2.43345 30.891 2.38346 30.8715 2.33877C30.852 2.29408 30.8179 2.25737 30.7748 2.23468L29.8271 1.68936C29.8581 1.68297 29.8901 1.68297 29.921 1.68936L29.9747 1.72065L34.7887 4.53218Z" fill="#919191"/>
<path d="M35.875 13.5613C35.8281 13.5369 35.7759 13.5246 35.7231 13.5256L33.6446 13.4094C33.5988 13.4106 33.5533 13.4025 33.5108 13.3857C33.4682 13.3689 33.4295 13.3437 33.397 13.3115C33.3644 13.2794 33.3387 13.241 33.3213 13.1987C33.3039 13.1563 33.2953 13.1109 33.2959 13.0652C33.3227 12.7389 33.3406 12.4126 33.3406 12.0952L35.875 13.5613Z" fill="#919191"/>
<path d="M14.7053 12.417C14.6853 12.4467 14.6614 12.4736 14.6343 12.4969L14.7053 12.417Z" fill="#919191"/>
<path d="M11.4738 13.5835C11.4273 13.6334 11.3922 13.6929 11.371 13.7578L11.2503 14.2048L10.5038 16.7213L10.2491 17.584C10.2334 17.6289 10.2334 17.6777 10.2491 17.7226C10.2527 17.7502 10.2635 17.7764 10.2803 17.7986C10.2961 17.8225 10.3157 17.8437 10.3385 17.8611C10.3502 17.8724 10.3638 17.8814 10.3787 17.888L10.7586 18.1115L10.8659 18.1696L11.1698 18.3439L11.3352 18.4422L11.523 18.5495L11.5945 18.5942L11.7956 18.7059L12.9041 19.3451L14.1423 20.0603C14.0952 20.0303 14.0595 19.9854 14.0409 19.9327C14.0222 19.8801 14.0218 19.8227 14.0395 19.7698L15.0452 16.3861L15.1882 15.9123C15.2053 15.8515 15.2376 15.7962 15.2821 15.7514L11.4738 13.5835Z" fill="#919191"/>
<path d="M27.6191 27.8826L25.0713 26.403C25.3082 26.2645 25.5585 26.108 25.7999 25.9561C26.0412 25.8041 26.2469 25.8086 26.3184 25.9561L27.5565 27.8513C27.5756 27.8649 27.5967 27.8755 27.6191 27.8826Z" fill="#919191"/>
<path d="M19.9309 27.7039L19.1666 31.1904C19.1549 31.2357 19.1587 31.2836 19.1773 31.3265C19.1959 31.3695 19.2283 31.4049 19.2694 31.4273C19.113 31.3424 16.7171 29.9523 15.3359 29.1522C15.437 29.1421 15.5315 29.098 15.6041 29.027L18.076 26.7474C18.1428 26.6738 18.2323 26.6247 18.3303 26.6077C18.4282 26.5907 18.5291 26.6068 18.6168 26.6535C18.9344 26.9159 19.2921 27.1257 19.6762 27.2748C19.7622 27.3051 19.8349 27.3647 19.8815 27.4431C19.928 27.5216 19.9456 27.6139 19.9309 27.7039Z" fill="#919191"/>
<path d="M16.7348 22.5994C16.7399 22.6939 16.7246 22.7884 16.6901 22.8765L12.8862 20.6818C12.9216 20.5923 12.9384 20.4964 12.9354 20.4002C12.9024 20.0571 12.8875 19.7124 12.8907 19.3677L14.1288 20.0829C14.1797 20.1111 14.2362 20.1279 14.2942 20.132L16.3772 20.2482C16.4225 20.247 16.4677 20.2549 16.5099 20.2715C16.5522 20.288 16.5907 20.3129 16.6232 20.3445C16.6557 20.3762 16.6815 20.414 16.6991 20.4558C16.7168 20.4977 16.7258 20.5426 16.7258 20.5879C16.6679 21.2573 16.6709 21.9305 16.7348 22.5994Z" fill="#919191"/>
<path d="M15.2287 29.112L14.2319 28.5354L14.0441 28.4237L12.4395 27.4984C12.2875 27.409 12.1445 27.3241 11.9925 27.2481L11.4427 26.9218C11.4277 26.9136 11.4141 26.9031 11.4025 26.8905C11.389 26.8763 11.3783 26.8596 11.3712 26.8414L10.2671 24.4008C10.2462 24.3354 10.2462 24.2651 10.2671 24.1997C10.2653 24.1714 10.2653 24.143 10.2671 24.1147L14.0665 26.3094C14.0331 26.4049 14.0331 26.509 14.0665 26.6045L15.1661 29.0405C15.1812 29.0688 15.2026 29.0933 15.2287 29.112Z" fill="#919191"/>
<path d="M172.625 15.7068C173.236 16.4066 174.03 16.9221 174.918 17.1953H175.017H175.084L175.24 17.2221H175.423H175.535C175.553 17.2266 175.571 17.2266 175.589 17.2221C175.945 17.2235 176.294 17.1183 176.591 16.92C176.887 16.7217 177.117 16.4393 177.252 16.1091C177.381 15.8154 177.462 15.5031 177.493 15.1838C177.359 15.1213 177.216 15.0453 177.077 14.9648C176.045 14.2934 175.186 13.3875 174.57 12.321C173.954 11.2545 173.598 10.0576 173.533 8.82772C173.533 8.65787 173.533 8.50142 173.533 8.34945C173.142 8.16345 172.714 8.0716 172.281 8.08126H172.205H172.143H172.076C171.769 8.12748 171.479 8.25275 171.236 8.44476C170.992 8.63677 170.802 8.8889 170.685 9.17637C169.957 10.9107 170.815 13.8027 172.625 15.7068Z" fill="#5F05DB"/>
<path d="M165.983 10.5577L166.819 13.3647C166.852 13.4427 166.904 13.5117 166.969 13.566C167.034 13.6204 167.112 13.6586 167.194 13.6776L168.853 14.0755C169.028 14.1207 169.179 14.2331 169.273 14.3883C169.539 14.9213 169.838 15.4378 170.167 15.9349C170.256 16.0658 170.291 16.2258 170.265 16.3819L169.729 18.2056C169.715 18.2865 169.721 18.3696 169.747 18.4475C169.772 18.5254 169.817 18.5959 169.876 18.6526L171.816 20.6953C171.91 20.7981 172.022 20.8294 172.093 20.7847C172.111 20.7751 172.127 20.7613 172.138 20.7445L173.032 19.3633C173.094 19.2649 173.264 19.2739 173.412 19.3633C173.559 19.4527 173.765 19.6002 173.944 19.703C174.123 19.8058 174.319 19.9086 174.502 19.998C174.669 20.0752 174.804 20.2058 174.887 20.369L175.843 22.9347C175.881 23.0079 175.936 23.0708 176.004 23.1175C176.072 23.1643 176.15 23.1936 176.232 23.2029L177.993 23.3772C178.05 23.3848 178.108 23.3738 178.159 23.3459C178.188 23.3293 178.21 23.3038 178.223 23.2731C178.236 23.2424 178.239 23.2083 178.23 23.1761L177.672 20.6506C177.661 20.5847 177.674 20.5172 177.707 20.4594C177.74 20.4016 177.793 20.357 177.855 20.3332C178.134 20.2257 178.395 20.0749 178.628 19.8863C178.692 19.8516 178.765 19.8393 178.836 19.8515C178.908 19.8636 178.973 19.8995 179.022 19.9533L180.809 21.5982C180.861 21.6524 180.931 21.6858 181.006 21.6921C181.027 21.6967 181.048 21.6967 181.069 21.6921C181.092 21.6794 181.109 21.6587 181.118 21.634L181.918 19.846C181.938 19.773 181.939 19.6962 181.921 19.6227C181.903 19.5492 181.866 19.4815 181.815 19.4259L180.13 17.3787C180.024 17.2537 179.966 17.0955 179.965 16.9317C180.009 16.447 180.009 15.9592 179.965 15.4745C179.965 15.4415 179.971 15.4087 179.984 15.3783C179.997 15.3479 180.016 15.3204 180.04 15.2974C180.064 15.2745 180.092 15.2566 180.123 15.2448C180.153 15.2329 180.186 15.2275 180.219 15.2287L181.735 15.1437C181.767 15.1456 181.799 15.1399 181.828 15.1269C181.857 15.114 181.883 15.0942 181.903 15.0693C181.923 15.0444 181.937 15.015 181.944 14.9836C181.95 14.9523 181.949 14.9198 181.94 14.889L181.104 12.0819C181.071 12.0039 181.019 11.935 180.954 11.8806C180.889 11.8263 180.812 11.788 180.729 11.769L179.075 11.3712C178.9 11.3255 178.749 11.2132 178.655 11.0583C178.388 10.5254 178.09 10.0089 177.761 9.51174C177.674 9.38016 177.639 9.22079 177.663 9.06475L178.204 7.23659C178.213 7.15887 178.204 7.08005 178.178 7.00636C178.151 6.93267 178.108 6.86611 178.052 6.81195L176.116 4.76476C176 4.64407 175.857 4.62619 175.79 4.72453L174.896 6.10124C174.833 6.19958 174.668 6.19064 174.52 6.10124C174.173 5.86084 173.807 5.64859 173.425 5.46652C173.259 5.38936 173.124 5.25873 173.041 5.09553L172.084 2.52983C172.048 2.45667 171.993 2.39382 171.926 2.34698C171.859 2.30015 171.781 2.27082 171.7 2.26164L169.939 2.08732C169.881 2.08113 169.822 2.09038 169.769 2.11414C169.739 2.13159 169.715 2.1585 169.701 2.19077C169.687 2.22305 169.684 2.25892 169.693 2.29293L170.27 4.8184C170.28 4.88375 170.269 4.95085 170.236 5.00857C170.204 5.06629 170.152 5.11117 170.091 5.13575C169.811 5.24224 169.55 5.39317 169.317 5.58274C169.254 5.61744 169.181 5.6297 169.109 5.61753C169.038 5.60537 168.973 5.56949 168.924 5.51569L167.136 3.87079C167.042 3.78586 166.944 3.75457 166.877 3.79033C166.857 3.80378 166.842 3.82234 166.832 3.84397L166.028 5.63191C166.008 5.70492 166.007 5.78177 166.025 5.85525C166.043 5.92874 166.079 5.99646 166.13 6.05207L167.816 8.06797C167.918 8.19506 167.976 8.35196 167.981 8.51496C167.955 8.76443 167.943 9.01512 167.945 9.26589C167.945 9.49386 167.945 9.71288 167.981 9.97213C167.981 10.0052 167.974 10.0379 167.961 10.0683C167.949 10.0987 167.93 10.1263 167.906 10.1492C167.882 10.1722 167.854 10.1901 167.823 10.2019C167.792 10.2137 167.759 10.2192 167.726 10.218L166.215 10.3029C166.177 10.3044 166.139 10.3135 166.104 10.3297C166.059 10.346 166.022 10.3783 165.999 10.4204C165.977 10.4626 165.971 10.5115 165.983 10.5577ZM172.621 15.7069C170.833 13.8028 169.939 10.9108 170.708 9.25696C170.822 8.96858 171.01 8.71544 171.253 8.52314C171.497 8.33085 171.786 8.20621 172.093 8.16184H172.16H172.223H172.285C172.716 8.15312 173.143 8.24334 173.533 8.42556C173.68 8.49261 173.832 8.5686 173.98 8.65353C174.477 8.94906 174.928 9.3149 175.32 9.7397C176.624 11.0956 177.399 12.8729 177.506 14.7504C177.511 14.9222 177.502 15.0941 177.479 15.2644C177.448 15.5837 177.367 15.896 177.238 16.1897C177.104 16.5207 176.874 16.804 176.578 17.0032C176.282 17.2023 175.932 17.3082 175.575 17.3072H175.414H175.231L175.075 17.2803H175.008L174.909 17.2535C174.018 16.9606 173.225 16.4251 172.621 15.7069Z" fill="#F5F5F5"/>
<path d="M173.072 5.08648C173.154 5.24447 173.286 5.37043 173.448 5.44407C173.829 5.62614 174.195 5.83839 174.543 6.07879C174.69 6.17712 174.856 6.18606 174.918 6.07879L175.812 4.70207C175.822 4.68302 175.838 4.66745 175.857 4.65737L177.551 3.67848C177.363 3.5712 177.176 3.4684 176.992 3.38347C176.969 3.37428 176.946 3.36227 176.925 3.34771C176.859 3.30605 176.797 3.25653 176.742 3.2002L176.675 3.12869C176.662 3.11188 176.65 3.09393 176.639 3.07505L176.612 3.02588L173.072 5.08648Z" fill="#EBEBEB"/>
<path d="M177.69 9.10473C177.683 9.23901 177.719 9.37187 177.792 9.48467C178.121 9.98185 178.42 10.4983 178.686 11.0312C178.708 11.0758 178.738 11.1154 178.776 11.1475L182.352 9.08686C182.332 9.07079 182.315 9.05107 182.303 9.02875C182.285 9.01163 182.27 8.99206 182.258 8.97064C181.993 8.43528 181.694 7.91723 181.364 7.4196C181.348 7.39576 181.334 7.37029 181.324 7.34361C181.312 7.32594 181.305 7.30618 181.301 7.2855C181.301 7.2855 181.301 7.2855 181.301 7.25422C181.301 7.22293 181.301 7.25422 181.301 7.25422C181.3 7.22892 181.3 7.20353 181.301 7.17823C181.29 7.14026 181.29 7.09998 181.301 7.06201L177.69 9.10473Z" fill="#EBEBEB"/>
<path d="M177.573 3.67861L179.424 2.60585C179.45 2.59883 179.478 2.59883 179.504 2.60585C179.544 2.60865 179.583 2.61962 179.618 2.63808C179.654 2.65654 179.685 2.68208 179.71 2.71312L180.868 3.92445L181.645 4.74243C181.71 4.81247 181.758 4.89666 181.784 4.98827L179.062 6.54825L178.217 7.03099C178.191 6.9469 178.145 6.87028 178.083 6.8075L178.061 6.78068L176.148 4.76031C176.117 4.72026 176.075 4.69004 176.027 4.67336C175.98 4.65669 175.928 4.65429 175.879 4.66645L177.573 3.67861Z" fill="#F5F5F5"/>
<path d="M169.805 2.08742C169.855 2.07528 169.907 2.07528 169.957 2.08742L171.722 2.26174C171.831 2.27345 171.933 2.32056 172.013 2.39584L175.589 0.339709C175.509 0.261322 175.405 0.212445 175.294 0.201141L173.528 0.0268172C173.468 0.0172054 173.407 0.0282368 173.354 0.058106L172.88 0.335238L172.648 0.469331L171.137 1.3633L170.761 1.58233L170.498 1.6896L169.805 2.08742Z" fill="#F5F5F5"/>
<path d="M178.776 11.1524C178.867 11.2461 178.981 11.3139 179.107 11.3491L180.765 11.7469C180.883 11.7786 180.989 11.8456 181.069 11.9391L184.645 9.88743C184.563 9.78736 184.452 9.71544 184.327 9.68182L182.674 9.284C182.549 9.25192 182.436 9.1853 182.347 9.0918L178.776 11.1524Z" fill="#E6E6E6"/>
<path d="M180.032 17.1108C180.061 17.2003 180.106 17.2836 180.166 17.3567L181.851 19.4038C181.901 19.4637 181.938 19.5339 181.958 19.6095L185.534 17.5489C185.515 17.4716 185.478 17.3997 185.427 17.3388L183.737 15.2916C183.681 15.2213 183.638 15.1409 183.612 15.0547L180.032 17.1108Z" fill="#E6E6E6"/>
<path d="M184.604 13.5125L184.555 13.5438L184.618 13.508L184.743 13.4365L184.604 13.5125Z" fill="#919191"/>
<path d="M172.625 15.7068C173.236 16.4066 174.03 16.9221 174.918 17.1953H175.017H175.084L175.24 17.2221H175.423H175.535C175.553 17.2266 175.571 17.2266 175.589 17.2221C175.945 17.2235 176.294 17.1183 176.591 16.92C176.887 16.7217 177.117 16.4393 177.252 16.1091C177.381 15.8154 177.462 15.5031 177.493 15.1838C177.359 15.1213 177.216 15.0453 177.077 14.9648C176.045 14.2934 175.186 13.3875 174.57 12.321C173.954 11.2545 173.598 10.0576 173.533 8.82772C173.533 8.65787 173.533 8.50142 173.533 8.34945C173.142 8.16345 172.714 8.0716 172.281 8.08126H172.205H172.143H172.076C171.769 8.12748 171.479 8.25275 171.236 8.44476C170.992 8.63677 170.802 8.8889 170.685 9.17637C169.957 10.9107 170.815 13.8027 172.625 15.7068Z" fill="#919191"/>
<path d="M177.689 9.10516L181.265 7.04903C181.261 7.02843 181.261 7.00706 181.265 6.98645L181.806 5.15829C181.824 5.09996 181.824 5.03782 181.806 4.97949L179.084 6.53947L178.239 7.02221C178.258 7.08791 178.258 7.15765 178.239 7.22335L177.703 9.04705C177.694 9.065 177.689 9.08497 177.689 9.10516Z" fill="#919191"/>
<path d="M172.013 2.37351C172.054 2.41056 172.086 2.45641 172.107 2.50761L173.063 5.0733L176.639 3.0127L175.682 0.447009C175.664 0.397064 175.633 0.352522 175.593 0.317383L172.013 2.37351Z" fill="#919191"/>
<path d="M166.873 3.75901C166.918 3.75078 166.965 3.75425 167.009 3.76911C167.052 3.78397 167.092 3.80972 167.123 3.84393L168.911 5.49331C168.959 5.5478 169.024 5.58418 169.096 5.59638C169.167 5.60859 169.241 5.59587 169.304 5.56036C169.536 5.37079 169.797 5.21986 170.077 5.11337C170.139 5.08949 170.191 5.04474 170.224 4.98683C170.256 4.92891 170.268 4.86144 170.256 4.79601L169.702 2.27055C169.693 2.23654 169.696 2.20066 169.71 2.16839C169.724 2.13612 169.748 2.10921 169.778 2.09176L170.498 1.68947C170.475 1.68489 170.453 1.68489 170.431 1.68947C170.417 1.68713 170.404 1.68713 170.39 1.68947L166.873 3.75901Z" fill="#919191"/>
<path d="M166.081 10.3295C166.116 10.3127 166.154 10.3035 166.193 10.3026L167.708 10.2177C167.741 10.2189 167.774 10.2134 167.804 10.2016C167.835 10.1897 167.863 10.1717 167.886 10.1487C167.91 10.1257 167.928 10.0981 167.941 10.0677C167.953 10.0373 167.959 10.0047 167.958 9.97186C167.958 9.73049 167.927 9.49359 167.927 9.26562L166.081 10.3295Z" fill="#919191"/>
<path d="M182.289 9.03369C182.302 9.05587 182.318 9.07546 182.338 9.09141L182.289 9.03369Z" fill="#919191"/>
<path d="M184.64 9.88721C184.667 9.91992 184.687 9.95801 184.698 9.99895L184.801 10.3431L185.346 12.1758L185.534 12.806C185.543 12.8397 185.543 12.8751 185.534 12.9088C185.53 12.9281 185.523 12.9464 185.512 12.9625C185.501 12.9794 185.487 12.9945 185.471 13.0072H185.44L185.163 13.1725L185.083 13.2128L184.863 13.3424L184.743 13.4139L184.604 13.4899L184.555 13.5212L184.408 13.6017L183.603 14.0486L181.904 15.032C181.939 15.01 181.966 14.9769 181.98 14.938C181.994 14.899 181.994 14.8565 181.98 14.8175L181.225 12.4171L181.122 12.073C181.109 12.0284 181.086 11.9873 181.055 11.9523L184.64 9.88721Z" fill="#919191"/>
<path d="M172.089 20.7578L173.944 19.6806C173.774 19.5778 173.591 19.466 173.416 19.3453C173.242 19.2246 173.104 19.238 173.041 19.3453L172.147 20.7265C172.131 20.7419 172.111 20.7528 172.089 20.7578Z" fill="#919191"/>
<path d="M177.69 20.6239L178.244 23.1538C178.252 23.1866 178.249 23.221 178.235 23.2518C178.221 23.2825 178.198 23.3078 178.168 23.3237C178.28 23.2611 180.027 22.2554 181.033 21.6698C180.958 21.6635 180.888 21.6302 180.836 21.576L179.048 19.9311C179.001 19.8759 178.936 19.839 178.864 19.8267C178.792 19.8145 178.718 19.8277 178.655 19.864C178.422 20.0527 178.161 20.2035 177.882 20.311C177.818 20.3315 177.763 20.3744 177.728 20.4318C177.692 20.4892 177.679 20.5574 177.69 20.6239Z" fill="#919191"/>
<path d="M180 16.9092C179.996 16.9777 180.007 17.0463 180.032 17.1103L183.607 15.0542C183.582 14.9888 183.57 14.9188 183.572 14.8486C183.596 14.599 183.606 14.3483 183.603 14.0977L181.904 15.081C181.867 15.1008 181.826 15.1115 181.784 15.1123L180.269 15.2017C180.235 15.2005 180.203 15.206 180.172 15.2178C180.141 15.2296 180.113 15.2475 180.089 15.2705C180.065 15.2934 180.046 15.3209 180.033 15.3514C180.02 15.3818 180.014 15.4145 180.014 15.4475C180.052 15.9342 180.047 16.4233 180 16.9092Z" fill="#919191"/>
<path d="M181.109 21.6475L181.833 21.2318L181.972 21.1513L183.143 20.4764L183.456 20.2931L184.658 19.5958C184.667 19.5985 184.676 19.5985 184.685 19.5958L184.712 19.56L185.512 17.7721C185.526 17.724 185.526 17.6727 185.512 17.6246V17.562L181.936 19.6226C181.961 19.692 181.961 19.7678 181.936 19.8372L181.136 21.6251C181.128 21.634 181.119 21.6415 181.109 21.6475Z" fill="#919191"/>
<path d="M179.576 34.0515L180.724 37.9089C180.768 38.0189 180.838 38.1168 180.927 38.1945C181.017 38.2722 181.123 38.3275 181.238 38.3559L183.514 38.9057C183.758 38.9725 183.967 39.1331 184.095 39.3527C184.457 40.0849 184.865 40.7939 185.315 41.4759C185.434 41.6531 185.483 41.868 185.453 42.0793L184.711 44.5869C184.699 44.693 184.711 44.8006 184.747 44.9014C184.782 45.0021 184.841 45.0933 184.917 45.168L187.577 47.9795C187.706 48.1181 187.863 48.1628 187.966 48.1002C187.989 48.0856 188.009 48.0657 188.024 48.0421L189.266 46.1469C189.351 46.0128 189.584 46.0217 189.785 46.1469C189.986 46.272 190.272 46.4687 190.513 46.5938C190.755 46.719 191.027 46.8799 191.282 46.9961C191.51 47.1063 191.696 47.2864 191.814 47.5102L193.128 51.0324C193.178 51.1344 193.253 51.2221 193.346 51.287C193.439 51.3519 193.547 51.392 193.66 51.4034L196.083 51.6448C196.161 51.654 196.24 51.64 196.311 51.6045C196.352 51.5821 196.384 51.5467 196.403 51.5038C196.421 51.4608 196.425 51.4129 196.414 51.3676L195.649 47.899C195.63 47.8069 195.644 47.7107 195.69 47.6285C195.736 47.5463 195.811 47.4836 195.899 47.4521C196.283 47.3027 196.64 47.0946 196.959 46.8352C197.046 46.788 197.147 46.7711 197.245 46.7873C197.343 46.8035 197.432 46.8518 197.5 46.9246L199.976 49.1908C200.048 49.2634 200.143 49.3092 200.244 49.3205C200.274 49.32 200.303 49.3123 200.329 49.2981C200.36 49.2821 200.384 49.255 200.396 49.2221L201.5 46.786C201.525 46.6855 201.525 46.5806 201.5 46.4801C201.475 46.3797 201.426 46.2868 201.357 46.2094L199.037 43.3979C198.894 43.2239 198.816 43.0062 198.814 42.7811C198.874 42.1149 198.874 41.4447 198.814 40.7786C198.814 40.7332 198.823 40.6883 198.841 40.6465C198.858 40.6047 198.884 40.5668 198.916 40.5351C198.949 40.5035 198.987 40.4786 199.03 40.4621C199.072 40.4456 199.117 40.4377 199.162 40.4389L201.241 40.3226C201.285 40.3266 201.33 40.3198 201.371 40.3026C201.412 40.2854 201.448 40.2584 201.476 40.2241C201.504 40.1897 201.524 40.1489 201.533 40.1053C201.542 40.0617 201.54 40.0167 201.527 39.974L200.392 36.1076C200.345 36.0016 200.274 35.908 200.185 35.8343C200.096 35.7605 199.991 35.7087 199.878 35.6829L197.603 35.1332C197.358 35.0659 197.149 34.9054 197.021 34.6862C196.658 33.9544 196.251 33.2454 195.801 32.563C195.68 32.3866 195.631 32.171 195.663 31.9596L196.405 29.452C196.417 29.3458 196.406 29.2381 196.37 29.1373C196.334 29.0365 196.276 28.9453 196.199 28.8709L193.539 26.0594C193.378 25.894 193.177 25.8627 193.092 25.9968L191.85 27.892C191.765 28.0261 191.537 28.0172 191.331 27.892C190.854 27.5637 190.352 27.2723 189.829 27.0204C189.602 26.9141 189.416 26.7348 189.302 26.5108L187.988 22.9886C187.939 22.8871 187.864 22.7999 187.772 22.735C187.68 22.6701 187.573 22.6297 187.46 22.6176L185.033 22.3762C184.955 22.3694 184.876 22.3832 184.805 22.4164C184.763 22.4403 184.73 22.4772 184.711 22.5215C184.691 22.5658 184.687 22.6152 184.698 22.6623L185.462 26.1309C185.481 26.2224 185.467 26.3177 185.422 26.3996C185.377 26.4815 185.304 26.5447 185.217 26.5779C184.832 26.7241 184.474 26.9325 184.157 27.1947C184.069 27.2426 183.967 27.2593 183.868 27.2423C183.769 27.2253 183.679 27.1754 183.612 27.1008L181.136 24.8391C181.094 24.7877 181.039 24.7499 180.976 24.7307C180.913 24.7116 180.845 24.712 180.782 24.7318C180.755 24.7517 180.732 24.7777 180.715 24.8078L179.616 27.2483C179.589 27.3484 179.588 27.4535 179.612 27.5541C179.637 27.6547 179.685 27.7478 179.754 27.825L182.074 30.632C182.22 30.8048 182.3 31.023 182.302 31.2489C182.271 31.5841 182.258 31.9283 182.258 32.2814C182.258 32.6345 182.28 32.9206 182.307 33.2514C182.307 33.2967 182.299 33.3417 182.281 33.3836C182.264 33.4255 182.238 33.4633 182.205 33.4947C182.173 33.5262 182.134 33.5506 182.091 33.5664C182.049 33.5822 182.003 33.589 181.958 33.5866L179.88 33.7073C179.827 33.7064 179.774 33.7186 179.728 33.743C179.669 33.767 179.621 33.8116 179.593 33.8684C179.565 33.9252 179.559 33.9904 179.576 34.0515ZM188.694 41.1272C186.213 38.5079 185.033 34.5387 186.061 32.2635C186.219 31.8679 186.478 31.5205 186.812 31.2562C187.147 30.9919 187.544 30.8198 187.966 30.7572H188.059H188.149H188.256C188.848 30.744 189.436 30.8679 189.972 31.1192C190.182 31.2119 190.387 31.3164 190.585 31.4321C191.263 31.8388 191.88 32.34 192.417 32.9206C194.281 34.8873 195.412 37.6095 195.426 39.8086C195.428 40.0447 195.415 40.2806 195.385 40.5149C195.342 40.9527 195.231 41.381 195.055 41.7843C194.874 42.2409 194.559 42.632 194.151 42.9057C193.743 43.1795 193.262 43.323 192.771 43.3174H192.543L192.292 43.2951L192.078 43.2593L191.979 43.237L191.845 43.2012C190.624 42.8132 189.534 42.0955 188.694 41.1272Z" fill="#F5F5F5"/>
<path d="M189.311 26.5327C189.426 26.7481 189.608 26.9205 189.83 27.0243C190.353 27.2743 190.855 27.5657 191.331 27.896C191.533 28.0345 191.778 28.0435 191.85 27.896L193.088 26.0007C193.104 25.9769 193.126 25.9571 193.151 25.9426H193.173L194.402 25.2275C194.143 25.0755 193.884 24.9414 193.633 24.8252L193.54 24.7715C193.448 24.7148 193.364 24.6472 193.289 24.5704C193.257 24.5398 193.227 24.5069 193.2 24.4721C193.18 24.4508 193.163 24.4267 193.151 24.4005L193.115 24.3335L189.311 26.5327Z" fill="#EBEBEB"/>
<path d="M195.654 32.0532C195.65 32.2397 195.701 32.4232 195.801 32.5806C196.249 33.2629 196.658 33.9703 197.026 34.6994C197.056 34.7596 197.097 34.814 197.146 34.8603L200.95 32.6656C200.923 32.6421 200.899 32.615 200.879 32.5851C200.856 32.5605 200.837 32.5336 200.821 32.5047C200.458 31.7709 200.051 31.0603 199.6 30.377C199.575 30.3432 199.555 30.3055 199.542 30.2653C199.525 30.2431 199.515 30.2169 199.511 30.1893C199.508 30.1745 199.508 30.1594 199.511 30.1446C199.511 30.1446 199.511 30.0731 199.489 30.0418C199.478 29.9887 199.478 29.934 199.489 29.8809L195.654 32.0532Z" fill="#EBEBEB"/>
<path d="M194.402 25.2324L196.945 23.7574C196.978 23.7376 197.015 23.7268 197.053 23.7261C197.108 23.7311 197.161 23.7471 197.209 23.7732C197.258 23.7993 197.3 23.835 197.334 23.878L198.926 25.5587L199.994 26.6851C200.081 26.7797 200.145 26.8928 200.182 27.0159L197.535 28.5312L196.378 29.1972C196.34 29.0822 196.277 28.977 196.195 28.8887L196.159 28.853L193.535 26.0772C193.494 26.0212 193.437 25.9788 193.372 25.9557C193.306 25.9326 193.235 25.9297 193.168 25.9476L194.402 25.2324Z" fill="#F5F5F5"/>
<path d="M184.823 22.4116C184.89 22.3844 184.962 22.3737 185.033 22.3803L187.456 22.6261C187.607 22.641 187.748 22.7054 187.858 22.8094L191.662 20.6147C191.552 20.5089 191.411 20.4414 191.26 20.4225L188.833 20.1811C188.751 20.1702 188.668 20.1859 188.596 20.2258L187.939 20.6057L187.621 20.7935L186.638 21.3656L186.128 21.6606C185.999 21.7321 185.874 21.8081 185.753 21.8707L184.823 22.4116Z" fill="#F5F5F5"/>
<path d="M197.146 34.8646C197.269 34.9927 197.423 35.0867 197.593 35.1373L199.869 35.6826C200.033 35.7272 200.179 35.8207 200.289 35.9508L204.102 33.7606C203.986 33.6223 203.83 33.525 203.655 33.4834L201.379 32.9336C201.209 32.8876 201.055 32.7964 200.932 32.6699L197.146 34.8646Z" fill="#E6E6E6"/>
<path d="M198.872 43.0536C198.914 43.1761 198.976 43.2909 199.055 43.3933L201.375 46.2048C201.443 46.2875 201.494 46.3834 201.523 46.4864L205.322 44.2917C205.296 44.1849 205.245 44.0855 205.175 44.0012L202.855 41.1897C202.775 41.0914 202.715 40.9792 202.676 40.8589L198.872 43.0536Z" fill="#E6E6E6"/>
<path d="M204.062 38.74L203.995 38.7847L204.084 38.7355L204.254 38.6372L204.062 38.74Z" fill="#919191"/>
<path d="M188.694 41.1269C189.537 42.087 190.629 42.7954 191.85 43.1741L191.979 43.2054L192.073 43.2278L192.292 43.2635L192.543 43.2859H192.699C192.723 43.2904 192.747 43.2904 192.771 43.2859C193.262 43.2915 193.743 43.1479 194.151 42.8741C194.559 42.6004 194.874 42.2094 195.055 41.7527C195.232 41.3495 195.345 40.9213 195.39 40.4833C195.202 40.3939 195.01 40.2956 194.813 40.1838C192.131 38.6283 189.946 34.8602 189.946 31.7537C189.946 31.5168 189.946 31.3067 189.972 31.0921C189.435 30.8375 188.846 30.712 188.252 30.7256H188.149H188.059H187.965C187.544 30.7883 187.146 30.9603 186.812 31.2247C186.478 31.489 186.219 31.8363 186.061 32.232C185.033 34.5384 186.213 38.5076 188.694 41.1269Z" fill="#919191"/>
<path d="M195.654 32.0531L199.453 29.8629C199.446 29.8335 199.446 29.8029 199.453 29.7735L200.195 27.2659C200.221 27.1845 200.221 27.097 200.195 27.0156L197.549 28.5309L196.391 29.1969C196.42 29.2856 196.42 29.3809 196.391 29.4696L195.654 31.9772C195.649 32.0022 195.649 32.0281 195.654 32.0531Z" fill="#919191"/>
<path d="M187.858 22.8093C187.915 22.86 187.959 22.9226 187.988 22.9926L189.302 26.5193L193.106 24.3246L191.792 20.7979C191.765 20.7304 191.722 20.6706 191.667 20.6235L187.858 22.8093Z" fill="#919191"/>
<path d="M180.778 24.7136C180.84 24.6994 180.905 24.7027 180.965 24.7232C181.025 24.7438 181.078 24.7807 181.118 24.8299L183.594 27.0916C183.662 27.1655 183.753 27.2145 183.852 27.2307C183.95 27.2469 184.052 27.2294 184.14 27.181C184.458 26.9237 184.813 26.7171 185.195 26.5686C185.283 26.5371 185.358 26.4744 185.404 26.3922C185.45 26.31 185.464 26.2138 185.445 26.1217L184.685 22.6531C184.672 22.6065 184.675 22.5569 184.694 22.5122C184.712 22.4676 184.745 22.4306 184.788 22.4072L185.717 21.8664C185.688 21.8597 185.658 21.8597 185.628 21.8664L185.574 21.9021L180.778 24.7136Z" fill="#919191"/>
<path d="M179.71 33.7381C179.758 33.7158 179.809 33.7036 179.862 33.7023L181.94 33.5861C182.031 33.5861 182.119 33.5506 182.184 33.4872C182.249 33.4237 182.287 33.3373 182.289 33.2464C182.262 32.9156 182.24 32.5893 182.24 32.272L179.71 33.7381Z" fill="#919191"/>
<path d="M200.893 32.5894C200.913 32.6191 200.936 32.6459 200.964 32.6693L200.893 32.5894Z" fill="#919191"/>
<path d="M204.11 33.7607C204.147 33.8053 204.175 33.8571 204.191 33.9127L204.334 34.391L205.08 36.9075L205.335 37.7702C205.351 37.8166 205.351 37.8668 205.335 37.9132C205.329 37.9388 205.319 37.9631 205.304 37.9847C205.291 38.0106 205.271 38.0323 205.246 38.0473L205.206 38.0741L204.821 38.2976L204.718 38.3602L204.41 38.539L204.249 38.6373L204.057 38.7402L203.99 38.7849L203.789 38.8966L202.68 39.5358L201.442 40.2554C201.49 40.2261 201.526 40.1814 201.546 40.1287C201.565 40.076 201.567 40.0183 201.549 39.9649L200.544 36.5767L200.401 36.1029C200.382 36.0426 200.35 35.9875 200.307 35.942L204.11 33.7607Z" fill="#919191"/>
<path d="M187.961 48.064L190.513 46.5845C190.272 46.4414 190.026 46.285 189.785 46.1375C189.543 45.99 189.338 45.99 189.266 46.1375L188.024 48.0327C188.005 48.047 187.984 48.0577 187.961 48.064Z" fill="#919191"/>
<path d="M195.654 47.8856L196.418 51.3587C196.429 51.4033 196.424 51.4502 196.406 51.4922C196.387 51.5342 196.355 51.5689 196.315 51.5911C196.467 51.5062 198.868 50.1205 200.249 49.3159C200.146 49.3069 200.05 49.2627 199.976 49.1908L197.504 46.929C197.437 46.8555 197.348 46.8063 197.25 46.7893C197.152 46.7723 197.051 46.7884 196.963 46.8352C196.644 47.0956 196.284 47.3038 195.9 47.452C195.814 47.484 195.743 47.545 195.698 47.6242C195.653 47.7035 195.637 47.796 195.654 47.8856Z" fill="#919191"/>
<path d="M198.832 42.7761C198.825 42.8704 198.838 42.965 198.872 43.0533L202.676 40.8586C202.641 40.769 202.626 40.673 202.631 40.577C202.663 40.2337 202.676 39.8891 202.672 39.5444L201.433 40.2641C201.383 40.2944 201.327 40.3114 201.268 40.3132L199.185 40.4295C199.14 40.4276 199.094 40.4351 199.052 40.4514C199.009 40.4677 198.97 40.4925 198.938 40.5243C198.905 40.5561 198.879 40.5942 198.862 40.6363C198.844 40.6784 198.836 40.7236 198.836 40.7692C198.896 41.4369 198.894 42.1087 198.832 42.7761Z" fill="#919191"/>
<path d="M200.352 49.2889C200.432 49.2442 200.825 49.0207 201.353 48.7123L201.541 48.605L203.145 47.6753L203.592 47.425L204.146 47.1032C204.162 47.0964 204.176 47.0856 204.187 47.0719C204.199 47.058 204.209 47.0431 204.218 47.0272L205.318 44.6C205.339 44.5331 205.339 44.4613 205.318 44.3944V44.314L201.518 46.5087C201.552 46.6042 201.552 46.7082 201.518 46.8037L200.414 49.2353C200.399 49.2593 200.378 49.278 200.352 49.2889Z" fill="#919191"/>
<path d="M126.13 6.88798V110.843C126.162 111.424 126.33 111.99 126.62 112.495C126.911 112.999 127.315 113.429 127.802 113.749L173.899 140.358C174.82 140.894 175.571 140.456 175.571 139.388V35.4369C175.539 34.8556 175.371 34.29 175.08 33.7854C174.79 33.2809 174.386 32.8514 173.899 32.5315L127.802 5.92249C126.881 5.38611 126.13 5.81969 126.13 6.88798ZM128.539 19.2963C128.539 18.4023 129.183 18.009 129.978 18.4694L171.888 42.6602C172.306 42.934 172.655 43.3024 172.905 43.7357C173.155 44.1689 173.299 44.6549 173.327 45.1543V126.582C173.327 127.502 172.679 127.869 171.888 127.413L129.978 103.218C129.183 102.771 128.539 102.176 128.539 101.264V19.2963Z" fill="#5F05DB"/>
<path opacity="0.5" d="M126.13 6.88798V110.843C126.162 111.424 126.33 111.99 126.62 112.495C126.911 112.999 127.315 113.429 127.802 113.749L173.899 140.358C174.82 140.894 175.571 140.456 175.571 139.388V35.4369C175.539 34.8556 175.371 34.29 175.08 33.7854C174.79 33.2809 174.386 32.8514 173.899 32.5315L127.802 5.92249C126.881 5.38611 126.13 5.81969 126.13 6.88798ZM128.539 19.2963C128.539 18.4023 129.183 18.009 129.978 18.4694L171.888 42.6602C172.306 42.934 172.655 43.3024 172.905 43.7357C173.155 44.1689 173.299 44.6549 173.327 45.1543V126.582C173.327 127.502 172.679 127.869 171.888 127.413L129.978 103.218C129.183 102.771 128.539 102.176 128.539 101.264V19.2963Z" fill="black"/>
<path d="M174.104 140.461C174.602 140.671 175.14 140.77 175.68 140.753C176.22 140.735 176.75 140.6 177.233 140.358L179.151 139.249C179.641 138.932 180.048 138.504 180.341 137.999C180.633 137.493 180.801 136.926 180.832 136.344V32.3975C180.822 31.9647 180.723 31.5385 180.541 31.1459C180.483 31.0084 180.417 30.8741 180.344 30.7437L175.07 33.7876C175.181 33.9861 175.278 34.1923 175.361 34.4045C175.486 34.7362 175.554 35.0869 175.562 35.4415V139.392C175.571 140.376 174.931 140.823 174.104 140.461Z" fill="#5F05DB"/>
<path opacity="0.7" d="M174.104 140.461C174.602 140.671 175.14 140.77 175.68 140.753C176.22 140.735 176.75 140.6 177.233 140.358L179.151 139.249C179.641 138.932 180.048 138.504 180.341 137.999C180.633 137.493 180.801 136.926 180.832 136.344V32.3975C180.822 31.9647 180.723 31.5385 180.541 31.1459C180.483 31.0084 180.417 30.8741 180.344 30.7437L175.07 33.7876C175.181 33.9861 175.278 34.1923 175.361 34.4045C175.486 34.7362 175.554 35.0869 175.562 35.4415V139.392C175.571 140.376 174.931 140.823 174.104 140.461Z" fill="black"/>
<path d="M150.45 117.905C148.989 117.065 147.804 117.749 147.804 119.434C147.854 120.353 148.119 121.247 148.579 122.043C149.039 122.84 149.68 123.517 150.45 124.02C151.912 124.86 153.096 124.176 153.096 122.491C153.047 121.573 152.782 120.679 152.322 119.882C151.862 119.085 151.221 118.408 150.45 117.905Z" stroke="#E6E6E6" stroke-width="1.45697" stroke-miterlimit="10"/>
<path d="M150.83 21.4685C150.214 21.1109 149.708 21.4014 149.708 22.1166C149.731 22.5064 149.843 22.8857 150.038 23.2241C150.233 23.5625 150.504 23.8506 150.83 24.0654C151.452 24.423 151.957 24.1325 151.957 23.4128C151.935 23.023 151.822 22.6437 151.626 22.3058C151.431 21.9679 151.158 21.681 150.83 21.4685Z" fill="black"/>
<path d="M155.188 28.3028L146.512 23.2921C145.994 22.9971 145.574 23.2072 145.574 23.7659C145.597 24.0814 145.693 24.3871 145.856 24.6582C146.02 24.9292 146.244 25.158 146.512 25.3259L155.188 30.3321C155.707 30.6316 156.127 30.4215 156.127 29.8583C156.104 29.5436 156.006 29.2388 155.843 28.9685C155.68 28.6983 155.456 28.4703 155.188 28.3028Z" fill="black"/>
<path d="M128.539 101.264C128.539 102.158 129.183 102.762 129.978 103.218L171.888 127.413C172.679 127.86 173.327 127.502 173.327 126.581V45.1542C173.299 44.6548 173.155 44.1688 172.905 43.7356C172.655 43.3023 172.306 42.9339 171.888 42.66L129.978 18.4692C129.183 18.0222 128.539 18.3798 128.539 19.2961V101.264Z" fill="#5F05DB"/>
<path opacity="0.5" d="M128.539 101.264C128.539 102.158 129.183 102.762 129.978 103.218L171.888 127.413C172.679 127.86 173.327 127.502 173.327 126.581V45.1542C173.299 44.6548 173.155 44.1688 172.905 43.7356C172.655 43.3023 172.306 42.9339 171.888 42.66L129.978 18.4692C129.183 18.0222 128.539 18.3798 128.539 19.2961V101.264Z" fill="white"/>
<path d="M131.341 25.4556V24.6912C131.341 24.5259 131.409 24.4275 131.489 24.4722L131.529 24.499C131.58 24.5476 131.62 24.6068 131.645 24.6725C131.671 24.7382 131.682 24.8087 131.677 24.879V25.6433C131.677 25.8087 131.61 25.907 131.529 25.8579H131.489C131.435 25.8065 131.394 25.7435 131.369 25.6738C131.343 25.6041 131.334 25.5294 131.341 25.4556Z" fill="white"/>
<path d="M132.008 25.8265V24.4855C132.008 24.3202 132.07 24.2218 132.151 24.271H132.191C132.242 24.3206 132.282 24.3806 132.307 24.447C132.332 24.5134 132.343 24.5845 132.339 24.6554V25.974C132.339 26.1394 132.272 26.2333 132.191 26.1886L132.151 26.1662C132.061 26.0755 132.01 25.9539 132.008 25.8265Z" fill="white"/>
<path d="M132.669 26.2202V24.3429C132.669 24.1775 132.736 24.0836 132.817 24.1283L132.857 24.1507C132.908 24.2004 132.947 24.2605 132.972 24.3268C132.998 24.3931 133.009 24.4642 133.004 24.5351V26.4124C133.004 26.5778 132.937 26.6716 132.857 26.6269H132.817C132.763 26.5747 132.722 26.5109 132.696 26.4405C132.671 26.37 132.661 26.2947 132.669 26.2202Z" fill="white"/>
<path d="M133.335 26.5996V23.3635C133.335 23.1981 133.398 23.0998 133.478 23.1489H133.518C133.569 23.1987 133.608 23.2588 133.634 23.3251C133.659 23.3914 133.67 23.4624 133.666 23.5333V26.7695C133.666 26.9349 133.599 27.0332 133.518 26.9841H133.478C133.428 26.9342 133.389 26.874 133.364 26.8076C133.339 26.7412 133.329 26.6703 133.335 26.5996Z" fill="white"/>
<path d="M135.132 27.8602C135.116 27.822 135.109 27.7809 135.11 27.7396V27.2658L134.368 26.8188C134.349 26.8087 134.332 26.7947 134.319 26.7777C134.306 26.7608 134.297 26.7412 134.292 26.7204V26.5506C134.288 26.5224 134.288 26.4938 134.292 26.4656C134.298 26.4443 134.305 26.4234 134.314 26.4031L135.105 25.156C135.105 25.156 135.132 25.1202 135.145 25.1158C135.159 25.1113 135.172 25.1158 135.195 25.1158L135.297 25.1783C135.33 25.1941 135.355 25.2211 135.369 25.2543C135.377 25.2957 135.377 25.3381 135.369 25.3795V27.0423L135.534 27.1361C135.563 27.1529 135.586 27.1777 135.601 27.2076C135.609 27.2505 135.609 27.2944 135.601 27.3373V27.449C135.611 27.4811 135.611 27.5153 135.601 27.5474C135.601 27.5474 135.566 27.5474 135.534 27.5474L135.369 27.4535V27.9273C135.378 27.9594 135.378 27.9935 135.369 28.0256C135.369 28.0256 135.333 28.0256 135.297 28.0256L135.172 27.9541C135.149 27.928 135.135 27.8951 135.132 27.8602ZM135.159 26.8903V25.7058L134.618 26.5997L135.159 26.8903Z" fill="white"/>
<path d="M136.013 28.084C135.859 27.6944 135.785 27.278 135.794 26.8593C135.761 26.5209 135.837 26.1807 136.013 25.8894C136.162 25.7195 136.367 25.7106 136.63 25.8625C136.85 25.9874 137.032 26.1697 137.157 26.39C137.164 26.4118 137.164 26.4352 137.157 26.457C137.159 26.4719 137.159 26.4869 137.157 26.5017L137.09 26.6716C137.09 26.6716 137.09 26.6984 137.063 26.6939C137.05 26.6831 137.039 26.6693 137.032 26.6537C136.937 26.4999 136.807 26.3711 136.652 26.2782C136.473 26.1754 136.33 26.1799 136.232 26.3006C136.106 26.5216 136.053 26.7764 136.08 27.0292C136.07 27.3339 136.121 27.6375 136.227 27.9231C136.302 28.1302 136.443 28.3063 136.63 28.4238C136.687 28.459 136.748 28.4861 136.813 28.5042C136.861 28.5169 136.912 28.5169 136.96 28.5042V27.7488L136.652 27.57C136.622 27.5528 136.598 27.5261 136.585 27.494C136.577 27.4527 136.577 27.4102 136.585 27.3689V27.2616C136.585 27.208 136.585 27.1767 136.585 27.1633C136.585 27.1498 136.621 27.1633 136.652 27.1633L137.144 27.4493C137.179 27.4688 137.206 27.5006 137.22 27.5387C137.235 27.5863 137.243 27.6362 137.242 27.6862V28.7858C137.246 28.8155 137.246 28.8455 137.242 28.8752C137.238 28.8915 137.229 28.9058 137.215 28.9154C137.116 28.95 137.011 28.9591 136.907 28.9419C136.804 28.9248 136.707 28.8818 136.625 28.8171C136.347 28.6457 136.132 28.3884 136.013 28.084Z" fill="white"/>
<path d="M169.935 44.5998C169.888 44.4225 169.784 44.2655 169.64 44.1529L167.405 42.8655C167.212 42.7538 167.065 42.9728 167.065 43.3662V45.0468C167.067 45.2788 167.11 45.5086 167.19 45.7262C167.222 45.8134 167.263 45.8972 167.311 45.9766C167.355 46.051 167.414 46.115 167.485 46.1643L169.72 47.4516C169.912 47.5589 170.064 47.3399 170.064 46.9465V45.2793C170.06 45.0471 170.016 44.8173 169.935 44.5998ZM167.279 45.6056C167.245 45.511 167.229 45.4111 167.23 45.3105V43.6433C167.23 43.3528 167.351 43.174 167.49 43.2589L169.724 44.5462C169.763 44.5691 169.795 44.6014 169.818 44.6401C169.833 44.6656 169.845 44.6926 169.854 44.7205C169.888 44.8166 169.905 44.9181 169.903 45.02V46.6828C169.903 46.9733 169.783 47.1521 169.644 47.0672L167.409 45.7799C167.343 45.7365 167.297 45.6692 167.279 45.5922V45.6056Z" fill="white"/>
<path d="M168.683 44.2335V46.2048L167.485 45.494L167.445 45.4628C167.447 45.4405 167.447 45.418 167.445 45.3957V43.8983C167.445 43.6882 167.539 43.5541 167.641 43.6122L168.683 44.2335Z" fill="white"/>
<path d="M170.171 45.3423C170.256 45.387 170.323 45.7043 170.323 46.044V46.3524C170.323 46.6966 170.256 46.9425 170.171 46.9022L170.019 46.8307V45.2573L170.171 45.3423Z" fill="white"/>
<path d="M164.642 43.8894C164.642 44.2559 164.45 44.4436 164.195 44.3051C164.055 44.197 163.942 44.0582 163.864 43.8992C163.787 43.7403 163.747 43.5656 163.748 43.3887C163.748 43.0222 163.94 42.839 164.195 42.9731C164.336 43.0806 164.449 43.2194 164.527 43.3784C164.604 43.5375 164.644 43.7124 164.642 43.8894Z" fill="white"/>
<path d="M164.209 41.8868C164.124 41.8261 164.026 41.7867 163.923 41.7718C163.821 41.7569 163.716 41.767 163.617 41.8012C163.519 41.8354 163.431 41.8927 163.359 41.9682C163.288 42.0438 163.236 42.1355 163.207 42.2354C163.19 42.2942 163.185 42.3559 163.193 42.4166C163.201 42.4774 163.221 42.5359 163.252 42.5885C163.332 42.7316 163.453 42.7673 163.502 42.6511C163.52 42.5791 163.556 42.5128 163.606 42.458C163.656 42.4032 163.719 42.3618 163.789 42.3374C163.859 42.313 163.934 42.3064 164.007 42.3183C164.081 42.3301 164.15 42.36 164.209 42.4053C164.567 42.6609 164.818 43.0397 164.915 43.4691C164.964 43.639 165.085 43.7462 165.17 43.6926C165.205 43.6514 165.228 43.601 165.236 43.5471C165.244 43.4933 165.236 43.4383 165.214 43.3886C165.07 42.7836 164.713 42.2505 164.209 41.8868Z" fill="white"/>
<path d="M164.208 40.823C164.085 40.7324 163.942 40.6709 163.791 40.6428C163.641 40.6147 163.486 40.6209 163.338 40.6608C163.19 40.7007 163.052 40.7733 162.936 40.8733C162.82 40.9734 162.728 41.0982 162.666 41.2387C162.645 41.2994 162.637 41.364 162.644 41.4281C162.65 41.4921 162.67 41.554 162.702 41.6097C162.778 41.7527 162.894 41.7885 162.948 41.6856C162.998 41.5709 163.072 41.4687 163.167 41.3869C163.261 41.305 163.373 41.2456 163.494 41.2129C163.615 41.1803 163.741 41.1753 163.864 41.1983C163.987 41.2213 164.103 41.2718 164.204 41.3459C164.818 41.7789 165.263 42.4105 165.464 43.1339C165.518 43.2948 165.634 43.3976 165.71 43.344C165.782 43.2993 165.795 43.1562 165.746 43.0132C165.498 42.129 164.956 41.3562 164.208 40.823Z" fill="white"/>
<path d="M126.143 6.6064C126.264 5.71243 126.961 5.41742 127.801 5.90463L173.899 32.5315C174.394 32.8403 174.802 33.2712 175.083 33.7831L180.358 30.7391C180.074 30.2292 179.665 29.8 179.169 29.492L133.08 2.87855C132.56 2.61398 131.985 2.47607 131.402 2.47607C130.818 2.47607 130.243 2.61398 129.723 2.87855L127.801 3.98259C127.354 4.27644 126.974 4.66258 126.688 5.11511C126.402 5.56765 126.216 6.07611 126.143 6.6064Z" fill="#5F05DB"/>
<path opacity="0.2" d="M126.143 6.6064C126.264 5.71243 126.961 5.41742 127.801 5.90463L173.899 32.5315C174.394 32.8403 174.802 33.2712 175.083 33.7831L180.358 30.7391C180.074 30.2292 179.665 29.8 179.169 29.492L133.08 2.87855C132.56 2.61398 131.985 2.47607 131.402 2.47607C130.818 2.47607 130.243 2.61398 129.723 2.87855L127.801 3.98259C127.354 4.27644 126.974 4.66258 126.688 5.11511C126.402 5.56765 126.216 6.07611 126.143 6.6064Z" fill="black"/>
<path d="M73.7341 5.92249L27.6366 32.5315C27.1502 32.8514 26.7456 33.2809 26.4553 33.7854C26.1649 34.29 25.997 34.8556 25.9648 35.4369V139.388C25.9648 140.456 26.7158 140.894 27.6366 140.358L73.7341 113.749C74.2205 113.429 74.6251 112.999 74.9154 112.495C75.2057 111.99 75.3737 111.424 75.4058 110.843V6.88798C75.4058 5.81969 74.6549 5.38611 73.7341 5.92249ZM72.9966 101.264C72.9966 102.158 72.3529 102.762 71.5573 103.218L29.648 127.413C28.8568 127.86 28.2087 127.502 28.2087 126.582V45.1543C28.2364 44.6549 28.381 44.1689 28.6311 43.7357C28.8811 43.3024 29.2294 42.934 29.648 42.6602L71.5573 18.4694C72.3529 18.0224 72.9966 18.38 72.9966 19.2963V101.264Z" fill="#5F05DB"/>
<path opacity="0.5" d="M73.7341 5.92249L27.6366 32.5315C27.1502 32.8514 26.7456 33.2809 26.4553 33.7854C26.1649 34.29 25.997 34.8556 25.9648 35.4369V139.388C25.9648 140.456 26.7158 140.894 27.6366 140.358L73.7341 113.749C74.2205 113.429 74.6251 112.999 74.9154 112.495C75.2057 111.99 75.3737 111.424 75.4058 110.843V6.88798C75.4058 5.81969 74.6549 5.38611 73.7341 5.92249ZM72.9966 101.264C72.9966 102.158 72.3529 102.762 71.5573 103.218L29.648 127.413C28.8568 127.86 28.2087 127.502 28.2087 126.582V45.1543C28.2364 44.6549 28.381 44.1689 28.6311 43.7357C28.8811 43.3024 29.2294 42.934 29.648 42.6602L71.5573 18.4694C72.3529 18.0224 72.9966 18.38 72.9966 19.2963V101.264Z" fill="black"/>
<path d="M27.4312 140.461C26.9333 140.671 26.3957 140.77 25.8555 140.753C25.3153 140.735 24.7854 140.6 24.3023 140.358L22.3848 139.249C21.895 138.932 21.4873 138.504 21.1952 137.999C20.903 137.493 20.7348 136.926 20.7041 136.344V32.3975C20.7133 31.9647 20.8123 31.5385 20.9946 31.1459C21.053 31.0084 21.1186 30.8741 21.1913 30.7437L26.4657 33.7876C26.3545 33.9861 26.2574 34.1923 26.1752 34.4045C26.0499 34.7362 25.9818 35.0869 25.9741 35.4415V139.392C25.9651 140.376 26.6043 140.823 27.4312 140.461Z" fill="#5F05DB"/>
<path opacity="0.7" d="M27.4312 140.461C26.9333 140.671 26.3957 140.77 25.8555 140.753C25.3153 140.735 24.7854 140.6 24.3023 140.358L22.3848 139.249C21.895 138.932 21.4873 138.504 21.1952 137.999C20.903 137.493 20.7348 136.926 20.7041 136.344V32.3975C20.7133 31.9647 20.8123 31.5385 20.9946 31.1459C21.053 31.0084 21.1186 30.8741 21.1913 30.7437L26.4657 33.7876C26.3545 33.9861 26.2574 34.1923 26.1752 34.4045C26.0499 34.7362 25.9818 35.0869 25.9741 35.4415V139.392C25.9651 140.376 26.6043 140.823 27.4312 140.461Z" fill="black"/>
<path d="M51.0856 117.905C52.5472 117.065 53.7318 117.749 53.7318 119.434C53.6823 120.353 53.4169 121.247 52.9571 122.043C52.4973 122.84 51.8562 123.517 51.0856 124.02C49.624 124.86 48.4395 124.176 48.4395 122.491C48.4889 121.573 48.7543 120.679 49.2141 119.882C49.6739 119.085 50.3151 118.408 51.0856 117.905V117.905Z" stroke="#E6E6E6" stroke-width="1.45697" stroke-miterlimit="10"/>
<path d="M50.706 21.4685C51.3228 21.1109 51.8279 21.4014 51.8279 22.1166C51.8059 22.5064 51.6929 22.8857 51.4981 23.2241C51.3033 23.5625 51.032 23.8506 50.706 24.0654C50.0847 24.423 49.5796 24.1325 49.5796 23.4128C49.6011 23.023 49.7143 22.6437 49.91 22.3058C50.1057 21.9679 50.3785 21.681 50.706 21.4685Z" fill="black"/>
<path d="M46.3478 28.3028L55.0238 23.2921C55.5423 22.9971 55.9625 23.2072 55.9625 23.7659C55.9397 24.0814 55.8428 24.3871 55.6798 24.6582C55.5167 24.9292 55.2919 25.158 55.0238 25.3259L46.3478 30.3321C45.8293 30.6316 45.4092 30.4215 45.4092 29.8583C45.4326 29.5436 45.5298 29.2388 45.6929 28.9685C45.856 28.6983 46.0803 28.4703 46.3478 28.3028Z" fill="black"/>
<path d="M72.9969 101.264C72.9969 102.158 72.3532 102.762 71.5576 103.218L29.6483 127.413C28.8571 127.86 28.209 127.502 28.209 126.581V45.1542C28.2366 44.6548 28.3813 44.1688 28.6313 43.7356C28.8813 43.3023 29.2297 42.9339 29.6483 42.66L71.5576 18.4692C72.3532 18.0222 72.9969 18.3798 72.9969 19.2961V101.264Z" fill="#5F05DB"/>
<path opacity="0.9" d="M72.9969 101.264C72.9969 102.158 72.3532 102.762 71.5576 103.218L29.6483 127.413C28.8571 127.86 28.209 127.502 28.209 126.581V45.1542C28.2366 44.6548 28.3813 44.1688 28.6313 43.7356C28.8813 43.3023 29.2297 42.9339 29.6483 42.66L71.5576 18.4692C72.3532 18.0222 72.9969 18.3798 72.9969 19.2961V101.264Z" fill="white"/>
<path d="M62.0903 29.2101C62.0903 29.5811 62.2825 29.7644 62.5373 29.6258C62.6753 29.521 62.7874 29.3859 62.8649 29.2309C62.9424 29.0759 62.9833 28.9052 62.9843 28.7319C62.9843 28.3653 62.7921 28.1776 62.5373 28.3162C62.3993 28.421 62.2872 28.5561 62.2097 28.7111C62.1322 28.8661 62.0914 29.0368 62.0903 29.2101Z" fill="white"/>
<path d="M61.5181 28.7186C61.4959 28.7683 61.4883 28.8232 61.4962 28.8771C61.5041 28.9309 61.5272 28.9814 61.5628 29.0225C61.6477 29.0717 61.7684 28.9644 61.8176 28.7946C61.9164 28.3661 62.1673 27.9881 62.5238 27.7307C62.5829 27.6855 62.6524 27.6558 62.7259 27.6442C62.7994 27.6326 62.8747 27.6395 62.9448 27.6644C63.015 27.6893 63.0778 27.7312 63.1276 27.7865C63.1774 27.8418 63.2127 27.9087 63.2301 27.9811C63.2792 28.0928 63.3999 28.0615 63.4804 27.914C63.5122 27.8608 63.5327 27.8015 63.5404 27.7399C63.5481 27.6784 63.5429 27.6159 63.5251 27.5564C63.496 27.4568 63.4435 27.3657 63.3719 27.2906C63.3003 27.2155 63.2117 27.1588 63.1136 27.125C63.0155 27.0913 62.9107 27.0816 62.8081 27.0968C62.7055 27.112 62.608 27.1516 62.5238 27.2123C62.0184 27.5771 61.6614 28.1119 61.5181 28.7186Z" fill="white"/>
<path d="M60.9863 28.3432C60.9371 28.4862 60.9505 28.6293 61.022 28.674C61.098 28.7231 61.2142 28.6248 61.2679 28.4639C61.4718 27.7416 61.9166 27.1107 62.5284 26.6759C62.6294 26.6019 62.7458 26.5517 62.8689 26.529C62.9921 26.5062 63.1187 26.5116 63.2395 26.5447C63.3603 26.5778 63.472 26.6378 63.5663 26.7201C63.6607 26.8024 63.7352 26.905 63.7844 27.0201C63.838 27.1185 63.9543 27.0872 64.0302 26.9441C64.0618 26.8882 64.081 26.8261 64.0864 26.762C64.0918 26.698 64.0833 26.6336 64.0615 26.5731C64.0001 26.4332 63.908 26.3088 63.7921 26.2092C63.6761 26.1097 63.5392 26.0375 63.3916 25.998C63.2439 25.9585 63.0892 25.9527 62.9391 25.9811C62.7889 26.0095 62.647 26.0713 62.5239 26.1619C61.7781 26.6929 61.2357 27.4623 60.9863 28.3432Z" fill="white"/>
<path d="M30.8595 47.6393V46.9778C30.8579 46.9095 30.872 46.8417 30.9007 46.7798C30.9293 46.7178 30.9718 46.6632 31.0249 46.6202L31.074 46.5934C31.1634 46.5397 31.2394 46.5934 31.2394 46.7543V47.4158C31.241 47.4841 31.2269 47.5518 31.1983 47.6138C31.1696 47.6758 31.1271 47.7304 31.074 47.7734L31.0249 47.8002C30.931 47.8539 30.8595 47.7823 30.8595 47.6393Z" fill="white"/>
<path d="M31.6241 47.1968V46.0525C31.6226 45.9842 31.6366 45.9165 31.6653 45.8545C31.694 45.7925 31.7365 45.7379 31.7895 45.6949L31.8387 45.6681C31.9326 45.6144 32.0086 45.6681 32.0086 45.829V46.9733C32.0096 47.0419 31.9948 47.1099 31.9654 47.1719C31.9359 47.2339 31.8926 47.2883 31.8387 47.3308L31.7895 47.3577C31.7001 47.4113 31.6241 47.3398 31.6241 47.1968Z" fill="white"/>
<path d="M32.3794 46.7546V45.1276C32.379 45.0597 32.3941 44.9926 32.4236 44.9314C32.453 44.8702 32.496 44.8166 32.5493 44.7745L32.594 44.7477C32.6878 44.694 32.7638 44.7477 32.7638 44.9086V46.5311C32.7649 46.5998 32.7501 46.6677 32.7206 46.7297C32.6912 46.7918 32.6478 46.8462 32.594 46.8887L32.5493 46.9155C32.4643 46.9692 32.3794 46.8977 32.3794 46.7546Z" fill="white"/>
<path d="M33.1573 46.3121V43.505C33.1564 43.4375 33.1708 43.3707 33.1994 43.3095C33.2281 43.2483 33.2702 43.1945 33.3227 43.1519L33.3718 43.1251C33.4657 43.0715 33.5417 43.1251 33.5417 43.286V46.0886C33.5433 46.1569 33.5292 46.2246 33.5005 46.2866C33.4718 46.3486 33.4293 46.4032 33.3763 46.4462L33.3271 46.473C33.2333 46.5267 33.1573 46.4551 33.1573 46.3121Z" fill="white"/>
<path d="M35.231 45.3061C35.231 45.3061 35.231 45.2658 35.231 45.2256V44.8144L34.3683 45.3105C34.3236 45.3374 34.3013 45.3105 34.3013 45.2614V45.1139C34.2987 45.0871 34.2987 45.0602 34.3013 45.0334L34.3326 44.9485L35.2265 42.946C35.2393 42.918 35.2542 42.8911 35.2712 42.8655C35.2888 42.8472 35.3083 42.8307 35.3294 42.8164L35.45 42.7493C35.4858 42.7255 35.5126 42.7255 35.5305 42.7493C35.5415 42.7781 35.5415 42.8099 35.5305 42.8387V44.2735L35.7227 44.1663C35.7585 44.1439 35.7808 44.1394 35.7987 44.1663C35.8166 44.1931 35.7987 44.2065 35.7987 44.2512V44.3495C35.8066 44.3849 35.8066 44.4215 35.7987 44.4568C35.7803 44.487 35.754 44.5118 35.7227 44.5283L35.5305 44.6401V45.0468C35.5342 45.0842 35.5264 45.1219 35.508 45.1547C35.4896 45.1874 35.4616 45.2138 35.4277 45.2301L35.2847 45.3105C35.2712 45.3105 35.2444 45.315 35.231 45.3061ZM35.2623 44.4121V43.384L34.641 44.7697L35.2623 44.4121Z" fill="white"/>
<path d="M36.2501 44.466C36.0802 44.3409 35.9998 44.0727 35.9998 43.6614C35.994 43.2816 36.0799 42.906 36.2501 42.5663C36.4114 42.2563 36.658 41.9988 36.9608 41.8243C37.0686 41.7604 37.1843 41.7109 37.305 41.6768C37.3923 41.6494 37.4859 41.6494 37.5732 41.6768C37.5759 41.6816 37.5774 41.687 37.5774 41.6925C37.5774 41.698 37.5759 41.7034 37.5732 41.7081C37.5764 41.7244 37.5764 41.7411 37.5732 41.7573L37.4927 41.9808C37.4927 42.0121 37.4927 42.03 37.4614 42.0344H37.4257C37.2683 42.0192 37.1104 42.0587 36.9787 42.1462C36.7714 42.2686 36.6026 42.4467 36.4915 42.6602C36.3688 42.9118 36.3089 43.1894 36.3171 43.4692C36.3171 43.7866 36.3753 43.9922 36.487 44.0771C36.5987 44.1621 36.7597 44.1531 36.9563 44.0414C37.0301 43.9978 37.1004 43.9485 37.1664 43.8939C37.2294 43.8457 37.2864 43.7902 37.3363 43.7285V43.0625L36.9787 43.2681C36.9429 43.2905 36.9161 43.2949 36.9027 43.2681C36.8924 43.2407 36.8924 43.2105 36.9027 43.1832V43.0893C36.8941 43.0526 36.8941 43.0143 36.9027 42.9776C36.9211 42.9473 36.9474 42.9226 36.9787 42.906L37.5508 42.5797C37.591 42.5529 37.6179 42.5529 37.6357 42.5797C37.6536 42.6066 37.6626 42.6289 37.6626 42.6826V43.6346C37.6656 43.6644 37.6656 43.6943 37.6626 43.724C37.6551 43.7485 37.643 43.7713 37.6268 43.7911C37.4475 44.0398 37.2155 44.2458 36.9474 44.3945C36.6569 44.5644 36.4021 44.6001 36.2501 44.466Z" fill="white"/>
<path d="M68.992 23.0417C68.9488 22.9964 68.8909 22.968 68.8287 22.9614C68.7665 22.9549 68.7039 22.9707 68.6523 23.006L66.0776 24.4855C65.9516 24.5856 65.8505 24.7136 65.7822 24.8594C65.714 25.0052 65.6805 25.1649 65.6843 25.3258V26.7651C65.6774 26.8457 65.6869 26.9269 65.7123 27.0037C65.7377 27.0805 65.7783 27.1514 65.8318 27.2121C65.8693 27.2508 65.9176 27.2772 65.9704 27.2881C66.0401 27.3004 66.1119 27.2861 66.1715 27.2478L68.7461 25.7639C68.8722 25.6637 68.9733 25.5357 69.0416 25.3899C69.1098 25.2441 69.1433 25.0845 69.1395 24.9235V23.4842C69.1458 23.4044 69.1359 23.324 69.1106 23.248C69.0852 23.172 69.0449 23.1019 68.992 23.0417ZM65.9257 27.0109C65.8833 26.9513 65.8642 26.8781 65.872 26.8053V25.3795C65.8707 25.2573 65.897 25.1363 65.9488 25.0257C66.0007 24.915 66.0768 24.8175 66.1715 24.7403L68.7461 23.2563C68.778 23.2359 68.8157 23.2265 68.8534 23.2295H68.8981C68.9405 23.2891 68.9596 23.3623 68.9518 23.4351V24.8744C68.9531 24.9966 68.9268 25.1175 68.875 25.2281C68.8231 25.3388 68.747 25.4363 68.6523 25.5135L66.0776 26.9975C66.0151 27.0422 65.9614 27.0467 65.9257 27.0109Z" fill="white"/>
<path d="M67.548 24.1904V25.8979L66.1624 26.698H66.1177C66.1201 26.6787 66.1201 26.6592 66.1177 26.6399V25.3794C66.1179 25.2889 66.138 25.1995 66.1766 25.1176C66.2152 25.0357 66.2714 24.9633 66.3412 24.9056L67.548 24.1904Z" fill="white"/>
<path d="M69.2691 23.4131C69.3629 23.3595 69.4389 23.5561 69.4389 23.8601V24.1283C69.4614 24.3583 69.3994 24.5887 69.2646 24.7764L69.0947 24.8881V23.5472L69.2691 23.4131Z" fill="white"/>
<path d="M75.3925 6.60635C75.2718 5.71238 74.5745 5.41737 73.7342 5.90458L27.6367 32.5315C27.1411 32.8402 26.7332 33.2712 26.4522 33.783L21.1777 30.7435C21.4618 30.2336 21.8709 29.8044 22.3667 29.4964L68.4553 2.8785C68.9745 2.61397 69.5489 2.47607 70.1315 2.47607C70.7142 2.47607 71.2886 2.61397 71.8077 2.8785L73.7342 3.98255C74.1817 4.27639 74.5612 4.66253 74.8472 5.11507C75.1332 5.5676 75.3191 6.07606 75.3925 6.60635Z" fill="#5F05DB"/>
<path opacity="0.2" d="M75.3925 6.60635C75.2718 5.71238 74.5745 5.41737 73.7342 5.90458L27.6367 32.5315C27.1411 32.8402 26.7332 33.2712 26.4522 33.783L21.1777 30.7435C21.4618 30.2336 21.8709 29.8044 22.3667 29.4964L68.4553 2.8785C68.9745 2.61397 69.5489 2.47607 70.1315 2.47607C70.7142 2.47607 71.2886 2.61397 71.8077 2.8785L73.7342 3.98255C74.1817 4.27639 74.5612 4.66253 74.8472 5.11507C75.1332 5.5676 75.3191 6.07606 75.3925 6.60635Z" fill="black"/>
<path d="M160.267 106.543C160.267 106.543 155.488 111.326 149.137 109.498C149.137 109.498 151.05 111.384 155.551 110.119C158.586 109.265 160.267 106.543 160.267 106.543Z" fill="#5F05DB"/>
<path d="M169.751 77.2295C169.751 77.2295 172.192 83.532 167.963 88.6008C167.963 88.6008 170.462 87.6174 171.124 82.9867C171.557 79.8488 169.751 77.2295 169.751 77.2295Z" fill="#5F05DB"/>
<path d="M159.77 108.55C164.24 103.95 166.184 98.5822 166.229 93.0977C166.229 93.0977 167.53 96.3606 165.5 101.51C163.471 106.659 159.77 108.55 159.77 108.55Z" fill="#5F05DB"/>
<path d="M36.4606 101.899C36.4606 101.899 36.4025 108.657 42.1597 111.907C42.1597 111.907 39.4778 111.862 37.2429 107.768C35.7008 105.005 36.4606 101.899 36.4606 101.899Z" fill="#5F05DB"/>
<path d="M35.0034 104.608C34.0098 98.89 35.316 93.0113 38.6374 88.2524C38.6374 88.2524 35.6963 90.17 34.3911 95.5517C33.0859 100.933 35.0034 104.608 35.0034 104.608Z" fill="#5F05DB"/>
<path d="M135.123 66.9493L137.014 61.2949C132.035 62.1889 130.68 62.8683 129.21 66.985L128.235 70.2659L122.273 88.6191C120.86 88.9901 103.276 93.8354 102.663 93.9114C102.663 93.9114 102.637 93.9561 102.619 93.9784C96.875 94.345 95.02 94.5997 95.02 94.5997C96.6336 98.8193 99.6597 101.197 103.839 102.055V101.957V101.988C111.237 100.728 123.372 97.8672 127.319 96.5575C128.982 96.0256 129.693 94.1528 130.377 92.5883C133.17 86.2009 136.089 77.592 137.081 72.4114C137.725 69.2915 136.782 67.7315 135.123 66.9493Z" fill="#DE9FA0"/>
<path d="M137.014 61.2729C137.014 61.2729 132.066 60.513 129.921 65.0544C128.481 68.1207 124.079 81.2531 124.079 81.2531C124.079 81.2531 127.208 85.2759 134.06 85.5218C134.06 85.5218 140.532 70.6596 140.17 70.1857C139.808 69.7119 137.014 61.2729 137.014 61.2729Z" fill="#5F05DB"/>
<path d="M136.107 61.1787C134.905 61.295 131.856 65.3715 131.794 72.3087C131.709 81.6015 136.263 92.9772 137.408 95.4312C138.552 97.8851 140.778 102.69 144.56 106.257C145.78 107.401 154.112 110.642 159.48 104.608C164.942 98.4707 164.079 90.4071 162.989 87.8816C161.161 83.6531 157.929 78.7318 158.045 73.1669C157.361 69.1708 156.052 63.9992 153.066 61.8313C151.836 61.5185 147.966 61.0223 147.21 61.1251L136.107 61.1787Z" fill="#FAFAFA"/>
<path d="M151.841 68.5542L150.316 70.4673C150.763 73.5023 153.065 77.8872 155.743 81.3871C157.83 84.1182 162.077 86.9342 163.789 91.7572C163.741 90.4322 163.479 89.1237 163.015 87.8818C161.187 83.6533 157.955 78.732 158.072 73.1671C157.96 72.5055 157.826 71.8261 157.674 71.1065L156.243 69.8102L151.841 68.5542Z" fill="#EBEBEB"/>
<path d="M153.065 61.8315C155.68 62.4752 157.088 63.8564 159.377 66.4712C162.005 69.4213 167.369 75.6255 167.369 75.6255C171.119 82.1247 167.749 88.7356 164.937 87.6494C164.937 87.6494 158.599 81.4586 154.71 76.7653C152.104 73.6364 150.777 71.8485 150.629 68.4022C150.504 65.6935 150.987 62.9267 153.065 61.8315Z" fill="#E49597"/>
<path d="M151.698 61.5853C151.698 61.5853 153.955 61.0847 156.892 63.4492C159.828 65.8138 167.007 73.6271 167.007 73.6271C167.007 73.6271 167.222 81.9008 161.952 85.6331C161.952 85.6331 154.174 77.8287 152.256 75.129C150.923 73.1429 150.164 70.8264 150.066 68.436C149.967 66.0456 150.532 63.6745 151.698 61.5853Z" fill="#5F05DB"/>
<path d="M150.316 45.9409C150.316 45.9409 149.181 52.8737 148.649 54.0269C148.292 54.742 147.672 55.2913 146.919 55.56L146.808 50.746L150.316 45.9409Z" fill="#263238"/>
<path d="M146.629 35.8792C146.629 35.8792 148.502 34.9361 149.785 36.1295C151.067 37.323 151.152 41.4263 150.187 46.7409L146.96 46.5711L146.629 35.8792Z" fill="#263238"/>
<path d="M136.726 51.2883C141.615 50.321 144.795 45.5733 143.828 40.6839C142.86 35.7945 138.113 32.6149 133.223 33.5821C128.334 34.5494 125.154 39.2971 126.121 44.1866C127.089 49.076 131.836 52.2555 136.726 51.2883Z" fill="#263238"/>
<path d="M146.897 36.5812L149.691 34.0155C149.531 33.824 149.334 33.6669 149.112 33.5537C148.89 33.4404 148.648 33.3734 148.399 33.3567C148.151 33.34 147.901 33.3739 147.666 33.4564C147.431 33.5389 147.215 33.6683 147.031 33.8367C146.66 34.1891 146.439 34.6709 146.414 35.1821C146.389 35.6932 146.562 36.1943 146.897 36.5812Z" fill="#263238"/>
<path d="M130.184 37.1576C129.617 38.1365 126.778 42.2487 127.815 49.9726C128.79 57.2451 131.127 58.9526 132.37 59.337C133.613 59.7214 136.107 59.5023 138.288 58.89L138.681 61.9786C138.681 61.9786 137.407 64.0258 139.128 65.1567C140.849 66.2876 144.635 65.4562 145.511 64.7589C147.572 63.1095 147.259 61.7194 147.259 61.7194L146.812 51.6891C146.812 51.6891 148.363 52.9674 150.361 51.4611C152.247 50.0441 152.332 46.2984 150.741 45.0111C149.15 43.7238 146.597 44.4926 146.249 46.5621C146.249 46.5621 146.182 38.874 141.815 36.8313C136.223 34.2119 130.184 37.1576 130.184 37.1576Z" fill="#E49597"/>
<path d="M145.748 47.5634C145.994 47.4338 146.414 45.3777 147.625 44.6804C148.738 44.0367 146.638 34.8467 146.629 34.802C146.504 34.1271 145.811 33.3359 145.359 32.8442C144.677 32.1202 143.822 31.5819 142.874 31.2798C141.571 30.882 140.192 30.7993 138.851 31.0384C136.768 31.3602 134.77 32.2274 132.665 32.2363C130.667 32.2363 128.758 31.463 126.8 31.0742C126.426 30.9565 126.021 30.9836 125.665 31.1501C125.483 31.276 125.34 31.4512 125.254 31.6552C125.008 32.2469 124.986 32.9078 125.191 33.5147C125.406 34.1155 125.707 34.6817 126.085 35.1954C125.388 34.8691 124.405 34.8422 124.002 35.4948C123.685 36.0089 123.882 36.6793 124.172 37.2068C125.397 39.4059 127.574 40.3714 129.862 40.8944C130.824 41.0574 131.797 41.1471 132.772 41.1626C135.24 41.3012 137.609 40.3133 139.884 39.3478C140.509 39.0796 141.73 38.6237 142.414 39.178C143.263 39.8663 143.223 42.0923 143.477 43.9205C143.866 46.7857 144.818 48.064 145.748 47.5634Z" fill="#263238"/>
<path d="M137.868 53.0928L135.378 54.2058C135.444 54.3739 135.544 54.527 135.67 54.6558C135.797 54.7846 135.948 54.8865 136.115 54.9554C136.282 55.0243 136.461 55.0587 136.642 55.0566C136.823 55.0545 137.001 55.016 137.166 54.9433C137.499 54.7839 137.757 54.5029 137.887 54.1584C138.018 53.8139 138.011 53.4323 137.868 53.0928Z" fill="#9A4A4D"/>
<path d="M128.928 47.1522C128.946 47.3329 129.017 47.5044 129.131 47.6452C129.246 47.786 129.4 47.89 129.573 47.9441C129.746 47.9983 129.932 48.0003 130.106 47.9498C130.281 47.8993 130.436 47.7987 130.554 47.6603C130.672 47.522 130.746 47.3521 130.768 47.1718C130.789 46.9916 130.758 46.8089 130.676 46.6465C130.595 46.4842 130.468 46.3493 130.31 46.2588C130.153 46.1683 129.972 46.1262 129.791 46.1376C129.542 46.1581 129.312 46.2764 129.15 46.4666C128.988 46.6568 128.908 46.9034 128.928 47.1522Z" fill="#263238"/>
<path d="M136.107 46.7098C136.125 46.8905 136.195 47.062 136.31 47.2028C136.425 47.3436 136.578 47.4476 136.752 47.5017C136.925 47.5559 137.11 47.5579 137.285 47.5074C137.459 47.457 137.615 47.3563 137.732 47.218C137.85 47.0796 137.924 46.9097 137.946 46.7294C137.968 46.5492 137.936 46.3665 137.855 46.2041C137.773 46.0418 137.646 45.907 137.489 45.8165C137.331 45.726 137.151 45.6838 136.97 45.6952C136.846 45.7048 136.726 45.7387 136.616 45.7949C136.505 45.8512 136.407 45.9287 136.327 46.023C136.247 46.1173 136.186 46.2266 136.148 46.3444C136.111 46.4623 136.096 46.5865 136.107 46.7098Z" fill="#263238"/>
<path d="M133.676 46.9062L133.51 52.4533L130.591 51.5415L133.676 46.9062Z" fill="#9A4A4D"/>
<path d="M138.288 58.9033C140.121 58.4831 143.706 56.9411 144.385 55.6001C144.385 55.6001 144.452 56.4538 143.366 57.7501C142.28 59.0463 138.471 60.3426 138.471 60.3426L138.288 58.9033Z" fill="#9A4A4D"/>
<path d="M128.2 45.2259L130.269 44.3319C130.141 44.055 129.911 43.8382 129.628 43.7266C129.344 43.615 129.028 43.6173 128.745 43.733C128.61 43.7931 128.487 43.8799 128.386 43.9882C128.285 44.0966 128.206 44.2242 128.155 44.3636C128.105 44.5029 128.082 44.6511 128.09 44.7993C128.097 44.9474 128.135 45.0925 128.2 45.2259Z" fill="#263238"/>
<path d="M136.666 43.8891L138.641 44.9618C138.782 44.6913 138.812 44.3765 138.724 44.0843C138.637 43.7921 138.438 43.5457 138.172 43.3974C138.042 43.3266 137.898 43.2831 137.75 43.2697C137.603 43.2562 137.454 43.273 137.313 43.319C137.172 43.365 137.042 43.4393 136.93 43.5373C136.819 43.6353 136.729 43.755 136.666 43.8891Z" fill="#263238"/>
<path d="M77.1719 60.3425H61.7688C58.0909 60.3414 54.5634 58.8822 51.9594 56.2849C49.3553 53.6876 47.8871 50.1639 47.8765 46.486V44.0678C47.8694 40.5193 49.2719 37.1132 51.7757 34.5985C54.2794 32.0839 57.6794 30.6666 61.2279 30.6583H63.74C65.4972 30.653 67.2382 30.9941 68.8634 31.6622C70.4886 32.3303 71.9662 33.3123 73.2116 34.5519C74.4571 35.7915 75.4459 37.2645 76.1216 38.8866C76.7973 40.5087 77.1466 42.248 77.1495 44.0052L77.1719 60.3425Z" fill="#263238"/>
<path d="M64.4238 61.2097C69.9486 60.794 73.4306 63.3552 73.5468 68.4911C73.6094 71.0791 71.3655 81.3821 71.3655 81.3821L64.4238 61.2097Z" fill="#FFA8A7"/>
<path d="M64.4238 61.21C67.2354 61.4916 70.3374 66.2922 73.0372 72.465C74.0966 74.8966 76.032 78.1686 73.5915 82.7189C72.0807 85.5304 68.9697 86.6657 68.9697 86.6657C67.8434 90.1929 66.2177 93.5405 64.1422 96.6067C62.8458 100.735 60.4874 104.449 57.3034 107.379C56.0518 108.488 48.4039 115.259 42.24 110.034C38.5747 106.928 37.2963 101.988 37.6718 97.3263C37.8908 94.5863 38.4987 91.8776 40.4252 89.9153C41.5359 88.7851 42.5622 87.575 43.496 86.2947C44.4749 81.6327 43.353 78.468 43.2367 72.8852C43.9206 68.8892 45.6147 65.501 48.6006 63.3376C50.812 62.4625 53.1378 61.9101 55.5065 61.6972L64.4238 61.21Z" fill="#5F05DB"/>
<path opacity="0.1" d="M64.3301 96.3294L63.9547 93.3212C63.9547 93.3212 50.9921 73.0013 50.4423 72.4291C50.1205 72.0849 47.0095 70.0109 44.5779 68.4062C43.9414 69.8326 43.4907 71.3349 43.2369 72.8761C43.3531 78.4411 44.4751 81.6057 43.4962 86.2856C43.4962 86.2856 42.8302 87.2288 41.7529 88.4669C43.675 88.9676 46.8083 86.5494 46.8083 86.5494C46.8083 86.5494 53.0661 95.3952 55.8195 98.5375C58.3897 101.483 59.9273 101.921 61.827 101.792C62.8046 100.159 63.5819 98.4156 64.1424 96.5976C64.2094 96.5126 64.2675 96.4188 64.3301 96.3294Z" fill="black"/>
<path opacity="0.05" d="M73.5915 82.7185C73.7211 82.4727 73.8418 82.2313 73.9491 81.9899C71.4326 83.9209 69.6804 82.5621 67.5706 82.1553C65.3893 81.7351 63.7713 84.8372 59.6903 84.4528C54.3265 83.9343 52.3821 80.5596 52.3821 80.5596C52.3821 80.5596 52.239 86.4017 58.8857 87.6845C63.3287 88.5427 64.9602 86.1424 66.1894 86.1424C66.7258 86.1424 67.2041 86.5581 68.9697 86.6654C68.9697 86.6654 72.0807 85.53 73.5915 82.7185Z" fill="black"/>
<path d="M72.085 37.895C72.6393 38.8516 75.3927 42.8431 74.387 50.3391C73.4394 57.397 71.1687 58.5457 69.9619 58.9212C68.755 59.2966 66.3368 59.0776 64.2181 58.4742L63.7398 62.7206C63.7398 62.7206 65.796 65.6438 65.3892 67.5659C64.9825 69.4879 60.8747 69.2421 58.3 67.0295C56.7503 65.6691 55.7571 63.7846 55.5109 61.7372L55.9578 51.9929C55.9578 51.9929 54.4515 53.2355 52.5116 51.7739C50.6834 50.3972 50.5985 46.7632 52.1451 45.5161C53.6916 44.269 56.1679 45.011 56.5032 47.018C56.5032 47.018 61.2948 48.1265 65.5367 46.124C70.9497 43.5851 71.7409 39.9065 72.085 37.895Z" fill="#FFA8A7"/>
<path d="M56.5925 49.6953L56.4629 45.2612C57.0654 45.2596 57.645 45.4915 58.0801 45.9083C58.5152 46.325 58.7719 46.8942 58.7962 47.4962C58.801 47.7867 58.7473 48.0752 58.6382 48.3445C58.5291 48.6138 58.3669 48.8584 58.1612 49.0636C57.9556 49.2689 57.7107 49.4306 57.4412 49.5391C57.1716 49.6476 56.883 49.7008 56.5925 49.6953Z" fill="#263238"/>
<path d="M66.2834 53.7095L68.6971 54.7912C68.6325 54.9533 68.536 55.1008 68.4134 55.225C68.2908 55.3492 68.1446 55.4476 67.9833 55.5142C67.822 55.5809 67.649 55.6146 67.4745 55.6132C67.3 55.6119 67.1275 55.5755 66.9673 55.5063C66.643 55.3535 66.3905 55.0809 66.263 54.7458C66.1355 54.4107 66.1428 54.0393 66.2834 53.7095Z" fill="#F28F8F"/>
<path d="M73.3007 47.6616C73.3009 47.7836 73.2761 47.9044 73.2279 48.0166C73.1796 48.1287 73.109 48.2297 73.0202 48.3135C72.9314 48.3972 72.8264 48.4619 72.7117 48.5035C72.597 48.5452 72.4749 48.5629 72.3531 48.5556C72.1114 48.5351 71.8877 48.4196 71.731 48.2344C71.5743 48.0492 71.4974 47.8095 71.5172 47.5677C71.5326 47.3306 71.6416 47.1094 71.8201 46.9526C71.9086 46.875 72.0114 46.8156 72.1228 46.7777C72.2341 46.7398 72.3519 46.7242 72.4693 46.7319C72.5867 46.7395 72.7014 46.7702 72.807 46.8221C72.9125 46.8741 73.0068 46.9464 73.0844 47.0348C73.162 47.1232 73.2215 47.226 73.2593 47.3374C73.2972 47.4488 73.3128 47.5665 73.3052 47.6839L73.3007 47.6616Z" fill="#263238"/>
<path d="M66.8243 48.1754C66.8056 48.3494 66.7363 48.5141 66.6249 48.6491C66.5135 48.7841 66.365 48.8834 66.1976 48.9347C66.0303 48.986 65.8517 48.9871 65.6837 48.9378C65.5158 48.8885 65.3661 48.7911 65.253 48.6575C65.14 48.5239 65.0686 48.36 65.0478 48.1863C65.027 48.0125 65.0577 47.8365 65.136 47.68C65.2143 47.5235 65.3368 47.3934 65.4884 47.3059C65.6399 47.2184 65.8138 47.1772 65.9885 47.1876C66.1092 47.1948 66.2273 47.2264 66.3355 47.2805C66.4437 47.3347 66.5398 47.4102 66.6179 47.5026C66.6961 47.5949 66.7547 47.7022 66.7901 47.8178C66.8256 47.9335 66.8372 48.0552 66.8243 48.1754Z" fill="#263238"/>
<path d="M69.4165 47.6035L69.5774 52.9897L72.4113 52.1046L69.4165 47.6035Z" fill="#F28F8F"/>
<path d="M64.2181 58.4563C62.4302 58.0496 58.9616 56.5522 58.3 55.2515C58.3 55.2515 58.2374 56.0829 59.2923 57.3389C60.3472 58.5949 64.0617 59.8331 64.0617 59.8331L64.2181 58.4563Z" fill="#F28F8F"/>
<path d="M73.587 45.2612L71.5801 44.394C71.7051 44.1259 71.9284 43.916 72.2037 43.8078C72.4791 43.6997 72.7855 43.7015 73.0596 43.8129C73.1913 43.8711 73.3099 43.9552 73.4082 44.0603C73.5066 44.1655 73.5827 44.2894 73.6319 44.4246C73.6812 44.5599 73.7026 44.7037 73.6949 44.8475C73.6872 44.9912 73.6505 45.1319 73.587 45.2612Z" fill="#263238"/>
<path d="M61.5679 100.218L65.9304 91.8729C67.3787 92.0829 68.8269 92.2841 70.2751 92.4852C73.1582 92.883 84.0512 94.2195 84.668 94.2285C85.8706 94.2094 87.0573 93.9511 88.159 93.4686C89.8843 92.8205 91.1627 91.7835 92.5573 91.4974C93.2033 91.37 93.8647 91.3399 94.5196 91.408C95.3465 91.4661 95.132 91.9086 95.9499 92.0517C96.1846 92.0727 96.4081 92.1612 96.5936 92.3064C96.9065 92.6014 96.6785 92.7802 96.5131 93.0216C96.3376 93.3269 96.2251 93.6643 96.1824 94.0139C96.1198 94.3134 95.8739 95.3325 96.2986 95.4979C98.3592 96.298 98.5916 97.478 101.265 99.7711C102.543 100.866 103.231 101.657 104.094 102.216C104.635 103.034 104.675 103.557 102.753 104.683C101.475 105.443 99.1772 106.918 95.418 105.738C91.3236 104.455 89.2273 102.162 88.1724 102.113C80.6899 101.693 65.6399 101.072 61.5679 100.218Z" fill="#FFA8A7"/>
<path d="M65.9302 91.8731L54.9076 73.8015C54.9076 73.8015 53.0973 63.7041 48.6051 63.3555C48.6051 63.3555 44.4929 64.4148 43.5542 66.8822C42.4233 69.868 42.477 72.7913 45.8517 79.3978C48.3995 84.404 55.3054 93.8398 58.0678 97.0358C59.1852 98.3275 60.4055 99.8428 61.5677 100.2" fill="#FFA8A7"/>
<path d="M88.3064 102.127C88.7289 102.233 89.1227 102.432 89.4596 102.708C90.1491 102.584 90.7918 102.275 91.3191 101.814C93.3842 100.308 100.482 103.334 98.7346 105.278C97.4651 106.691 96.227 107.066 94.2021 106.436C91.2163 105.524 88.0337 104.161 88.3064 102.127Z" fill="#E49597"/>
<path d="M95.1898 91.6582C92.8387 92.0649 90.3981 93.7814 89.1242 94.2999C87.8503 94.8184 86.5362 95.1268 87.7073 96.2487C88.8784 97.3707 91.7302 96.2487 93.7014 95.5514C95.0423 95.0687 96.7364 95.5514 97.4918 95.8643C98.0461 96.0923 97.751 94.5949 97.751 94.5949C97.3041 93.9423 102.851 94.5949 102.668 93.9512C99.7357 94.0764 97.085 91.2246 95.1898 91.6582Z" fill="#E49597"/>
</svg>
