<svg width="33" height="37" viewBox="0 0 33 37" fill="none" xmlns="http://www.w3.org/2000/svg">
<path d="M33 7.92858C33 11.3291 30.1217 14.0952 26.5833 14.0952C23.045 14.0952 20.1667 11.3291 20.1667 7.92858C20.1667 4.5281 23.045 1.76191 26.5833 1.76191C30.1217 1.76191 33 4.5281 33 7.92858ZM29.3333 17.2491C28.4167 17.4781 27.5 17.6191 26.5833 17.6191C23.9106 17.6144 21.3486 16.5919 19.4587 14.7756C17.5688 12.9593 16.5048 10.4972 16.5 7.92858C16.5 5.33858 17.5633 2.99525 19.25 1.25096C18.9173 0.859009 18.4978 0.543328 18.022 0.32692C17.5463 0.110512 17.0263 -0.00117079 16.5 9.25473e-06C14.4833 9.25473e-06 12.8333 1.58572 12.8333 3.52382V4.03477C7.38833 5.58525 3.66667 10.3952 3.66667 15.8571V26.4286L0 29.9524V31.7143H33V29.9524L29.3333 26.4286V17.2491ZM16.5 37C18.535 37 20.1667 35.4319 20.1667 33.4762H12.8333C12.8333 34.4108 13.2196 35.3071 13.9073 35.9679C14.5949 36.6287 15.5275 37 16.5 37Z" fill="#F24E1E"/>
</svg>
