<svg width="237" height="176" viewBox="0 0 237 176" fill="none" xmlns="http://www.w3.org/2000/svg">
<path d="M236.204 154.666H0V154.784H236.204V154.666Z" fill="#EBEBEB"/>
<path d="M52.7492 158.63H37.103V158.748H52.7492V158.63Z" fill="#EBEBEB"/>
<path d="M77.2384 162.036H62.9858V162.154H77.2384V162.036Z" fill="#EBEBEB"/>
<path d="M44.926 163.014H26.8564V163.132H44.926V163.014Z" fill="#EBEBEB"/>
<path d="M212.536 162.758H205.025V162.876H212.536V162.758Z" fill="#EBEBEB"/>
<path d="M203.508 162.758H184.933V162.876H203.508V162.758Z" fill="#EBEBEB"/>
<path d="M132.43 158.568H118.102V158.686H132.43V158.568Z" fill="#EBEBEB"/>
<path d="M168.541 158.568H134.48V158.686H168.541V158.568Z" fill="#EBEBEB"/>
<path d="M111.961 133.597H20.7435C20.0289 133.595 19.344 133.311 18.8392 132.805C18.3343 132.299 18.0508 131.614 18.0508 130.899V2.67382C18.057 1.96334 18.3433 1.28399 18.8475 0.783354C19.3516 0.282716 20.033 0.0012171 20.7435 0H111.961C112.676 0 113.362 0.284194 113.868 0.790063C114.374 1.29593 114.658 1.98204 114.658 2.69744V130.899C114.658 131.615 114.374 132.301 113.868 132.807C113.362 133.313 112.676 133.597 111.961 133.597ZM20.7435 0.0944818C20.0602 0.0957332 19.4054 0.368036 18.9227 0.851621C18.44 1.33521 18.1689 1.99056 18.1689 2.67382V130.899C18.1689 131.583 18.44 132.238 18.9227 132.721C19.4054 133.205 20.0602 133.477 20.7435 133.479H111.961C112.644 133.477 113.3 133.205 113.783 132.722C114.267 132.238 114.539 131.583 114.54 130.899V2.67382C114.539 1.99012 114.267 1.33478 113.783 0.851333C113.3 0.367882 112.644 0.0957306 111.961 0.0944818H20.7435Z" fill="#EBEBEB"/>
<path d="M214.147 133.597H122.925C122.21 133.595 121.525 133.311 121.019 132.805C120.513 132.3 120.229 131.614 120.228 130.899V2.67382C120.235 1.96291 120.522 1.28357 121.027 0.783059C121.532 0.282551 122.214 0.00120383 122.925 0H214.147C214.856 0.00245864 215.537 0.284507 216.04 0.785012C216.543 1.28552 216.829 1.96415 216.835 2.67382V130.899C216.835 131.613 216.552 132.298 216.048 132.803C215.544 133.309 214.861 133.594 214.147 133.597ZM122.925 0.0944818C122.241 0.0957306 121.586 0.367882 121.102 0.851333C120.619 1.33478 120.347 1.99012 120.346 2.67382V130.899C120.347 131.583 120.619 132.238 121.102 132.722C121.586 133.205 122.241 133.477 122.925 133.479H214.147C214.83 133.477 215.486 133.205 215.969 132.722C216.453 132.238 216.725 131.583 216.726 130.899V2.67382C216.725 1.99012 216.453 1.33478 215.969 0.851333C215.486 0.367882 214.83 0.0957306 214.147 0.0944818H122.925Z" fill="#EBEBEB"/>
<path d="M197.145 95.2563H179.548V154.666H197.145V95.2563Z" fill="#E6E6E6"/>
<path d="M194.221 154.666H197.145V149.318H191.146L194.221 154.666Z" fill="#979797"/>
<path d="M125.514 95.2563H107.917V154.666H125.514V95.2563Z" fill="#E6E6E6"/>
<path d="M197.15 95.2563H122.963V152.611H197.15V95.2563Z" fill="#979797"/>
<path d="M194.878 97.7979H125.235V113.529H194.878V97.7979Z" fill="#E6E6E6"/>
<path d="M163.344 102.687H156.764C153.929 102.687 151.175 100.746 149.205 97.3208H170.893C168.933 100.746 166.202 102.687 163.344 102.687Z" fill="#979797"/>
<path d="M125.892 154.666H122.963V149.318H128.962L125.892 154.666Z" fill="#979797"/>
<path d="M194.878 116.07H125.235V131.801H194.878V116.07Z" fill="#E6E6E6"/>
<path d="M163.344 120.936H156.764C153.929 120.936 151.175 119 149.205 115.57H170.893C168.933 119.018 166.202 120.936 163.344 120.936Z" fill="#979797"/>
<path d="M194.878 134.343H125.235V150.074H194.878V134.343Z" fill="#E6E6E6"/>
<path d="M163.344 139.228H156.764C153.929 139.228 151.175 137.286 149.205 133.861H170.893C168.933 137.286 166.202 139.228 163.344 139.228Z" fill="#979797"/>
<path d="M205.162 18.2114H129.17V55.097H205.162V18.2114Z" fill="#979797"/>
<path d="M207.902 18.2114H130.451V55.097H207.902V18.2114Z" fill="#F5F5F5"/>
<path d="M204.07 52.0307V21.2817L134.286 21.2817V52.0307H204.07Z" fill="white"/>
<path d="M182.141 82.2273C183.511 68.0551 184.461 45.0111 183.724 37.3108C183.71 37.1788 183.668 37.0513 183.601 36.9365C183.534 36.8217 183.444 36.7223 183.336 36.6448C183.193 36.5401 183.024 36.4778 182.847 36.4649C182.67 36.452 182.494 36.4891 182.337 36.5718C182.18 36.6546 182.05 36.7797 181.961 36.9329C181.872 37.0862 181.828 37.2613 181.834 37.4384C181.962 41.2554 182.113 50.7933 181.3 67.2473C180.894 75.4341 180.313 81.0416 180.714 82.2273H182.141Z" fill="#979797"/>
<path d="M186.067 51.7096C189.194 47.6847 195.666 44.5006 202.299 44.014C204.902 43.8204 194.443 49.0121 190.135 54.1991C186.795 58.2241 183.048 64.8566 181.801 68.4753C182.534 61.0065 182.935 55.7439 186.067 51.7096Z" fill="#979797"/>
<path d="M179.515 50.8403C176.279 46.3336 168.805 42.8614 160.718 42.4693C157.543 42.3181 169.623 47.9775 174.129 53.7787C177.63 58.2807 181.215 65.7448 182.207 69.8405C182.448 61.3467 182.755 55.3518 179.515 50.8403Z" fill="#979797"/>
<path d="M185.85 38.4446C188.32 35.0858 193.777 32.3269 199.549 31.7648C201.817 31.5427 193.002 36.0164 189.582 40.372C186.922 43.7356 184.097 49.2391 183.247 52.22C183.388 46.1118 183.384 41.8034 185.85 38.4446Z" fill="#979797"/>
<path d="M180.875 39.1345C178.13 35.3127 171.805 32.3791 164.955 32.0484C162.267 31.9208 172.513 36.7111 176.293 41.6241C179.259 45.4364 182.302 51.7572 183.138 55.2247C183.355 48.0252 183.615 42.9515 180.875 39.1345Z" fill="#979797"/>
<path d="M184.192 66.8646C185.977 64.3325 189.988 62.2019 194.273 61.6917C195.955 61.4933 189.473 64.9655 186.998 68.2393C185.075 70.7808 183.058 74.9097 182.472 77.1347C182.477 72.5949 182.411 69.3967 184.192 66.8646Z" fill="#979797"/>
<path d="M180.932 65.4378C179.382 62.9246 175.546 60.8035 171.271 60.2933C169.589 60.0949 175.787 63.5482 177.965 66.7936C179.652 69.3163 181.272 73.4073 181.65 75.6182C182.113 71.1209 182.5 67.951 180.932 65.4378Z" fill="#979797"/>
<path d="M181.56 95.2564C184.976 95.2564 187.796 94.543 187.99 91.137L188.561 81.2778H174.564L175.136 91.137C175.329 94.543 178.15 95.2564 181.56 95.2564Z" fill="#E6E6E6"/>
<path d="M174.644 83.5216H188.49C188.761 83.5208 189.022 83.4201 189.224 83.2388C189.425 83.0575 189.553 82.8083 189.582 82.5389L189.794 80.6493C189.811 80.4953 189.795 80.3396 189.747 80.1922C189.7 80.0448 189.622 79.909 189.519 79.7936C189.415 79.6783 189.289 79.5859 189.147 79.5226C189.006 79.4592 188.853 79.4262 188.698 79.4258H174.436C174.281 79.4262 174.128 79.4592 173.987 79.5226C173.846 79.5859 173.719 79.6783 173.616 79.7936C173.513 79.909 173.435 80.0448 173.387 80.1922C173.34 80.3396 173.324 80.4953 173.34 80.6493L173.548 82.5389C173.578 82.8087 173.707 83.058 173.909 83.2392C174.111 83.4204 174.373 83.5209 174.644 83.5216Z" fill="#979797"/>
<path d="M130.03 95.2562H120.747L123.496 74.9097H130.03V95.2562Z" fill="#E6E6E6"/>
<path d="M143.654 95.2564H126.062L122.783 71.4424H140.38L143.654 95.2564Z" fill="#979797"/>
<path d="M146.002 95.2564H127.696L124.422 71.4424H142.728L146.002 95.2564Z" fill="#F5F5F5"/>
<path d="M129.312 93.3805L126.553 73.3174H141.108L143.867 93.3805H129.312Z" fill="white"/>
<path d="M137.518 88.7512H134.05C133.749 88.7517 133.457 88.6429 133.229 88.4449C133.002 88.2468 132.854 87.973 132.813 87.6741L131.669 79.3645C131.644 79.1878 131.657 79.0077 131.708 78.8365C131.758 78.6653 131.845 78.507 131.962 78.3724C132.081 78.2389 132.226 78.1321 132.389 78.0588C132.552 77.9855 132.728 77.9475 132.907 77.9473H136.374C136.676 77.9477 136.967 78.0569 137.194 78.2548C137.422 78.4526 137.57 78.7259 137.612 79.0244L138.755 87.334C138.78 87.5107 138.766 87.6905 138.715 87.8613C138.664 88.0322 138.577 88.1901 138.459 88.3244C138.342 88.4588 138.197 88.5664 138.035 88.64C137.872 88.7136 137.696 88.7515 137.518 88.7512ZM133.266 87.608C133.292 87.7937 133.384 87.9638 133.526 88.0871C133.667 88.2103 133.848 88.2784 134.036 88.2788H137.504C137.614 88.2792 137.724 88.2558 137.825 88.2101C137.926 88.1645 138.016 88.0977 138.089 88.0143C138.162 87.9299 138.216 87.8312 138.248 87.7245C138.279 87.6179 138.288 87.5057 138.274 87.3954L137.13 79.0905C137.104 78.9047 137.012 78.7346 136.87 78.6114C136.729 78.4882 136.548 78.4201 136.36 78.4197H132.893C132.782 78.4187 132.672 78.4418 132.571 78.4875C132.47 78.5331 132.38 78.6003 132.307 78.6842C132.233 78.7666 132.178 78.8645 132.146 78.9706C132.114 79.0768 132.106 79.1887 132.123 79.2984L133.266 87.608Z" fill="#F5F5F5"/>
<path d="M99.9141 17.125H29.8184V91.0945H99.9141V17.125Z" fill="#E6E6E6"/>
<path d="M107.43 14.7295H25.2833C25.1917 14.7295 25.101 14.7476 25.0165 14.7828C24.9319 14.818 24.8551 14.8696 24.7906 14.9346C24.7261 14.9995 24.675 15.0767 24.6404 15.1615C24.6058 15.2463 24.5883 15.3371 24.5889 15.4287C24.5889 15.6128 24.662 15.7895 24.7923 15.9197C24.9225 16.0499 25.0991 16.1231 25.2833 16.1231H107.43C107.614 16.1231 107.791 16.0499 107.921 15.9197C108.051 15.7895 108.125 15.6128 108.125 15.4287C108.125 15.3371 108.108 15.2463 108.073 15.1615C108.039 15.0767 107.987 14.9995 107.923 14.9346C107.858 14.8696 107.782 14.818 107.697 14.7828C107.612 14.7476 107.522 14.7295 107.43 14.7295Z" fill="#E6E6E6"/>
<path d="M102.895 17.125H31.2119V91.0945H102.895V17.125Z" fill="#979797"/>
<path d="M98.7285 86.9325V21.2915L35.374 21.2915L35.374 86.9325H98.7285Z" fill="#FAFAFA"/>
<path d="M49.7539 86.9323L74.1962 21.2866H85.7324L61.2948 86.9323H49.7539Z" fill="white"/>
<path d="M63.77 86.9323L88.2124 21.2866H92.7097L68.2673 86.9323H63.77Z" fill="white"/>
<path d="M98.7285 86.9276V21.2866H98.1994V86.9276H98.7285Z" fill="#E6E6E6"/>
<g opacity="0.6">
<path opacity="0.6" d="M33.6545 119.552H24.8535L26.2471 13.4873H35.0528L33.6545 119.552Z" fill="#979797"/>
<path opacity="0.6" d="M37.084 119.552H30.2246L31.6229 13.4873H38.4776L37.084 119.552Z" fill="#E6E6E6"/>
<path opacity="0.6" d="M42.4552 119.552H33.6543L35.0526 13.4873H43.8536L42.4552 119.552Z" fill="#979797"/>
<path opacity="0.6" d="M45.8852 119.552H39.0259L40.4242 13.4873H47.2836L45.8852 119.552Z" fill="#E6E6E6"/>
<path opacity="0.6" d="M51.2565 119.552H42.4556L43.8539 13.4873H52.6548L51.2565 119.552Z" fill="#979797"/>
</g>
<g opacity="0.6">
<path opacity="0.6" d="M101.44 119.552H106.414L107.08 13.4873H102.106L101.44 119.552Z" fill="#979797"/>
<path opacity="0.6" d="M99.5034 119.552H103.377L104.048 13.4873H100.17L99.5034 119.552Z" fill="#E6E6E6"/>
<path opacity="0.6" d="M96.4658 119.552H101.44L102.106 13.4873H97.1319L96.4658 119.552Z" fill="#979797"/>
<path opacity="0.6" d="M94.5288 119.552H98.4025L99.0734 13.4873H95.1949L94.5288 119.552Z" fill="#E6E6E6"/>
<path opacity="0.6" d="M91.4912 119.552H96.4657L97.1318 13.4873H92.1573L91.4912 119.552Z" fill="#979797"/>
</g>
<path d="M118.102 176C168.688 176 209.697 173.606 209.697 170.652C209.697 167.699 168.688 165.305 118.102 165.305C67.5153 165.305 26.5068 167.699 26.5068 170.652C26.5068 173.606 67.5153 176 118.102 176Z" fill="#F5F5F5"/>
<path d="M134.456 30.1346C131.622 26.2987 132.279 22.9493 134.456 20.54C137.173 17.5166 141.609 17.5402 144.566 19.085C149.196 21.499 150.192 32.0762 142.459 33.569C139.715 32.6111 137.041 31.4635 134.456 30.1346Z" fill="#3E3E3E"/>
<path d="M143.664 19.7511C146.498 18.0835 145.709 14.8475 148.27 13.1374C151.831 10.7754 159.508 11.8005 157.108 17.7056C154.708 23.6107 163.25 23.9508 160.769 29.8181C158.289 35.6854 151.085 39.2663 149.233 30.7629C147.849 24.3902 153.731 16.1797 148.983 17.0631C146.021 17.6111 145.034 20.6581 145.034 20.6581L143.664 19.7511Z" fill="#3E3E3E"/>
<path d="M136.62 44.7604C136.233 45.8327 135.812 46.8059 135.363 47.8121C134.914 48.8184 134.418 49.7868 133.899 50.7552C132.853 52.7875 131.539 54.6703 129.992 56.3532C129.55 56.8245 129.064 57.2531 128.542 57.6335C128.025 58 127.475 58.3164 126.898 58.5783C125.835 59.0538 124.727 59.421 123.591 59.6743C121.438 60.1715 119.234 60.4109 117.024 60.3876C116.777 60.3835 116.539 60.2898 116.354 60.1237C116.17 59.9576 116.053 59.7304 116.023 59.4842C115.994 59.238 116.055 58.9895 116.195 58.7847C116.334 58.5799 116.544 58.4328 116.784 58.3704H116.831C118.807 57.9084 120.752 57.323 122.656 56.6178C123.55 56.2845 124.416 55.8784 125.244 55.4037C125.613 55.1922 125.964 54.9504 126.293 54.6809C126.611 54.4146 126.905 54.1206 127.172 53.8022C127.78 53.0832 128.329 52.3154 128.811 51.5063C129.321 50.6702 129.812 49.8057 130.266 48.9034C131.164 47.1177 132.014 45.2092 132.746 43.3762V43.3479C132.94 42.8386 133.329 42.4273 133.826 42.2045C134.324 41.9816 134.889 41.9656 135.399 42.1598C135.908 42.354 136.319 42.7425 136.542 43.24C136.765 43.7374 136.781 44.303 136.587 44.8123L136.62 44.7604Z" fill="#FFA8A7"/>
<path d="M136.006 41.2645C132.104 41.7085 129.955 47.5616 129.955 47.5616L133.951 53.1927C133.951 53.1927 138.675 47.8404 139.086 45.45C139.497 42.9887 138.888 40.9291 136.006 41.2645Z" fill="#9400FF"/>
<path opacity="0.2" d="M133.871 44.8453C135.179 44.0233 136.606 44.4768 137.82 46.0027C138.071 46.4406 138.239 46.921 138.316 47.4199C137.135 49.5599 133.946 53.188 133.946 53.188L132.118 50.6134C131.981 49.0922 133.025 45.3508 133.871 44.8453Z" fill="black"/>
<path d="M117.738 58.5785L114.795 56.9912L114.714 60.8272C114.714 60.8272 116.68 61.2523 117.979 60.2036L117.738 58.5785Z" fill="#B55B52"/>
<path d="M111.842 57.1235L112.357 60.2555L114.733 60.8272L114.814 56.9912L111.842 57.1235Z" fill="#B55B52"/>
<path d="M126.676 50.2214L124.096 48.105L106.523 74.5078L109.126 76.6242C112.093 79.0524 118.428 75.1125 123.298 67.8185C128.169 60.5246 129.643 52.6495 126.676 50.2214Z" fill="#441F78"/>
<path opacity="0.1" d="M126.676 50.2214L124.096 48.105L106.523 74.5078L109.126 76.6242C112.093 79.0524 118.428 75.1125 123.298 67.8185C128.169 60.5246 129.643 52.6495 126.676 50.2214Z" fill="black"/>
<path d="M121.141 64.9954C125.829 57.585 127.02 49.9267 123.801 47.8901C120.582 45.8535 114.172 50.2099 109.484 57.6203C104.795 65.0307 103.604 72.6891 106.823 74.7256C110.042 76.7622 116.452 72.4058 121.141 64.9954Z" fill="#441F78"/>
<path d="M112.05 65.6357L114.412 62.0738C114.172 61.3435 114.161 60.5574 114.379 59.8204C114.65 58.8912 115.069 58.012 115.622 57.2174C116.12 56.4145 116.772 55.7177 117.54 55.1672C118.196 54.7326 118.758 54.6286 119.217 54.8554L119.793 53.9956L120.294 54.4066L119.727 55.2711C119.881 55.5117 119.983 55.7813 120.029 56.0633C120.074 56.3453 120.062 56.6336 119.991 56.9104C119.807 57.744 119.488 58.5419 119.046 59.2724L117.984 58.8378C118.314 58.3339 118.479 57.7393 118.456 57.1371L116.24 60.444C116.545 61.1932 116.608 62.0192 116.42 62.806C115.818 64.6945 114.667 66.3606 113.113 67.5915C112.395 68.0891 111.757 68.2324 111.2 68.0214L110.628 68.8812L110.127 68.4702L110.671 67.6529C110.502 67.3719 110.393 67.0588 110.351 66.7334C110.31 66.4081 110.337 66.0777 110.43 65.7633C110.685 64.71 111.106 63.7038 111.677 62.7824L112.763 63.302C112.523 63.7268 112.33 64.1767 112.187 64.6437C112.084 64.9639 112.038 65.2996 112.05 65.6357ZM117.993 56.6883C117.73 56.7141 117.481 56.8234 117.284 57.0001C116.736 57.4533 116.331 58.0554 116.118 58.7338C116.02 59.0225 115.993 59.3301 116.037 59.6314L117.993 56.6883ZM112.475 66.1365C112.62 66.1585 112.769 66.1479 112.909 66.1054C113.05 66.0629 113.179 65.9896 113.288 65.8908C113.963 65.3647 114.459 64.6417 114.705 63.8217C114.799 63.4932 114.791 63.1438 114.681 62.8202L112.475 66.1365Z" fill="white"/>
<path opacity="0.1" d="M123.322 56.868C123.672 54.5532 123.322 52.6967 122.226 51.7849C119.812 49.8055 114.667 53.0179 110.695 58.9561C109.024 61.4019 107.792 64.1193 107.052 66.987C107.459 64.2754 108.805 60.9354 110.935 57.7278C114.889 51.7896 120.053 48.582 122.467 50.5567C123.771 51.6196 124.007 53.9863 123.322 56.868Z" fill="black"/>
<path d="M157.571 144.939L153.603 145.317L151.581 136.072L155.549 135.694L157.571 144.939Z" fill="#B55B52"/>
<path d="M179.675 139.223L175.986 140.669L172.429 131.901L176.118 130.455L179.675 139.223Z" fill="#B55B52"/>
<path d="M174.913 138.854L178.957 136.842C179.027 136.807 179.106 136.799 179.182 136.818C179.257 136.837 179.323 136.882 179.368 136.946L181.418 139.917C181.47 139.994 181.505 140.082 181.52 140.173C181.535 140.265 181.531 140.358 181.507 140.448C181.482 140.538 181.439 140.621 181.38 140.693C181.321 140.764 181.247 140.822 181.163 140.862C179.746 141.542 179.122 141.878 177.341 142.752C176.245 143.295 173.803 144.575 172.291 145.326C170.78 146.078 169.958 144.623 170.52 144.174C173.038 142.166 173.869 140.65 174.422 139.379C174.519 139.152 174.693 138.966 174.913 138.854Z" fill="#3E3E3E"/>
<path d="M152.828 143.257H157.599C157.685 143.258 157.768 143.286 157.835 143.338C157.902 143.39 157.951 143.463 157.973 143.545L159.012 147.325C159.038 147.414 159.043 147.508 159.026 147.599C159.008 147.69 158.97 147.776 158.913 147.85C158.857 147.924 158.784 147.983 158.7 148.023C158.616 148.063 158.524 148.083 158.431 148.081C156.763 148.052 155.965 148.081 153.867 148.081H147.462C145.718 148.081 145.336 146.314 146.044 146.158C149.28 145.44 151.146 144.452 152.143 143.512C152.33 143.342 152.575 143.25 152.828 143.257Z" fill="#3E3E3E"/>
<path opacity="0.2" d="M151.586 136.076L152.625 140.838H156.678L155.554 135.694L151.586 136.076Z" fill="black"/>
<path opacity="0.2" d="M176.118 130.46L172.429 131.906L174.266 136.422L177.951 134.976L176.118 130.46Z" fill="black"/>
<path d="M148.118 37.2726C151.274 36.9089 153.315 38.4111 153.456 41.5621C153.872 52.6684 155.1 55.2241 156.957 60.9686L141.221 65.3478C135.628 53.2353 133.663 47.5239 133.039 44.8359C132.909 44.2112 132.988 43.5611 133.262 42.9853C133.537 42.4094 133.993 41.9394 134.56 41.6471C138.749 39.3139 143.356 37.8275 148.118 37.2726Z" fill="#9400FF"/>
<path d="M143.333 29.8276C143.522 32.2511 144.15 36.4413 146.167 37.5515C146.167 37.5515 145.87 39.049 140.654 44.0424C137.437 41.3307 139.081 39.512 139.081 39.512C141.476 38.1845 140.914 36.4555 139.969 34.7879L143.333 29.8276Z" fill="#FFA8A7"/>
<path opacity="0.2" d="M142.969 30.3711C143.313 31.7484 143.362 33.1829 143.111 34.5802C142.931 35.5251 141.901 36.2431 140.749 36.6541C140.591 35.9978 140.333 35.3699 139.983 34.7928L142.969 30.3711Z" fill="black"/>
<path d="M144.259 25.2502C145.029 29.1665 145.44 30.8057 144.013 33.2811C141.864 37.0226 136.885 37.1171 134.957 33.5079C133.223 30.2624 132.25 24.4046 135.623 21.8819C136.365 21.3229 137.238 20.9629 138.158 20.8361C139.078 20.7094 140.015 20.82 140.881 21.1575C141.746 21.495 142.511 22.0482 143.102 22.7646C143.693 23.4809 144.091 24.3366 144.259 25.2502Z" fill="#FFA8A7"/>
<path d="M146.305 27.6356C146.362 28.0132 146.344 28.3984 146.252 28.769C146.159 29.1396 145.994 29.4882 145.766 29.7945C145.152 30.6118 144.226 30.2149 143.876 29.3221C143.565 28.5095 143.503 27.1018 144.372 26.6105C144.563 26.5062 144.776 26.4508 144.993 26.4493C145.21 26.4477 145.423 26.5002 145.615 26.6018C145.807 26.7035 145.97 26.8512 146.09 27.0316C146.211 27.2121 146.284 27.4196 146.305 27.6356Z" fill="#FFA8A7"/>
<path d="M140.824 23.1761C140.678 24.6737 141.878 27.2341 144.131 27.8293C146.465 25.1461 144.925 21.466 142.78 21.3904C140.636 21.3148 140.824 23.1761 140.824 23.1761Z" fill="#3E3E3E"/>
<path d="M137.678 19.0944C134.235 19.2503 130.54 20.7856 131.821 26.1805C134.825 25.5522 143.187 24.6169 143.829 22.4721C142.984 19.718 139.937 18.9905 137.678 19.0944Z" fill="#3E3E3E"/>
<path d="M141.221 65.348C141.221 65.348 140.305 97.1315 142.861 109.126C145.511 121.607 151.496 139.445 151.496 139.445L157.118 139.081C157.118 139.081 153.485 115.759 152.394 106.136C150.854 92.8704 152.767 62.1309 152.767 62.1309L141.221 65.348Z" fill="#441F78"/>
<path opacity="0.2" d="M149.139 75.2871C149.394 72.4054 151.567 72.9581 152.054 76.8602C151.841 83.0015 151.69 90.1301 151.813 96.3706C149.47 91.793 148.558 81.8441 149.139 75.2871Z" fill="black"/>
<path d="M157.831 139.445L151.062 139.903L150.122 136.728L157.449 135.954L157.831 139.445Z" fill="#3E3E3E"/>
<path d="M146.772 63.8032C146.772 63.8032 151.562 90.447 158.067 104.785C163.32 116.363 172.839 135.019 172.839 135.019L178.003 133.086C178.003 133.086 169.929 111.908 167.01 103.764C159.74 83.4506 163.703 71.1208 156.957 60.9688L146.772 63.8032Z" fill="#441F78"/>
<path d="M178.612 133.578L172.655 135.651L170.959 132.6L178.05 130.842L178.612 133.578Z" fill="#3E3E3E"/>
<path d="M156.934 59.9953L158.039 61.2094C158.124 61.3039 158.039 61.4503 157.841 61.4976L141.339 66.0941C141.198 66.1319 141.061 66.0941 141.028 66.0091L140.494 64.6391C140.456 64.5446 140.555 64.4265 140.711 64.384L156.645 59.9481C156.693 59.9296 156.745 59.9242 156.796 59.9325C156.847 59.9408 156.894 59.9625 156.934 59.9953Z" fill="#3E3E3E"/>
<path d="M155.289 62.3576L155.719 62.2348C155.804 62.2112 155.856 62.1498 155.833 62.0978L155.124 60.3263C155.124 60.2743 155.02 60.2507 154.935 60.2743L154.505 60.3924C154.42 60.3924 154.368 60.4775 154.387 60.5294L155.101 62.3057C155.119 62.3576 155.204 62.3813 155.289 62.3576Z" fill="#441F78"/>
<path d="M142.582 65.891L143.012 65.7729C143.092 65.7729 143.149 65.6879 143.125 65.6359L142.417 63.8644C142.417 63.8124 142.308 63.7888 142.223 63.8124L141.798 63.9305C141.713 63.9305 141.661 64.0155 141.68 64.0675L142.388 65.8438C142.412 65.8957 142.497 65.9146 142.582 65.891Z" fill="#441F78"/>
<path d="M148.935 64.1242L149.365 64.0061C149.45 63.9825 149.502 63.9211 149.479 63.8691L148.77 62.0929C148.77 62.0409 148.661 62.0173 148.576 62.0409L148.151 62.159C148.066 62.159 148.014 62.2488 148.033 62.3007L148.747 64.0723C148.765 64.1242 148.85 64.1479 148.935 64.1242Z" fill="#441F78"/>
<path d="M138.694 27.8715C138.774 28.188 138.694 28.4856 138.472 28.5376C138.25 28.5896 138.033 28.3817 137.952 28.0652C137.872 27.7487 137.952 27.4558 138.174 27.3991C138.396 27.3424 138.614 27.5456 138.694 27.8715Z" fill="#3E3E3E"/>
<path d="M135.146 28.788C135.231 29.0998 135.146 29.3974 134.924 29.4541C134.702 29.5108 134.485 29.2935 134.404 28.9817C134.324 28.6699 134.404 28.3675 134.626 28.3156C134.849 28.2636 135.066 28.4715 135.146 28.788Z" fill="#3E3E3E"/>
<path d="M134.721 28.3112L133.913 28.2876C133.913 28.2876 134.452 28.7789 134.721 28.3112Z" fill="#3E3E3E"/>
<path d="M136.228 29.0811C136.135 29.8699 135.935 30.6424 135.633 31.377C135.822 31.4496 136.026 31.4796 136.228 31.4649C136.431 31.4502 136.627 31.3911 136.804 31.2919L136.228 29.0811Z" fill="#A02724"/>
<path d="M138.193 32.2414C138.175 32.2383 138.158 32.2299 138.145 32.2173C138.131 32.2047 138.122 32.1885 138.118 32.1706C138.114 32.1588 138.113 32.1464 138.114 32.1342C138.116 32.1219 138.12 32.1101 138.126 32.0995C138.132 32.0889 138.141 32.0796 138.15 32.0723C138.16 32.0651 138.172 32.0599 138.184 32.0572C138.577 31.9642 138.942 31.7796 139.25 31.5185C139.557 31.2574 139.799 30.9272 139.955 30.5549C139.959 30.5426 139.965 30.5312 139.973 30.5214C139.982 30.5115 139.992 30.5035 140.003 30.4978C140.015 30.492 140.027 30.4887 140.04 30.4879C140.053 30.4872 140.066 30.4891 140.078 30.4935C140.101 30.5021 140.12 30.5189 140.132 30.5407C140.143 30.5626 140.146 30.5878 140.139 30.6116C139.977 31.0139 139.72 31.3716 139.392 31.655C139.063 31.9384 138.672 32.1395 138.25 32.2414C138.231 32.2469 138.212 32.2469 138.193 32.2414Z" fill="#3E3E3E"/>
<path d="M139.388 26.4548C139.355 26.4505 139.323 26.4356 139.298 26.4123C139.115 26.2587 138.898 26.1512 138.664 26.0986C138.431 26.046 138.188 26.0499 137.957 26.11C137.909 26.1249 137.856 26.1205 137.811 26.0975C137.766 26.0746 137.732 26.035 137.716 25.9871C137.707 25.9636 137.703 25.9385 137.704 25.9134C137.706 25.8883 137.712 25.8637 137.723 25.8412C137.734 25.8186 137.75 25.7985 137.769 25.7822C137.788 25.7659 137.81 25.7536 137.834 25.7462C138.126 25.6668 138.433 25.6589 138.729 25.723C139.025 25.7872 139.301 25.9215 139.535 26.1147C139.566 26.1415 139.588 26.1778 139.598 26.2181C139.607 26.2585 139.604 26.3008 139.587 26.3389C139.571 26.3769 139.543 26.4087 139.507 26.4296C139.471 26.4505 139.429 26.4593 139.388 26.4548Z" fill="#3E3E3E"/>
<path d="M133.034 27.5789H132.997C132.973 27.571 132.951 27.5584 132.932 27.5419C132.914 27.5255 132.898 27.5055 132.887 27.4831C132.876 27.4607 132.87 27.4363 132.869 27.4114C132.867 27.3865 132.87 27.3616 132.879 27.338C132.971 27.0495 133.131 26.7872 133.345 26.5735C133.56 26.3597 133.823 26.2007 134.112 26.1097C134.136 26.1034 134.161 26.1019 134.186 26.1053C134.211 26.1088 134.234 26.1171 134.256 26.1299C134.277 26.1426 134.296 26.1595 134.311 26.1796C134.326 26.1996 134.337 26.2225 134.343 26.2467C134.354 26.2962 134.346 26.3482 134.32 26.3915C134.293 26.4348 134.251 26.4659 134.201 26.4782C133.977 26.5549 133.774 26.6841 133.61 26.855C133.445 27.0259 133.324 27.2336 133.257 27.4608C133.24 27.5043 133.209 27.5404 133.168 27.5622C133.127 27.584 133.08 27.5899 133.034 27.5789Z" fill="#3E3E3E"/>
<path d="M151.525 44.7082C150.296 47.2403 149.021 49.7252 147.675 52.1959C147.004 53.4336 146.333 54.6713 145.62 55.8901C144.906 57.1089 144.202 58.3325 143.357 59.556C143.163 59.8583 142.922 60.1796 142.695 60.5008L142.61 60.6142L142.568 60.6756L142.497 60.7654C142.398 60.8882 142.299 60.9921 142.199 61.0961C142.019 61.2791 141.825 61.4481 141.618 61.6015C140.938 62.099 140.199 62.51 139.417 62.8251C138.038 63.3821 136.616 63.8276 135.165 64.1572C132.388 64.7991 129.568 65.2396 126.728 65.4753L126.407 63.4628C127.725 63.1132 129.066 62.7448 130.384 62.3621C131.702 61.9795 133.011 61.5732 134.286 61.1291C135.529 60.7108 136.742 60.2121 137.919 59.6363C138.416 59.3916 138.883 59.0921 139.313 58.7435C139.383 58.685 139.448 58.6202 139.507 58.5498C139.524 58.5287 139.539 58.5067 139.554 58.4836L139.658 58.323C139.823 58.0632 139.993 57.8175 140.163 57.5247C140.834 56.3956 141.495 55.1862 142.138 53.9769L144.051 50.3063L147.83 42.8989L151.525 44.7082Z" fill="#FFA8A7"/>
<path d="M127.701 63.4817L124.918 62.4141L125.155 66.3398C125.155 66.3398 127.342 66.3398 128.353 64.9934L127.701 63.4817Z" fill="#FFA8A7"/>
<path d="M122.731 62.5274L122.136 65.4139L125.155 66.3398L124.919 62.4141L122.731 62.5274Z" fill="#FFA8A7"/>
<path d="M148.1 39.3038C146.545 40.0171 144.741 46.475 144.741 46.475L151.473 47.2403C151.473 47.2403 152.776 44.1035 152.512 42.4926C152.115 39.9179 149.871 38.4913 148.1 39.3038Z" fill="#9400FF"/>
<path d="M172.901 140.007C172.875 139.962 172.854 139.915 172.84 139.865C172.818 139.813 172.81 139.755 172.819 139.698C172.827 139.642 172.851 139.588 172.887 139.544C173.213 139.147 174.658 139.308 174.819 139.327C174.837 139.328 174.855 139.335 174.87 139.347C174.884 139.359 174.894 139.375 174.899 139.393C174.905 139.41 174.906 139.429 174.901 139.447C174.896 139.465 174.885 139.481 174.871 139.492C174.46 139.837 173.695 140.39 173.203 140.248C173.139 140.231 173.078 140.201 173.026 140.16C172.974 140.118 172.931 140.066 172.901 140.007ZM174.569 139.492C173.987 139.445 173.208 139.454 173.033 139.662C173.02 139.684 173.013 139.71 173.013 139.735C173.013 139.761 173.02 139.787 173.033 139.809C173.047 139.869 173.076 139.924 173.117 139.969C173.159 140.015 173.211 140.049 173.269 140.068C173.529 140.144 174.011 139.931 174.578 139.492H174.569Z" fill="#441F78"/>
<path d="M173.255 138.703C173.237 138.669 173.223 138.632 173.213 138.594C173.193 138.521 173.199 138.444 173.229 138.374C173.259 138.305 173.311 138.248 173.378 138.212C173.439 138.172 173.509 138.145 173.581 138.135C173.654 138.124 173.728 138.129 173.798 138.15C174.361 138.301 174.88 139.336 174.904 139.379C174.912 139.393 174.917 139.409 174.917 139.426C174.917 139.442 174.912 139.459 174.904 139.473C174.894 139.487 174.882 139.498 174.867 139.505C174.852 139.513 174.835 139.516 174.819 139.516C174.218 139.439 173.664 139.151 173.255 138.703ZM174.63 139.275C174.436 138.935 174.077 138.42 173.747 138.33C173.703 138.316 173.657 138.312 173.612 138.319C173.567 138.325 173.524 138.342 173.487 138.368C173.383 138.434 173.383 138.495 173.397 138.538C173.468 138.812 174.167 139.194 174.644 139.294L174.63 139.275Z" fill="#441F78"/>
<path d="M150.698 144.041C150.367 144.068 150.037 143.991 149.753 143.819C149.678 143.765 149.617 143.694 149.576 143.612C149.534 143.53 149.512 143.439 149.512 143.347C149.505 143.297 149.513 143.246 149.534 143.2C149.555 143.154 149.588 143.115 149.63 143.087C150.06 142.794 151.685 143.531 151.992 143.682C152.011 143.691 152.026 143.705 152.036 143.723C152.046 143.741 152.051 143.761 152.049 143.782C152.046 143.801 152.038 143.82 152.024 143.834C152.011 143.848 151.993 143.858 151.973 143.862C151.556 143.966 151.128 144.026 150.698 144.041ZM149.937 143.219C149.872 143.216 149.806 143.23 149.748 143.262C149.748 143.262 149.711 143.295 149.715 143.352C149.717 143.414 149.732 143.474 149.761 143.529C149.789 143.584 149.83 143.632 149.881 143.668C150.159 143.881 150.825 143.909 151.676 143.749C151.131 143.485 150.55 143.307 149.951 143.219H149.937Z" fill="#441F78"/>
<path d="M151.997 143.881H151.959C151.421 143.663 150.334 142.789 150.396 142.341C150.396 142.241 150.476 142.119 150.722 142.09C151.666 141.977 152.073 143.701 152.092 143.772C152.094 143.789 152.093 143.807 152.087 143.824C152.081 143.84 152.071 143.855 152.058 143.867C152.04 143.878 152.018 143.883 151.997 143.881ZM150.811 142.265H150.745C150.646 142.265 150.594 142.308 150.585 142.355C150.551 142.615 151.303 143.3 151.851 143.602C151.723 143.191 151.383 142.265 150.811 142.265Z" fill="#441F78"/>
<path d="M138.269 27.3994H137.456C137.456 27.3994 137.999 27.8718 138.269 27.3994Z" fill="#3E3E3E"/>
<path d="M140.125 148.085H165.975C166.153 148.085 166.324 148.156 166.45 148.281C166.575 148.407 166.646 148.578 166.646 148.756V150.938H139.459V148.756C139.459 148.579 139.529 148.409 139.654 148.283C139.779 148.157 139.948 148.086 140.125 148.085Z" fill="#3E3E3E"/>
<path d="M166.878 158.162H139.691V161.01H166.878V158.162Z" fill="#3E3E3E"/>
<path opacity="0.5" d="M166.878 158.162H148.903V161.01H166.878V158.162Z" fill="black"/>
<path d="M151.52 150.934L148.463 170.066C148.437 170.224 148.357 170.367 148.236 170.471C148.115 170.574 147.961 170.632 147.802 170.633H146.304C146.207 170.633 146.112 170.612 146.024 170.571C145.936 170.531 145.858 170.472 145.795 170.398C145.733 170.324 145.686 170.238 145.66 170.145C145.634 170.052 145.628 169.954 145.643 169.859L148.671 150.915L151.52 150.934Z" fill="#3E3E3E"/>
<path opacity="0.5" d="M151.52 150.934L151.288 152.389H148.435L148.671 150.934H151.52Z" fill="black"/>
<path d="M142.308 150.934L139.251 170.066C139.226 170.224 139.145 170.367 139.024 170.471C138.903 170.574 138.749 170.632 138.59 170.633H137.092C136.996 170.633 136.9 170.612 136.812 170.571C136.724 170.531 136.646 170.472 136.583 170.398C136.521 170.324 136.474 170.238 136.448 170.145C136.422 170.052 136.416 169.954 136.431 169.859L139.459 150.915L142.308 150.934Z" fill="#3E3E3E"/>
<path d="M169.67 169.878L166.646 150.934H163.812L166.854 170.067C166.879 170.224 166.959 170.368 167.08 170.472C167.202 170.576 167.356 170.633 167.516 170.633H169.008C169.103 170.633 169.197 170.612 169.283 170.573C169.37 170.533 169.447 170.476 169.509 170.404C169.572 170.333 169.618 170.249 169.646 170.158C169.674 170.067 169.682 169.972 169.67 169.878Z" fill="#3E3E3E"/>
<path opacity="0.5" d="M166.878 152.389L166.646 150.934H163.793L164.024 152.389H166.878Z" fill="black"/>
<path d="M160.458 169.878L157.435 150.934H154.6L157.642 170.067C157.667 170.224 157.747 170.368 157.869 170.472C157.99 170.576 158.144 170.633 158.304 170.633H159.797C159.892 170.633 159.985 170.612 160.072 170.573C160.158 170.533 160.235 170.476 160.297 170.404C160.36 170.333 160.407 170.249 160.434 170.158C160.462 170.067 160.47 169.972 160.458 169.878Z" fill="#3E3E3E"/>
<path opacity="0.5" d="M160.458 169.878L157.435 150.934H154.6L157.642 170.067C157.667 170.224 157.747 170.368 157.869 170.472C157.99 170.576 158.144 170.633 158.304 170.633H159.797C159.892 170.633 159.985 170.612 160.072 170.573C160.158 170.533 160.235 170.476 160.297 170.404C160.36 170.333 160.407 170.249 160.434 170.158C160.462 170.067 160.47 169.972 160.458 169.878Z" fill="black"/>
<path opacity="0.5" d="M148.671 148.085H165.976C166.154 148.085 166.324 148.156 166.45 148.281C166.576 148.407 166.646 148.578 166.646 148.756V150.938H148.695V148.104L148.671 148.085Z" fill="black"/>
<path d="M68.8678 168.05L72.6517 161.105L59.1173 149.243L58.0591 168.05H68.8678Z" fill="#441F78"/>
<path opacity="0.1" d="M68.8678 168.05L72.6517 161.105L59.1173 149.243L58.0591 168.05H68.8678Z" fill="#441F78"/>
<path d="M115.513 88.9167C123.105 83.7203 129.463 84.2541 131.575 85.7705C133.687 87.2869 126.979 98.8042 126.979 98.8042C124.47 98.0754 122.147 96.8152 120.169 95.1091C118.191 93.403 116.603 91.2911 115.513 88.9167Z" fill="#441F78"/>
<path opacity="0.4" d="M119.127 94.1367C123.402 89.937 127.763 88.5907 128.944 89.2946C130.125 89.9984 126.331 98.0955 126.331 98.0955C126.331 98.0955 121.206 98.8325 119.127 94.1367Z" fill="#9400FF"/>
<path d="M49.551 105.205L49.1211 104.988C50.3079 102.652 51.7041 100.429 53.2924 98.3457L53.6751 98.6386C52.1068 100.7 50.7266 102.897 49.551 105.205Z" fill="#441F78"/>
<path d="M47.3025 110.543L46.8301 110.388C47.1891 109.334 47.5954 108.281 48.0394 107.26L48.4835 107.454C48.0583 108.455 47.6568 109.495 47.3025 110.543Z" fill="#441F78"/>
<path d="M135.633 123.653C135.633 147.108 117.974 166.117 92.4833 166.117C66.9922 166.117 46.3291 147.108 46.3291 123.653C46.3291 100.198 66.9922 81.188 92.4833 81.188C117.974 81.188 135.633 100.198 135.633 123.653Z" fill="#441F78"/>
<path opacity="0.1" d="M86.3325 161.62L84.4854 165.484C85.8207 165.702 87.1765 165.859 88.5528 165.957L86.3325 161.62Z" fill="black"/>
<path d="M83.5357 170.652L88.8456 161.105L71.8625 154.897L69.6895 170.652H83.5357Z" fill="#441F78"/>
<path d="M108.271 170.652L103.67 161.105L119.84 154.897L120.913 170.652H108.271Z" fill="#441F78"/>
<path opacity="0.3" d="M119.888 129.789C119.888 136.138 114.276 141.283 107.374 141.283C100.472 141.283 94.8833 136.138 94.8833 129.789C94.8833 123.44 100.477 118.295 107.374 118.295C114.271 118.295 119.888 123.44 119.888 129.789Z" fill="#9400FF"/>
<path opacity="0.4" d="M100.121 126.899C101.293 126.899 102.242 125.13 102.242 122.949C102.242 120.768 101.293 119 100.121 119C98.9496 119 98 120.768 98 122.949C98 125.13 98.9496 126.899 100.121 126.899Z" fill="#9400FF"/>
<path opacity="0.8" d="M88.0567 114.405C88.6661 116.261 88.1039 118.288 86.8048 118.926C85.5057 119.563 83.9703 118.571 83.3468 116.715C82.7232 114.858 83.2948 112.832 84.5939 112.194C85.8931 111.556 87.4473 112.543 88.0567 114.405Z" fill="white" fill-opacity="0.8"/>
<path opacity="0.8" d="M120.937 108.436C120.464 110.293 121.045 112.296 122.217 112.905C123.388 113.515 124.711 112.504 125.174 110.642C125.637 108.781 125.065 106.783 123.894 106.173C122.722 105.564 121.409 106.575 120.937 108.436Z" fill="white" fill-opacity="0.8"/>
<path opacity="0.4" d="M114.122 126.899C115.293 126.899 116.243 125.13 116.243 122.949C116.243 120.768 115.293 119 114.122 119C112.95 119 112 120.768 112 122.949C112 125.13 112.95 126.899 114.122 126.899Z" fill="#9400FF"/>
<path d="M78.9916 88.5292C70.767 81.7171 63.4021 81.188 60.8606 82.4257C58.319 83.6634 64.928 97.0184 64.928 97.0184C64.928 97.0184 73.951 96.4893 78.9916 88.5292Z" fill="#441F78"/>
<path opacity="0.4" d="M74.362 93.433C69.8505 88.2365 64.9752 86.0729 63.5533 86.6114C62.1313 87.15 65.7358 96.3714 65.7358 96.3714C65.7358 96.3714 71.5464 98.0437 74.362 93.433Z" fill="#9400FF"/>
<path opacity="0.6" d="M95.601 84.8821H102.55C102.55 84.8821 101.038 83.2193 95.9081 82.7138C93.0026 82.4778 90.0786 82.6367 87.2158 83.1862C87.2158 83.1862 92.9414 83.0586 95.601 84.8821Z" fill="#9400FF"/>
</svg>
