<svg width="16" height="16" viewBox="0 0 16 16" fill="none" xmlns="http://www.w3.org/2000/svg">
<path fill-rule="evenodd" clip-rule="evenodd" d="M10.6668 12C8.45769 12 6.66683 10.2091 6.66683 8C6.66683 5.79086 8.45769 4 10.6668 4C12.876 4 14.6668 5.79086 14.6668 8C14.6668 10.2091 12.876 12 10.6668 12ZM10.6504 5.55556H10.6879C10.8021 5.55556 10.8977 5.64207 10.9091 5.75567L11.1113 7.77778L12.5549 8.60268C12.6241 8.64225 12.6668 8.71588 12.6668 8.79563V8.88889C12.6668 8.98263 12.5908 9.05862 12.4971 9.05862C12.482 9.05862 12.467 9.05661 12.4524 9.05264L10.3996 8.49277C10.2967 8.46472 10.2283 8.36761 10.2365 8.26133L10.4288 5.76073C10.4377 5.64496 10.5343 5.55556 10.6504 5.55556ZM5.11127 4.88889H2.88905C2.52086 4.88889 2.22239 5.18737 2.22239 5.55556C2.22239 5.92375 2.52086 6.22222 2.88905 6.22222H5.11127C5.47946 6.22222 5.77794 5.92375 5.77794 5.55556C5.77794 5.18737 5.47946 4.88889 5.11127 4.88889ZM5.11127 10.2222H2.88905C2.52086 10.2222 2.22239 10.5207 2.22239 10.8889C2.22239 11.2571 2.52086 11.5556 2.88905 11.5556H5.11127C5.47946 11.5556 5.77794 11.2571 5.77794 10.8889C5.77794 10.5207 5.47946 10.2222 5.11127 10.2222ZM2.00016 7.55556H3.77794C4.14613 7.55556 4.44461 7.85403 4.44461 8.22222C4.44461 8.59041 4.14613 8.88889 3.77794 8.88889H2.00016C1.63197 8.88889 1.3335 8.59041 1.3335 8.22222C1.3335 7.85403 1.63197 7.55556 2.00016 7.55556Z" fill="white"/>
</svg>
