<svg width="237" height="176" viewBox="0 0 237 176" fill="none" xmlns="http://www.w3.org/2000/svg">
<path d="M236.204 154.666H0V154.784H236.204V154.666Z" fill="#EBEBEB"/>
<path d="M212.536 162.267H196.89V162.385H212.536V162.267Z" fill="#EBEBEB"/>
<path d="M156.471 163.552H152.366V163.67H156.471V163.552Z" fill="#EBEBEB"/>
<path d="M196.418 157.883H187.352V158.001H196.418V157.883Z" fill="#EBEBEB"/>
<path d="M45.186 158.677H24.7827V158.795H45.186V158.677Z" fill="#EBEBEB"/>
<path d="M52.3854 158.677H49.395V158.795H52.3854V158.677Z" fill="#EBEBEB"/>
<path d="M106.363 160.67H62.1074V160.789H106.363V160.67Z" fill="#EBEBEB"/>
<path d="M111.961 133.597H20.7435C20.0289 133.595 19.344 133.311 18.8392 132.805C18.3343 132.299 18.0508 131.614 18.0508 130.899V2.67382C18.057 1.96334 18.3433 1.28399 18.8475 0.783354C19.3516 0.282716 20.033 0.0012171 20.7435 0H111.961C112.676 0 113.362 0.284194 113.868 0.790063C114.374 1.29593 114.658 1.98204 114.658 2.69744V130.899C114.658 131.615 114.374 132.301 113.868 132.807C113.362 133.313 112.676 133.597 111.961 133.597ZM20.7435 0.0944818C20.0602 0.0957332 19.4054 0.368036 18.9227 0.851621C18.44 1.33521 18.1689 1.99056 18.1689 2.67382V130.899C18.1689 131.583 18.44 132.238 18.9227 132.721C19.4054 133.205 20.0602 133.477 20.7435 133.479H111.961C112.644 133.477 113.3 133.205 113.783 132.722C114.267 132.238 114.539 131.583 114.54 130.899V2.67382C114.539 1.99012 114.267 1.33478 113.783 0.851333C113.3 0.367882 112.644 0.0957306 111.961 0.0944818H20.7435Z" fill="#EBEBEB"/>
<path d="M214.147 133.597H122.925C122.21 133.595 121.525 133.311 121.019 132.805C120.513 132.3 120.229 131.614 120.228 130.899V2.67382C120.235 1.96291 120.522 1.28357 121.027 0.783059C121.532 0.282551 122.214 0.00120383 122.925 0H214.147C214.856 0.00245864 215.537 0.284507 216.04 0.785012C216.543 1.28552 216.829 1.96415 216.835 2.67382V130.899C216.835 131.613 216.552 132.298 216.048 132.803C215.544 133.309 214.861 133.594 214.147 133.597ZM122.925 0.0944818C122.241 0.0957306 121.586 0.367882 121.102 0.851333C120.619 1.33478 120.347 1.99012 120.346 2.67382V130.899C120.347 131.583 120.619 132.238 121.102 132.722C121.586 133.205 122.241 133.477 122.925 133.479H214.147C214.831 133.477 215.486 133.205 215.969 132.722C216.453 132.238 216.725 131.583 216.726 130.899V2.67382C216.725 1.99012 216.453 1.33478 215.969 0.851333C215.486 0.367882 214.831 0.0957306 214.147 0.0944818H122.925Z" fill="#EBEBEB"/>
<path d="M106.334 27.8769L111.214 27.1636L106.334 26.4502L107.539 24.5417L105.63 25.7463L104.917 20.8711L104.204 25.7463L102.295 24.5417L103.504 26.4502L98.6245 27.1636L103.504 27.8769L102.295 29.7854L104.204 28.5761L104.917 33.456L105.63 28.5761L107.539 29.7854L106.334 27.8769Z" fill="#9400FF" fill-opacity="0.2"/>
<path d="M155.389 40.9011L160.264 40.1878L155.389 39.4745L156.594 37.566L154.685 38.7706L153.972 33.8906L153.258 38.7706L151.35 37.566L152.559 39.4745L147.679 40.1878L152.559 40.9011L151.35 42.8097L153.258 41.6003L153.972 46.4803L154.685 41.6003L156.594 42.8097L155.389 40.9011Z" fill="#9400FF" fill-opacity="0.2"/>
<path d="M86.7811 62.0647L91.6611 61.3514L86.7811 60.6333L87.9905 58.7295L86.082 59.9342L85.3686 55.0542L84.6553 59.9342L82.7468 58.7295L83.9561 60.6333L79.0762 61.3514L83.9561 62.0647L82.7468 63.9732L84.6553 62.7639L85.3686 67.6439L86.082 62.7639L87.9905 63.9732L86.7811 62.0647Z" fill="#9400FF" fill-opacity="0.2"/>
<path d="M45.5354 62.0647L50.4106 61.3514L45.5354 60.6333L46.74 58.7295L44.8315 59.9342L44.1181 55.0542L43.4048 59.9342L41.4963 58.7295L42.7057 60.6333L37.8257 61.3514L42.7057 62.0647L41.4963 63.9732L43.4048 62.7639L44.1181 67.6439L44.8315 62.7639L46.74 63.9732L45.5354 62.0647Z" fill="#9400FF" fill-opacity="0.2"/>
<path d="M68.9006 91.1131L73.7806 90.3997L68.9006 89.6817L70.11 87.7779L68.2014 88.9825L67.4881 84.1025L66.77 88.9825L64.8662 87.7779L66.0709 89.6817L61.1909 90.3997L66.0709 91.1131L64.8662 93.0216L66.77 91.8122L67.4881 96.6922L68.2014 91.8122L70.11 93.0216L68.9006 91.1131Z" fill="#9400FF" fill-opacity="0.2"/>
<path d="M164.757 75.4716L169.637 74.7583L164.757 74.045L165.966 72.1364L164.058 73.3458L163.344 68.4658L162.631 73.3458L160.722 72.1364L161.927 74.045L157.052 74.7583L161.927 75.4716L160.722 77.3801L162.631 76.1755L163.344 81.0555L164.058 76.1755L165.966 77.3801L164.757 75.4716Z" fill="#9400FF" fill-opacity="0.2"/>
<path d="M199.176 118.711L204.052 117.993L199.176 117.28L200.381 115.376L198.473 116.581L197.759 111.701L197.046 116.581L195.137 115.376L196.347 117.28L191.467 117.993L196.347 118.711L195.137 120.615L197.046 119.41L197.759 124.29L198.473 119.41L200.381 120.615L199.176 118.711Z" fill="#F5F5F5"/>
<path d="M158.464 117.209L163.344 116.495L158.464 115.777L159.673 113.874L157.765 115.078L157.052 110.198L156.334 115.078L154.43 113.874L155.634 115.777L150.754 116.495L155.634 117.209L154.43 119.117L156.334 117.908L157.052 122.788L157.765 117.908L159.673 119.117L158.464 117.209Z" fill="#F5F5F5"/>
<path d="M68.9006 127.375L73.7806 126.657L68.9006 125.944L70.11 124.035L68.2014 125.245L67.4881 120.365L66.77 125.245L64.8662 124.035L66.0709 125.944L61.1909 126.657L66.0709 127.375L64.8662 129.279L66.77 128.074L67.4881 132.954L68.2014 128.074L70.11 129.279L68.9006 127.375Z" fill="#F5F5F5"/>
<path d="M121.924 105.196L126.804 104.482L121.924 103.769L123.133 101.861L121.224 103.065L120.511 98.1899L119.798 103.065L117.889 101.861L119.094 103.769L114.214 104.482L119.094 105.196L117.889 107.104L119.798 105.895L120.511 110.775L121.224 105.895L123.133 107.104L121.924 105.196Z" fill="#F5F5F5"/>
<path d="M94.2405 157.741L99.1204 157.028L94.2405 156.314L95.4451 154.406L93.5366 155.611L92.8232 150.735L92.1099 155.611L90.2014 154.406L91.4107 156.314L86.5308 157.028L91.4107 157.741L90.2014 159.65L92.1099 158.44L92.8232 163.32L93.5366 158.44L95.4451 159.65L94.2405 157.741Z" fill="#F5F5F5"/>
<path d="M148.525 154.558L153.405 153.844L148.525 153.131L149.729 151.222L147.825 152.432L147.107 147.552L146.394 152.432L144.486 151.222L145.695 153.131L140.815 153.844L145.695 154.558L144.486 156.466L146.394 155.257L147.107 160.137L147.825 155.257L149.729 156.466L148.525 154.558Z" fill="#F5F5F5"/>
<path d="M149.139 66.4723C146.239 62.1781 144.996 55.4416 142.336 52.7725C144.396 51.1918 146.581 49.7825 148.87 48.5586C150.5 53.2496 151.468 60.5294 155.672 62.2584C153.613 63.839 151.428 65.2484 149.139 66.4723Z" fill="#EBEBEB"/>
<path d="M154.052 63.0615C153.645 62.7922 153.749 62.2631 154.245 61.9324C151.335 59.594 150.291 54.1519 148.973 50.0797C148.866 50.1284 148.749 50.1534 148.632 50.1531C148.514 50.1528 148.397 50.1271 148.29 50.0778C148.183 50.0285 148.088 49.9568 148.011 49.8675C147.934 49.7781 147.877 49.6733 147.844 49.5601C146.463 50.3254 145.123 51.1627 143.829 52.0685C143.929 52.3068 143.937 52.5741 143.849 52.8174C143.762 53.0607 143.586 53.2622 143.356 53.3818C145.326 56.1643 146.526 61.2994 148.68 65.1353C148.922 65.0454 149.187 65.0368 149.434 65.111C149.682 65.1852 149.898 65.338 150.05 65.5463C151.427 64.7886 152.762 63.9592 154.052 63.0615ZM146.966 58.2949C146.536 57.1469 146.933 55.8998 147.811 55.4935C148.69 55.0872 149.701 55.7628 150.102 56.9391C150.504 58.1153 150.192 59.3342 149.318 59.7215C148.444 60.1089 147.391 59.4523 146.98 58.2949H146.966Z" fill="#48B961"/>
<path d="M83.1672 52.3806C79.0148 54.6198 72.7176 54.8985 70.091 57.1283C68.7732 54.8942 67.6237 52.5651 66.6519 50.1603C71.0878 49.2155 77.8668 49.2816 79.7281 45.4126C81.0496 47.6446 82.1993 49.974 83.1672 52.3806Z" fill="#EBEBEB"/>
<path d="M80.3614 47.1037C80.0874 47.4674 79.6008 47.2926 79.3315 46.7588C76.9695 49.2767 71.8911 49.546 68.041 50.2688C68.0827 50.3722 68.1012 50.4835 68.0952 50.5949C68.0891 50.7062 68.0586 50.8149 68.0059 50.9132C67.9531 51.0114 67.8794 51.0969 67.79 51.1635C67.7005 51.2301 67.5975 51.2763 67.4883 51.2986C68.0504 52.6403 68.7165 54.0528 69.5291 55.5503C69.8928 55.366 70.4267 55.6542 70.7101 56.1928C73.4075 54.6574 78.2214 54.1945 81.9109 52.6214C81.8383 52.3857 81.8453 52.1327 81.9306 51.9014C82.016 51.6701 82.175 51.4732 82.3833 51.3411C81.8258 50.0042 81.1692 48.5965 80.3661 47.0895L80.3614 47.1037ZM75.4861 53.3819C74.9887 53.5162 74.4596 53.467 73.9955 53.2432C73.5314 53.0194 73.1634 52.636 72.9588 52.1631C72.6422 51.2183 73.3367 50.3633 74.4468 50.1271C75.557 49.8909 76.6624 50.368 76.96 51.275C77.2577 52.182 76.5774 53.1079 75.4861 53.3819Z" fill="#48B961"/>
<path d="M124.38 46.0975C120.851 42.956 118.433 37.1218 115.438 35.4353C117.084 33.4308 118.88 31.5532 120.809 29.8184C123.213 33.6638 125.476 40.0554 129.747 40.4759C128.101 42.4816 126.307 44.3608 124.38 46.0975Z" fill="#EBEBEB"/>
<path d="M128.372 41.6474C127.942 41.5151 127.937 41.0002 128.348 40.5656C125.188 39.2098 123.18 34.5282 121.182 31.1789C121.099 31.2542 121.001 31.3103 120.894 31.343C120.787 31.3757 120.674 31.3843 120.563 31.368C120.452 31.3517 120.347 31.3111 120.253 31.2489C120.16 31.1868 120.082 31.1048 120.025 31.0088C118.957 32.0008 117.856 33.1063 116.718 34.3912C117.015 34.6699 116.926 35.2699 116.515 35.7187C118.877 37.7311 120.965 42.0962 123.709 45.0204C123.906 44.8721 124.146 44.7919 124.392 44.7919C124.638 44.7919 124.878 44.8721 125.075 45.0204C126.138 44.0378 127.234 42.9371 128.382 41.6663L128.372 41.6474ZM120.814 39.2098C120.517 38.7883 120.382 38.2738 120.434 37.7609C120.486 37.2479 120.721 36.771 121.097 36.4178C121.853 35.8084 122.911 36.158 123.52 37.1217C124.13 38.0854 124.05 39.2854 123.298 39.8759C122.547 40.4664 121.442 40.1546 120.828 39.2098H120.814Z" fill="#48B961"/>
<path d="M135.453 95.3647C133.842 90.9288 134.485 84.6599 132.666 81.7357C135.068 80.7625 137.539 79.9698 140.059 79.3643C140.347 83.8899 139.289 90.5887 142.846 92.9979C140.445 93.9713 137.974 94.7625 135.453 95.3647Z" fill="#EBEBEB"/>
<path d="M141.08 93.3574C140.763 93.0314 141.009 92.5826 141.552 92.4125C139.407 89.7104 139.885 84.6415 139.733 80.7299C139.624 80.7573 139.511 80.7602 139.4 80.7383C139.29 80.7165 139.186 80.6705 139.096 80.6036C139.005 80.5368 138.931 80.4507 138.878 80.3517C138.825 80.2526 138.794 80.143 138.789 80.0308C137.371 80.3945 135.883 80.8433 134.268 81.4244C134.395 81.8117 134.031 82.2983 133.455 82.4967C134.579 85.3926 134.334 90.2253 135.345 94.099C135.588 94.0649 135.836 94.1098 136.052 94.2272C136.268 94.3445 136.441 94.5281 136.545 94.751C137.962 94.3919 139.44 93.9479 141.051 93.3715L141.08 93.3574ZM135.609 87.6223C135.547 87.1108 135.671 86.594 135.961 86.1675C136.25 85.741 136.684 85.4338 137.182 85.3028C138.127 85.1233 138.902 85.9358 138.978 87.0696C139.053 88.2034 138.415 89.2238 137.475 89.3891C136.535 89.5545 135.694 88.7419 135.609 87.6223Z" fill="#48B961"/>
<path d="M198.203 77.2904C194.674 74.1489 192.255 68.3146 189.26 66.6282C190.908 64.6248 192.704 62.7473 194.632 61.0112C197.041 64.8566 199.304 71.2483 203.574 71.6687C201.927 73.6746 200.132 75.5538 198.203 77.2904Z" fill="#EBEBEB"/>
<path d="M202.19 72.845C201.755 72.708 201.755 72.1931 202.166 71.7585C198.997 70.3885 196.994 65.7211 195.005 62.3576C194.922 62.433 194.824 62.489 194.717 62.5217C194.61 62.5545 194.497 62.563 194.386 62.5467C194.275 62.5304 194.169 62.4898 194.076 62.4276C193.983 62.3655 193.905 62.2835 193.847 62.1875C192.78 63.1796 191.679 64.285 190.541 65.5699C190.838 65.8487 190.748 66.4486 190.337 66.8974C192.699 68.9099 194.787 73.2749 197.532 76.1991C197.729 76.0515 197.969 75.9718 198.215 75.9718C198.461 75.9718 198.7 76.0515 198.897 76.1991C199.96 75.2165 201.056 74.1158 202.204 72.845H202.19ZM194.632 70.3885C194.334 69.9681 194.199 69.4542 194.251 68.9417C194.303 68.4293 194.539 67.9531 194.915 67.6013C195.666 66.9872 196.729 67.3367 197.334 68.3004C197.938 69.2642 197.868 70.4641 197.116 71.0546C196.365 71.6451 195.265 71.3333 194.632 70.3885Z" fill="#48B961"/>
<path d="M195.406 70.0908L195.203 70.2467L195.085 70.0625L195.284 69.9066C195.16 69.702 195.088 69.4699 195.076 69.2311L195.321 69.1885C195.328 69.3871 195.382 69.5813 195.477 69.7554L195.832 69.4814C195.723 69.1885 195.614 68.8626 195.865 68.6689C196.044 68.5272 196.313 68.5791 196.564 68.9193L196.767 68.7634L196.885 68.9523L196.687 69.1035C196.784 69.274 196.848 69.4616 196.876 69.6562L196.635 69.6987C196.611 69.5442 196.563 69.3943 196.493 69.2547L196.134 69.5334C196.247 69.8263 196.365 70.1522 196.134 70.3412C195.902 70.5302 195.661 70.431 195.406 70.0908ZM196.049 69.3114L196.37 69.0704C196.247 68.9193 196.139 68.9004 196.058 68.9618C195.978 69.0232 195.997 69.1555 196.049 69.3114ZM195.907 70.0578C195.997 69.9916 195.973 69.8594 195.907 69.6987L195.591 69.9444C195.728 70.0956 195.832 70.1192 195.907 70.0578Z" fill="#48B961"/>
<path d="M114.521 67.9746C111.351 72.0609 108.455 76.4354 107.175 81.1075C105.04 80.2241 102.848 79.3359 100.708 78.3014C102.385 73.4403 105.281 69.1745 108.054 65.1685C110.189 66.0519 112.381 66.94 114.521 67.9746Z" fill="#EBEBEB"/>
<path d="M109.046 65.9813C108.887 66.1951 108.663 66.3516 108.407 66.4274C108.152 66.5032 107.879 66.4942 107.629 66.4017C105.342 69.7416 103.056 73.2658 101.516 77.1726C101.748 77.2974 101.929 77.501 102.025 77.7468C102.121 77.9927 102.126 78.2648 102.04 78.5142C103.377 79.1284 104.728 79.7 106.065 80.2574C106.098 80.1411 106.156 80.0334 106.235 79.9414C106.314 79.8494 106.411 79.7754 106.521 79.7244C106.631 79.6733 106.75 79.6464 106.871 79.6455C106.992 79.6445 107.112 79.6696 107.222 79.7189C108.521 75.916 110.803 72.3257 113.335 68.9291C113.225 68.8803 113.128 68.8063 113.051 68.7131C112.975 68.6199 112.922 68.51 112.895 68.3924C112.869 68.2747 112.871 68.1526 112.901 68.0358C112.93 67.9189 112.987 67.8107 113.066 67.7197C111.724 67.1056 110.378 66.534 109.041 65.9766L109.046 65.9813ZM108.654 73.6957C108.402 74.1607 107.988 74.5169 107.49 74.6963C106.993 74.8758 106.447 74.866 105.956 74.6689C105.728 74.5592 105.525 74.4026 105.361 74.2091C105.197 74.0157 105.076 73.7898 105.006 73.5463C104.935 73.3028 104.917 73.0471 104.952 72.7961C104.987 72.545 105.075 72.3043 105.21 72.0895C105.48 71.6248 105.909 71.2733 106.417 71.0997C106.926 70.9261 107.48 70.9421 107.978 71.1447C108.206 71.2513 108.408 71.4066 108.569 71.5997C108.731 71.7928 108.848 72.019 108.912 72.2623C108.977 72.5056 108.987 72.76 108.942 73.0077C108.898 73.2554 108.799 73.4902 108.654 73.6957Z" fill="#48B961"/>
<path d="M107.931 73.1476L108.186 73.2657L108.077 73.4547L107.822 73.3366C107.699 73.538 107.522 73.7014 107.312 73.809L107.137 73.5964C107.314 73.5086 107.465 73.3768 107.577 73.2138L107.104 73.0012C106.896 73.228 106.655 73.4736 106.339 73.3224C106.107 73.2138 105.999 72.9445 106.174 72.5666L105.918 72.4485L106.027 72.2595L106.282 72.3776C106.387 72.2131 106.53 72.0755 106.698 71.9761L106.873 72.1745C106.739 72.2573 106.622 72.3647 106.528 72.491L107 72.7036C107.213 72.4768 107.473 72.2312 107.78 72.3823C108.011 72.5004 108.11 72.7508 107.931 73.1476ZM106.844 72.8831L106.438 72.6941C106.367 72.8689 106.41 72.9776 106.509 73.0248C106.608 73.0721 106.726 73.0012 106.844 72.8831ZM107.624 72.6989C107.51 72.6469 107.397 72.7225 107.279 72.8453L107.685 73.0295C107.756 72.85 107.709 72.7508 107.624 72.6989Z" fill="#48B961"/>
<path d="M195.071 92.1997C191.896 96.286 189.005 100.66 187.725 105.333C185.59 104.449 183.398 103.561 181.258 102.526C182.935 97.6654 185.831 93.3996 188.599 89.3936C190.739 90.277 192.931 91.1745 195.071 92.1997Z" fill="#EBEBEB"/>
<path d="M189.596 90.2012C189.438 90.4164 189.214 90.5744 188.959 90.6511C188.703 90.7278 188.429 90.7191 188.179 90.6263C185.892 93.9615 183.606 97.4904 182.066 101.397C182.3 101.52 182.482 101.722 182.579 101.967C182.676 102.213 182.682 102.485 182.595 102.734C183.932 103.353 185.283 103.92 186.62 104.482C186.653 104.365 186.71 104.257 186.789 104.165C186.867 104.072 186.965 103.998 187.075 103.947C187.185 103.896 187.304 103.869 187.426 103.868C187.547 103.868 187.667 103.893 187.777 103.943C189.076 100.164 191.358 96.5503 193.89 93.1537C193.78 93.1049 193.683 93.0309 193.606 92.9377C193.53 92.8445 193.477 92.7346 193.45 92.617C193.424 92.4993 193.426 92.3772 193.456 92.2604C193.485 92.1435 193.542 92.0353 193.621 91.9444C192.284 91.335 190.938 90.7633 189.601 90.2059L189.596 90.2012ZM189.18 97.9297C188.929 98.3948 188.515 98.7509 188.017 98.9304C187.52 99.1098 186.974 99.1001 186.483 98.9029C186.254 98.7939 186.05 98.6375 185.886 98.4441C185.722 98.2507 185.601 98.0247 185.53 97.781C185.459 97.5373 185.441 97.2814 185.477 97.0301C185.513 96.7789 185.601 96.5381 185.737 96.3236C186.013 95.8698 186.442 95.5299 186.948 95.3652C187.453 95.2006 188 95.2222 188.491 95.426C188.713 95.5322 188.91 95.6849 189.068 95.8738C189.226 96.0626 189.341 96.2832 189.407 96.5206C189.472 96.758 189.486 97.0066 189.447 97.2497C189.408 97.4929 189.317 97.7247 189.18 97.9297Z" fill="#48B961"/>
<path d="M188.49 97.3726L188.746 97.4907C188.708 97.5521 188.67 97.6135 188.637 97.6796L188.382 97.5615C188.254 97.7612 188.077 97.924 187.867 98.0339L187.697 97.8214C187.873 97.732 188.024 97.6006 188.136 97.4387L187.664 97.2261C187.456 97.4529 187.215 97.6985 186.898 97.5474C186.667 97.4387 186.558 97.1695 186.733 96.7915L186.478 96.6734C186.511 96.6073 186.549 96.5459 186.587 96.4845L186.842 96.6026C186.947 96.4366 187.089 96.2975 187.258 96.1963L187.428 96.3994C187.296 96.4835 187.181 96.5908 187.087 96.7159L187.56 96.9285C187.772 96.7018 188.032 96.4561 188.339 96.6073C188.561 96.7254 188.656 96.9899 188.49 97.3726ZM187.404 97.108L186.998 96.9191C186.927 97.0939 186.969 97.2025 187.069 97.2497C187.168 97.297 187.276 97.2261 187.394 97.108H187.404ZM188.183 96.9238C188.07 96.8718 187.957 96.9474 187.839 97.0655L188.24 97.2545C188.306 97.075 188.273 96.9663 188.174 96.9238H188.183Z" fill="#48B961"/>
<path d="M174.706 37.1597C174.455 32.0057 169.845 28.458 169.594 23.304L176.208 20.8711C176.463 26.0251 181.069 29.5728 181.324 34.7221L174.706 37.1597Z" fill="#EBEBEB"/>
<path d="M180.03 34.7929C180.002 34.5236 180.061 34.2527 180.198 34.0191C180.335 33.7856 180.542 33.6016 180.79 33.4937C179.992 29.483 176.799 26.3604 176.01 22.3497C175.9 22.3979 175.78 22.4189 175.661 22.4108C175.541 22.4027 175.425 22.3657 175.323 22.303C175.221 22.2403 175.135 22.1538 175.074 22.0508C175.012 21.9479 174.977 21.8316 174.97 21.7119L170.86 23.2283C170.888 23.497 170.83 23.7676 170.694 24.0011C170.558 24.2345 170.352 24.4188 170.104 24.5275C170.893 28.5382 174.087 31.6655 174.885 35.6763C174.994 35.6279 175.113 35.6068 175.233 35.6146C175.352 35.6225 175.467 35.6591 175.569 35.7213C175.67 35.7836 175.755 35.8696 175.817 35.972C175.878 36.0745 175.913 36.1902 175.92 36.3093L180.025 34.7929H180.03ZM173.676 29.5964C173.548 29.3848 173.469 29.147 173.445 28.9007C173.422 28.6544 173.454 28.406 173.54 28.174C173.626 27.9419 173.763 27.7322 173.941 27.5606C174.119 27.3889 174.334 27.2596 174.569 27.1824C175.083 27.014 175.639 27.0271 176.145 27.2198C176.651 27.4124 177.075 27.7727 177.347 28.2406C177.476 28.4516 177.556 28.6892 177.58 28.9355C177.604 29.1818 177.572 29.4304 177.487 29.6626C177.402 29.8949 177.265 30.1048 177.086 30.2766C176.908 30.4484 176.694 30.5776 176.458 30.6546C175.941 30.8226 175.382 30.8072 174.876 30.611C174.369 30.4148 173.945 30.0498 173.676 29.5775V29.5964Z" fill="#48B961"/>
<path d="M174.64 29.4449L174.366 29.5441L174.262 29.3599L174.531 29.256C174.424 29.0635 174.384 28.8407 174.418 28.6229H174.72C174.689 28.8024 174.714 28.987 174.791 29.152L175.263 28.9725C175.188 28.6938 175.126 28.3867 175.462 28.2639C175.613 28.2209 175.774 28.2312 175.919 28.2932C176.063 28.3551 176.182 28.4649 176.255 28.604L176.529 28.5048L176.638 28.6938L176.364 28.793C176.447 28.9531 176.486 29.1325 176.477 29.3127H176.208C176.215 29.1686 176.189 29.0247 176.132 28.8922L175.66 29.0764C175.736 29.3552 175.806 29.6622 175.466 29.7851C175.311 29.8378 175.141 29.8324 174.989 29.7698C174.837 29.7073 174.713 29.5919 174.64 29.4449ZM175.584 28.8733L176.014 28.7127C175.896 28.5615 175.773 28.5237 175.665 28.5615C175.556 28.5993 175.542 28.7269 175.575 28.8733H175.584ZM175.258 29.5063C175.377 29.4638 175.377 29.341 175.344 29.1898L174.914 29.3457C175.022 29.5063 175.145 29.5441 175.263 29.5063H175.258Z" fill="#48B961"/>
<path d="M40.83 98.2041C40.5749 93.0643 35.969 89.5024 35.7139 84.3484L42.3276 81.9155C42.5827 87.0695 47.1886 90.6125 47.4437 95.7665L40.83 98.2041Z" fill="#EBEBEB"/>
<path d="M46.1541 95.8373C46.1263 95.5686 46.1845 95.2981 46.3204 95.0646C46.4562 94.8311 46.6627 94.6468 46.91 94.5382C46.1163 90.5274 42.9229 87.4048 42.1292 83.3894C42.0199 83.4387 41.9003 83.4607 41.7806 83.4533C41.661 83.446 41.5449 83.4095 41.4425 83.3471C41.3401 83.2848 41.2545 83.1984 41.193 83.0954C41.1316 82.9925 41.0962 82.8761 41.0899 82.7563L36.98 84.2728C37.0078 84.5415 36.9496 84.812 36.8137 85.0455C36.6779 85.279 36.4714 85.4633 36.2241 85.5719C37.0178 89.5826 40.2112 92.71 41.0049 96.7207C41.1141 96.6713 41.2338 96.6494 41.3535 96.6568C41.4731 96.6641 41.5892 96.7006 41.6916 96.7629C41.794 96.8253 41.8796 96.9117 41.9411 97.0147C42.0025 97.1176 42.0379 97.234 42.0442 97.3537L46.1541 95.8373ZM39.7955 90.6408C39.6673 90.4292 39.5884 90.1915 39.5649 89.9452C39.5413 89.6989 39.5737 89.4505 39.6595 89.2184C39.7453 88.9864 39.8824 88.7767 40.0606 88.605C40.2387 88.4333 40.4533 88.304 40.6884 88.2268C41.2019 88.0596 41.7573 88.0734 42.2619 88.266C42.7664 88.4585 43.1898 88.8182 43.4614 89.285C43.5906 89.4961 43.6704 89.7336 43.6947 89.9799C43.7191 90.2262 43.6873 90.4748 43.6019 90.7071C43.5164 90.9393 43.3795 91.1492 43.2013 91.321C43.0232 91.4928 42.8085 91.622 42.5733 91.699C42.057 91.8658 41.499 91.8498 40.9932 91.6536C40.4873 91.4575 40.0644 91.0932 39.7955 90.6219V90.6408Z" fill="#48B961"/>
<path d="M40.7593 90.4898L40.4853 90.589L40.3813 90.4L40.6506 90.3008C40.5469 90.1071 40.5088 89.885 40.542 89.6678H40.8443C40.8109 89.8472 40.8357 90.0326 40.9152 90.1969L41.3876 90.0173C41.3073 89.7386 41.2459 89.4316 41.586 89.3087C41.7372 89.2648 41.899 89.2747 42.0437 89.3367C42.1884 89.3988 42.3071 89.5091 42.3796 89.6489L42.6536 89.5497L42.7576 89.7386L42.4883 89.8378C42.5734 89.9971 42.6111 90.1774 42.5969 90.3575H42.2993C42.3066 90.2134 42.2807 90.0696 42.2237 89.937L41.7513 90.1213C41.8316 90.3953 41.8978 90.7071 41.5624 90.8299C41.4098 90.8753 41.2462 90.8662 41.0997 90.8041C40.9531 90.7421 40.8328 90.6309 40.7593 90.4898ZM41.7041 89.9181L42.1387 89.7575C42.1045 89.6969 42.0512 89.6492 41.9872 89.6218C41.9231 89.5945 41.8519 89.5891 41.7844 89.6063C41.6616 89.6489 41.6616 89.7575 41.6946 89.9181H41.7041ZM41.3781 90.5512C41.5009 90.5086 41.5009 90.3858 41.4632 90.2299L41.0333 90.3905C41.1466 90.5512 41.2647 90.589 41.3687 90.5512H41.3781Z" fill="#48B961"/>
<path d="M57.7043 37.0556C55.9044 42.0254 49.6734 41.9262 47.6231 46.14C45.7051 44.4535 43.8439 42.8332 41.9873 41.3876C43.7825 36.4179 50.0182 36.5171 52.0685 32.3032C53.9817 34.0133 55.8714 35.5959 57.7043 37.0556Z" fill="#EBEBEB"/>
<path d="M52.9853 33.5645C52.7444 34.0085 52.1492 34.0038 51.7146 33.6164C49.4753 36.5359 44.9308 37.0177 42.8711 40.4285C43.0721 40.6067 43.2105 40.8448 43.2658 41.1077C43.3211 41.3705 43.2904 41.6442 43.1782 41.8883C44.334 42.8331 45.5087 43.8314 46.7023 44.8833C46.9432 44.444 47.5385 44.444 47.9684 44.8314C50.2076 41.9119 54.7521 41.43 56.8166 38.0192C56.6153 37.8423 56.4766 37.605 56.4213 37.3428C56.366 37.0805 56.3969 36.8074 56.5095 36.5642C55.3474 35.6194 54.1711 34.6211 52.9806 33.5692L52.9853 33.5645ZM51.3083 40.6506C50.4013 41.123 48.9463 40.8584 48.0723 40.0506C47.1983 39.2428 47.1275 38.161 48.0723 37.6886C49.0171 37.2162 50.4343 37.4807 51.313 38.2932C52.1917 39.1058 52.2106 40.1829 51.3083 40.66V40.6506Z" fill="#48B961"/>
<path d="M50.7178 39.871C50.8029 39.9466 50.8832 40.0175 50.9588 40.093L50.784 40.1875L50.543 39.9702C50.3219 40.0674 50.0796 40.1064 49.8391 40.0836L49.7163 39.8332C49.9183 39.8565 50.123 39.8289 50.3116 39.7529L49.8817 39.3608C49.7266 39.4246 49.5574 39.4459 49.3913 39.4227C49.2253 39.3994 49.0684 39.3324 48.9368 39.2285C48.879 39.1911 48.8323 39.1388 48.8017 39.077C48.7711 39.0152 48.7578 38.9464 48.7631 38.8777C48.7684 38.809 48.7922 38.743 48.8319 38.6866C48.8717 38.6303 48.9259 38.5858 48.9888 38.5577L48.7432 38.3357L48.918 38.2412L49.1589 38.4585C49.3388 38.3796 49.5342 38.3424 49.7305 38.3499L49.858 38.5955C49.6974 38.5927 49.5374 38.6183 49.3856 38.6711L49.825 39.0727C49.9789 39.0047 50.1486 38.9806 50.3154 39.0031C50.4821 39.0256 50.6394 39.0938 50.7698 39.2002C50.8263 39.2385 50.8717 39.2912 50.9014 39.3527C50.931 39.4143 50.9438 39.4826 50.9385 39.5507C50.9333 39.6188 50.9101 39.6843 50.8713 39.7406C50.8325 39.7968 50.7796 39.8418 50.7178 39.871ZM49.6029 39.1246L49.2156 38.7703C49.1902 38.786 49.1692 38.8078 49.1547 38.8339C49.1401 38.8599 49.1325 38.8893 49.1325 38.9191C49.1325 38.9489 49.1401 38.9783 49.1547 39.0043C49.1692 39.0304 49.1902 39.0523 49.2156 39.0679C49.2723 39.1045 49.3363 39.1285 49.4031 39.1383C49.4699 39.1481 49.5381 39.1434 49.6029 39.1246ZM50.5005 39.3655C50.4403 39.3247 50.3714 39.2983 50.2993 39.2885C50.2272 39.2787 50.1538 39.2856 50.0848 39.3089L50.4675 39.6584C50.6186 39.5545 50.6139 39.4506 50.5194 39.3655H50.5005Z" fill="#48B961"/>
<path d="M62.5466 107.34C60.7514 112.31 54.5157 112.211 52.4654 116.425C50.5758 114.738 48.6862 113.118 46.8296 111.672C48.6295 106.703 54.8605 106.802 56.9108 102.588C58.8287 104.274 60.7136 105.881 62.5466 107.34Z" fill="#EBEBEB"/>
<path d="M57.8271 103.849C57.5862 104.288 56.9957 104.288 56.5611 103.901C54.3219 106.821 49.7773 107.302 47.7129 110.713C47.9153 110.89 48.0551 111.128 48.1113 111.391C48.1675 111.654 48.1371 111.929 48.0247 112.173C49.1821 113.118 50.3584 114.129 51.5488 115.168C51.785 114.729 52.3803 114.729 52.8149 115.116C55.0494 112.197 59.5987 111.71 61.6584 108.304C61.4571 108.127 61.3184 107.89 61.2631 107.627C61.2078 107.365 61.2387 107.092 61.3513 106.849C60.1955 105.904 59.0207 104.906 57.8271 103.854V103.849ZM56.1501 110.935C55.2478 111.408 53.788 111.143 52.9188 110.335C52.0496 109.527 51.974 108.446 52.9188 107.973C53.8636 107.501 55.2809 107.765 56.1548 108.578C57.0288 109.39 57.0524 110.468 56.1501 110.945V110.935Z" fill="#48B961"/>
<path d="M55.5645 110.156L55.8054 110.378C55.744 110.406 55.6873 110.439 55.6306 110.472L55.3897 110.25C55.1676 110.35 54.9235 110.39 54.6811 110.368C54.6433 110.283 54.6008 110.203 54.563 110.118C54.765 110.141 54.9695 110.113 55.1582 110.038L54.7236 109.645C54.5682 109.709 54.3987 109.729 54.2326 109.705C54.0666 109.681 53.9099 109.613 53.7788 109.508C53.7221 109.471 53.6765 109.419 53.6468 109.357C53.617 109.296 53.6041 109.228 53.6093 109.16C53.6146 109.092 53.638 109.027 53.6769 108.971C53.7158 108.915 53.7689 108.871 53.8308 108.842L53.5898 108.62L53.7646 108.526L54.0056 108.743C54.1841 108.665 54.3775 108.626 54.5724 108.63C54.615 108.715 54.6622 108.795 54.7047 108.875C54.5437 108.874 54.3837 108.901 54.2323 108.956L54.6669 109.353C54.822 109.289 54.9912 109.267 55.1573 109.291C55.3233 109.314 55.4802 109.381 55.6117 109.485C55.6685 109.523 55.7141 109.575 55.7442 109.636C55.7742 109.698 55.7875 109.766 55.7827 109.834C55.7779 109.902 55.7552 109.968 55.7169 110.024C55.6785 110.081 55.626 110.126 55.5645 110.156ZM54.4638 109.405L54.0811 109.055C53.9489 109.159 53.963 109.263 54.0811 109.353C54.1377 109.388 54.201 109.411 54.2669 109.419C54.3329 109.428 54.4 109.423 54.4638 109.405ZM55.3614 109.65C55.3021 109.607 55.2332 109.58 55.1606 109.57C55.0881 109.56 55.0142 109.568 54.9456 109.594L55.3283 109.943C55.4606 109.839 55.4559 109.735 55.3614 109.65Z" fill="#48B961"/>
<path d="M147.797 58.2003L147.561 58.2995C147.538 58.2239 147.509 58.1483 147.481 58.068L147.712 57.9688C147.63 57.7243 147.605 57.4638 147.642 57.2082L147.897 57.2413C147.865 57.4513 147.879 57.6657 147.939 57.8696L148.35 57.6901C148.298 57.3547 148.256 56.9862 148.549 56.8633C148.761 56.7689 149.021 56.9011 149.201 57.3358L149.432 57.2318L149.517 57.4633L149.286 57.5625C149.351 57.7652 149.377 57.9785 149.361 58.1908L149.111 58.1625C149.121 57.9938 149.103 57.8247 149.059 57.6617L148.643 57.8412C148.695 58.1766 148.747 58.5498 148.459 58.6727C148.246 58.7577 147.986 58.6254 147.797 58.2003ZM148.605 57.5861L148.974 57.4255C148.879 57.2366 148.775 57.1799 148.686 57.2224C148.596 57.2649 148.582 57.4066 148.605 57.5861ZM148.308 58.3136C148.412 58.2711 148.416 58.1247 148.388 57.9404L148.024 58.1011C148.119 58.2947 148.223 58.3514 148.308 58.3136Z" fill="#48B961"/>
<path d="M75.4484 52.546C75.4767 52.6215 75.5003 52.7066 75.5287 52.7869L75.3114 52.8341C75.283 52.7538 75.2594 52.6735 75.2358 52.5932C75.0002 52.6409 74.7564 52.6279 74.5272 52.5554C74.5272 52.4751 74.5602 52.3948 74.5744 52.3097C74.7627 52.3737 74.9636 52.3915 75.1602 52.3617C75.113 52.22 75.0657 52.0735 75.0232 51.9318C74.7067 51.9318 74.3666 51.9318 74.2674 51.6248C74.2012 51.4027 74.3382 51.1524 74.7398 51.0532C74.7161 50.9728 74.6878 50.8925 74.6642 50.8075L74.8815 50.7603C74.8815 50.8406 74.9334 50.9209 74.9571 51.0012C75.1489 50.9631 75.3463 50.9631 75.5381 51.0012C75.5381 51.0815 75.5381 51.1618 75.5003 51.2421C75.344 51.2157 75.1843 51.2157 75.0279 51.2421C75.0705 51.3886 75.1177 51.5303 75.1649 51.6767C75.4767 51.6767 75.8263 51.6767 75.9161 51.9696C75.9964 52.1822 75.8546 52.4373 75.4484 52.546ZM74.9382 51.672C74.9004 51.5445 74.8579 51.4122 74.8201 51.2894C74.6358 51.3508 74.5791 51.4452 74.6122 51.5397C74.6453 51.6342 74.7728 51.6673 74.9382 51.672ZM75.5948 52.0594C75.5618 51.9507 75.4248 51.9318 75.2547 51.9271C75.2972 52.0547 75.335 52.1822 75.3775 52.3097C75.5854 52.2436 75.6232 52.1491 75.5854 52.0594H75.5948Z" fill="#48B961"/>
<path d="M121.584 38.8981L121.38 39.054L121.262 38.8698L121.461 38.7139C121.337 38.5093 121.265 38.2772 121.253 38.0383L121.499 37.9958C121.505 38.1944 121.559 38.3886 121.654 38.5627L122.013 38.2887C121.9 37.9958 121.791 37.6698 122.042 37.4762C122.292 37.2825 122.514 37.3864 122.741 37.7265L122.944 37.5706L123.062 37.7596L122.864 37.9108C122.961 38.0813 123.026 38.2689 123.053 38.4635L122.812 38.506C122.788 38.3514 122.74 38.2016 122.67 38.062L122.311 38.3407C122.424 38.6336 122.543 38.9595 122.311 39.1485C122.08 39.3374 121.839 39.2382 121.584 38.8981ZM122.226 38.1186L122.547 37.8777C122.424 37.7265 122.316 37.7076 122.236 37.7643C122.155 37.821 122.174 37.9627 122.226 38.1186ZM122.089 38.865C122.174 38.7989 122.15 38.6666 122.089 38.506L121.773 38.7469C121.905 38.9028 122.009 38.9265 122.089 38.865Z" fill="#48B961"/>
<path d="M136.417 87.7072L136.167 87.7497C136.167 87.6741 136.167 87.5985 136.167 87.5277L136.417 87.4851C136.406 87.2455 136.455 87.007 136.559 86.7907L136.795 86.8757C136.705 87.0511 136.658 87.2455 136.658 87.4426L137.107 87.3718C137.144 87.06 137.206 86.7246 137.518 86.6726C137.744 86.6348 137.952 86.8049 138.014 87.2253L138.264 87.1875V87.4096L138.018 87.4473C138.025 87.6438 137.993 87.8397 137.924 88.0237L137.688 87.9481C137.745 87.7971 137.775 87.6372 137.777 87.4757L137.329 87.5513C137.286 87.8631 137.239 88.2032 136.927 88.2552C136.696 88.2977 136.483 88.1276 136.417 87.7072ZM137.362 87.3292L137.759 87.2631C137.721 87.0741 137.636 87.008 137.536 87.0222C137.437 87.0364 137.385 87.1639 137.357 87.3292H137.362ZM136.889 87.9198C136.998 87.9198 137.04 87.7733 137.069 87.6032L136.672 87.6647C136.7 87.8678 136.781 87.9339 136.875 87.9198H136.889Z" fill="#48B961"/>
<path d="M118.102 176C168.688 176 209.697 173.606 209.697 170.652C209.697 167.699 168.688 165.305 118.102 165.305C67.5153 165.305 26.5068 167.699 26.5068 170.652C26.5068 173.606 67.5153 176 118.102 176Z" fill="#F5F5F5"/>
<path d="M81.2163 32.7897C76.6954 30.2576 72.5571 24.7966 68.9951 23.6203C70.1211 21.2829 71.4406 19.0438 72.9397 16.9263C76.5017 20.3796 80.64 26.45 85.1609 26.091C84.0319 28.4283 82.7126 30.6687 81.2163 32.7897Z" fill="#5F05DB"/>
<path opacity="0.5" d="M81.2163 32.7897C76.6954 30.2576 72.5571 24.7966 68.9951 23.6203C70.1211 21.2829 71.4406 19.0438 72.9397 16.9263C76.5017 20.3796 80.64 26.45 85.1609 26.091C84.0319 28.4283 82.7126 30.6687 81.2163 32.7897Z" fill="white"/>
<path opacity="0.2" d="M84.0881 27.5364C83.6157 27.4797 83.4598 26.9601 83.7527 26.4404C80.1057 25.6562 76.7233 21.2439 73.7188 18.2158C73.6452 18.3083 73.5524 18.3837 73.4469 18.4368C73.3413 18.4899 73.2255 18.5195 73.1074 18.5236C72.9893 18.5276 72.8717 18.506 72.7628 18.4602C72.6538 18.4144 72.5561 18.3455 72.4764 18.2583C71.5872 19.5648 70.7657 20.9161 70.0151 22.3069C70.2119 22.4742 70.3386 22.7094 70.3701 22.9658C70.4016 23.2222 70.3356 23.481 70.1852 23.691C73.1944 25.2972 76.5721 29.3599 80.2239 31.8022C80.3995 31.6102 80.6336 31.4815 80.8899 31.4363C81.1462 31.391 81.4103 31.4316 81.6411 31.5519C82.5278 30.2545 83.3477 28.9127 84.0976 27.5317L84.0881 27.5364ZM75.6132 26.4546C74.7156 25.6184 74.5077 24.3288 75.1124 23.5729C75.7171 22.8171 76.9123 22.9682 77.8099 23.8327C78.7074 24.6972 78.9625 25.9302 78.3578 26.6672C77.7532 27.4041 76.5296 27.3002 75.6132 26.4546Z" fill="#5F05DB"/>
<g opacity="0.2">
<path opacity="0.2" d="M76.2983 25.9825L76.1377 26.1762L75.9582 26.0108C76.0149 25.9447 76.0669 25.8786 76.1236 25.8171C75.9387 25.6349 75.7995 25.4115 75.7173 25.1652L75.9629 25.0802C76.0258 25.2844 76.134 25.4717 76.2795 25.6282L76.5676 25.2786C76.3692 25.0046 76.1661 24.6928 76.3692 24.4519C76.5723 24.211 76.8085 24.2771 77.1628 24.5747C77.2195 24.5133 77.2715 24.4472 77.3282 24.381L77.503 24.5511L77.3424 24.7448C77.491 24.8941 77.6097 25.0705 77.692 25.2644L77.4557 25.3589C77.3897 25.2021 77.2988 25.0569 77.1865 24.929L76.8936 25.2786C77.092 25.5526 77.3046 25.8644 77.1014 26.1053C76.8983 26.3462 76.6621 26.2943 76.2983 25.9825ZM76.7708 25.0707L77.0259 24.7637C76.8605 24.6361 76.7424 24.6361 76.681 24.7117C76.6196 24.7873 76.6479 24.9385 76.7471 25.0896L76.7708 25.0707ZM76.8369 25.8549C76.9077 25.7699 76.8369 25.6423 76.7377 25.4865L76.4826 25.7935C76.6338 25.9447 76.7471 25.9494 76.8133 25.8738L76.8369 25.8549Z" fill="#5F05DB"/>
</g>
<path d="M119.991 52.7818C115.834 55.021 109.542 55.3045 106.915 57.5295C105.597 55.2922 104.45 52.9581 103.485 50.5473C107.921 49.6025 114.7 49.6639 116.562 45.7949C117.879 48.0343 119.025 50.3699 119.991 52.7818Z" fill="#5F05DB"/>
<path opacity="0.5" d="M119.991 52.7818C115.834 55.021 109.542 55.3045 106.915 57.5295C105.597 55.2922 104.45 52.9581 103.485 50.5473C107.921 49.6025 114.7 49.6639 116.562 45.7949C117.879 48.0343 119.025 50.3699 119.991 52.7818Z" fill="white"/>
<path opacity="0.2" d="M117.19 47.5099C116.916 47.8689 116.434 47.6941 116.165 47.165C113.803 49.6782 108.72 49.9522 104.874 50.6703C104.916 50.7744 104.934 50.8863 104.928 50.9982C104.922 51.1102 104.891 51.2193 104.838 51.318C104.785 51.4167 104.71 51.5025 104.62 51.5694C104.53 51.6362 104.427 51.6825 104.317 51.7049C104.884 53.0465 105.545 54.4543 106.358 55.9565C106.726 55.7723 107.26 56.0605 107.539 56.6037C110.241 55.0684 115.055 54.6055 118.739 53.0323C118.67 52.7958 118.678 52.5432 118.763 52.3117C118.848 52.0803 119.006 51.8824 119.212 51.7474C118.65 50.4105 117.993 49.0074 117.19 47.4957V47.5099ZM112.315 53.7598C111.818 53.897 111.288 53.849 110.824 53.6248C110.36 53.4006 109.993 53.0155 109.792 52.541C109.476 51.6246 110.165 50.7459 111.28 50.505C112.395 50.264 113.491 50.7506 113.789 51.6576C114.086 52.5647 113.411 53.5095 112.315 53.7598Z" fill="#5F05DB"/>
<g opacity="0.2">
<path opacity="0.2" d="M112.281 52.9475C112.31 53.0278 112.333 53.1081 112.357 53.1884L112.14 53.2404C112.14 53.1601 112.088 53.0798 112.064 52.9994C111.828 53.0442 111.585 53.0312 111.355 52.9617C111.355 52.8766 111.389 52.7963 111.407 52.716C111.594 52.7805 111.794 52.7967 111.988 52.7632C111.946 52.6215 111.899 52.4798 111.851 52.3334C111.54 52.3334 111.195 52.3334 111.1 52.0263C111.029 51.809 111.166 51.5775 111.573 51.4547C111.544 51.3744 111.521 51.2941 111.492 51.2137L111.714 51.1665C111.714 51.2468 111.762 51.3271 111.79 51.4074C111.982 51.3673 112.18 51.3673 112.371 51.4074L112.329 51.6484C112.172 51.6219 112.013 51.6219 111.856 51.6484C111.903 51.7901 111.951 51.9365 111.993 52.083C112.31 52.083 112.655 52.083 112.749 52.3759C112.829 52.5837 112.688 52.8199 112.281 52.9475ZM111.771 52.0735C111.729 51.946 111.691 51.8184 111.648 51.6909C111.469 51.757 111.412 51.8515 111.44 51.946C111.469 52.0405 111.606 52.0688 111.771 52.0735ZM112.423 52.4609C112.39 52.357 112.258 52.3334 112.088 52.3334C112.125 52.4609 112.168 52.5885 112.206 52.7113C112.395 52.6451 112.433 52.5554 112.433 52.4609H112.423Z" fill="#5F05DB"/>
</g>
<path d="M153.972 23.0156C149.068 24.669 144.245 26.7146 140.593 29.9033C139.299 27.9853 137.967 26.0343 136.752 23.9888C140.839 20.8662 145.605 18.8962 150.131 17.1011C151.425 19.019 152.758 20.9701 153.972 23.0156Z" fill="#5F05DB"/>
<path opacity="0.5" d="M153.972 23.0156C149.068 24.669 144.245 26.7146 140.593 29.9033C139.299 27.9853 137.967 26.0343 136.752 23.9888C140.839 20.8662 145.605 18.8962 150.131 17.1011C151.425 19.019 152.758 20.9701 153.972 23.0156Z" fill="white"/>
<path opacity="0.2" d="M150.509 18.3244C150.258 18.4167 149.984 18.4247 149.728 18.3471C149.472 18.2695 149.249 18.1106 149.092 17.8945C145.341 19.411 141.486 21.088 138.047 23.4926C138.175 23.7253 138.215 23.9963 138.161 24.2564C138.106 24.5164 137.96 24.7483 137.749 24.9098C138.524 26.1617 139.332 27.3805 140.139 28.5851C140.231 28.5062 140.339 28.4481 140.456 28.4148C140.572 28.3815 140.695 28.3738 140.815 28.3922C140.934 28.4106 141.049 28.4546 141.15 28.5214C141.251 28.5881 141.337 28.6759 141.401 28.7788C144.585 26.3223 148.487 24.5933 152.455 23.1619C152.39 23.06 152.35 22.9442 152.338 22.8239C152.326 22.7036 152.343 22.5822 152.386 22.4695C152.43 22.3569 152.5 22.256 152.59 22.1752C152.68 22.0944 152.787 22.0359 152.904 22.0045C152.129 20.7573 151.317 19.5385 150.513 18.3339L150.509 18.3244ZM145.898 24.5366C145.431 24.7853 144.889 24.8534 144.375 24.728C143.861 24.6025 143.411 24.2922 143.111 23.8563C142.98 23.6389 142.898 23.3963 142.868 23.1446C142.838 22.8929 142.862 22.6377 142.937 22.3958C143.013 22.1539 143.14 21.9308 143.308 21.7412C143.476 21.5516 143.683 21.3999 143.914 21.2959C144.398 21.0571 144.953 21.0027 145.474 21.1426C145.996 21.2825 146.449 21.6073 146.748 22.0564C146.875 22.271 146.954 22.5105 146.979 22.7584C147.004 23.0063 146.976 23.2567 146.895 23.4925C146.814 23.7282 146.683 23.9436 146.511 24.1238C146.339 24.3041 146.13 24.4449 145.898 24.5366Z" fill="#5F05DB"/>
<g opacity="0.2">
<path opacity="0.2" d="M145.624 23.6864L145.77 23.9273L145.572 24.0218L145.425 23.7856C145.209 23.8866 144.969 23.9274 144.731 23.9037C144.731 23.814 144.731 23.7195 144.707 23.6297C144.903 23.6548 145.101 23.6288 145.284 23.5541C145.199 23.4077 145.109 23.266 145.019 23.1242C144.717 23.1998 144.386 23.266 144.207 22.9684C144.07 22.751 144.131 22.4676 144.485 22.2503L144.334 22.0046L144.533 21.9102L144.679 22.1464C144.858 22.0696 145.052 22.034 145.246 22.0424C145.246 22.1275 145.27 22.2172 145.284 22.307C145.123 22.301 144.963 22.325 144.811 22.3778L145.076 22.8125C145.378 22.7416 145.718 22.6755 145.903 22.9731C146.044 23.1904 145.973 23.4644 145.624 23.6864ZM144.863 22.8644L144.627 22.4818C144.471 22.5904 144.448 22.7038 144.504 22.7983C144.561 22.8928 144.698 22.8975 144.863 22.8644ZM145.614 23.1384C145.548 23.0345 145.411 23.0392 145.246 23.0723L145.477 23.4502C145.638 23.3416 145.671 23.2329 145.614 23.1479V23.1384Z" fill="#5F05DB"/>
</g>
<path d="M67.6391 73.379C64.0677 69.6564 58.2618 70.006 54.6904 66.2928C55.8148 64.2394 56.9407 62.1845 58.0681 60.1279C61.6395 63.8505 67.4454 63.5056 71.0168 67.214C69.8925 69.2706 68.7666 71.3256 67.6391 73.379Z" fill="#5F05DB"/>
<path opacity="0.5" d="M67.6391 73.379C64.0677 69.6564 58.2618 70.006 54.6904 66.2928C55.8148 64.2394 56.9407 62.1845 58.0681 60.1279C61.6395 63.8505 67.4454 63.5056 71.0168 67.214C69.8925 69.2706 68.7666 71.3256 67.6391 73.379Z" fill="white"/>
<path opacity="0.2" d="M70.1053 68.1023C69.9066 67.9182 69.772 67.6754 69.721 67.4094C69.67 67.1435 69.7053 66.8681 69.8218 66.6236C66.5906 64.1199 62.131 63.86 58.8998 61.3516C58.8491 61.4601 58.7728 61.5547 58.6774 61.6271C58.582 61.6995 58.4703 61.7476 58.3521 61.7671C58.2339 61.7867 58.1128 61.7771 57.9991 61.7393C57.8855 61.7014 57.7828 61.6365 57.6999 61.55L55.5977 65.3954C55.7945 65.5797 55.9276 65.8218 55.9777 66.0868C56.0278 66.3518 55.9923 66.6258 55.8764 66.8693C59.1076 69.3778 63.5672 69.6376 66.7984 72.1461C66.8486 72.0372 66.9246 71.9421 67.0198 71.8693C67.115 71.7964 67.2265 71.7478 67.3448 71.7278C67.463 71.7078 67.5843 71.7169 67.6982 71.7544C67.8121 71.7919 67.9151 71.8566 67.9983 71.9429L70.1006 68.1023H70.1053ZM61.8854 68.3385C61.65 68.2624 61.4346 68.1344 61.2554 67.9638C61.0762 67.7932 60.9377 67.5845 60.8501 67.3531C60.7625 67.1217 60.7282 66.8735 60.7496 66.6271C60.7709 66.3806 60.8475 66.1421 60.9737 65.9292C61.2521 65.463 61.6828 65.107 62.193 64.9212C62.7032 64.7353 63.2619 64.7309 63.775 64.9088C64.0106 64.9831 64.2263 65.1097 64.4061 65.2792C64.5859 65.4486 64.725 65.6565 64.8131 65.8873C64.9013 66.118 64.9361 66.3657 64.915 66.6119C64.894 66.858 64.8176 67.0962 64.6915 67.3086C64.4142 67.7775 63.9834 68.1362 63.4721 68.3239C62.9607 68.5116 62.4001 68.5167 61.8854 68.3385Z" fill="#5F05DB"/>
<g opacity="0.2">
<path opacity="0.2" d="M62.5227 67.606C62.4802 67.691 62.433 67.7761 62.3857 67.8611L62.1826 67.7855L62.3196 67.5352C62.1132 67.4574 61.9375 67.3149 61.8188 67.1289L62.0551 66.9399C62.1505 67.0944 62.2905 67.2163 62.4566 67.2895C62.5369 67.1383 62.6219 66.9872 62.707 66.8171C62.466 66.6565 62.2346 66.4675 62.3905 66.151C62.4758 66.0187 62.6045 65.9204 62.7546 65.8729C62.9047 65.8255 63.0666 65.8319 63.2124 65.8912L63.3542 65.6313L63.5573 65.7069L63.4156 65.9573C63.5846 66.0225 63.7319 66.1338 63.8407 66.2786L63.614 66.4675C63.5242 66.3564 63.4114 66.2662 63.2833 66.203L63.0329 66.6754C63.2739 66.836 63.5053 67.025 63.3542 67.3415C63.2673 67.4746 63.1371 67.5737 62.9856 67.6219C62.8341 67.6701 62.6706 67.6645 62.5227 67.606ZM62.8534 66.562L63.0755 66.1557C62.8865 66.1179 62.7684 66.1557 62.7164 66.2738C62.6645 66.3919 62.7353 66.4675 62.8534 66.562ZM63.0282 67.2517C63.0896 67.1383 63.0282 67.0486 62.8818 66.9541L62.6597 67.3556C62.8534 67.3982 62.9715 67.3462 63.0282 67.2517Z" fill="#5F05DB"/>
</g>
<path d="M184.489 54.44C181.116 58.5121 175.305 56.3296 171.932 59.5845C170.699 57.35 169.466 55.2006 168.233 53.207C171.606 49.1349 177.417 51.3174 180.79 48.0625C182.023 50.297 183.256 52.437 184.489 54.44Z" fill="#5F05DB"/>
<path opacity="0.5" d="M184.489 54.44C181.116 58.5121 175.305 56.3296 171.932 59.5845C170.699 57.35 169.466 55.2006 168.233 53.207C171.606 49.1349 177.417 51.3174 180.79 48.0625C182.023 50.297 183.256 52.437 184.489 54.44Z" fill="white"/>
<path opacity="0.2" d="M181.225 49.5604C180.852 49.8958 180.28 49.6927 180.016 49.1777C176.921 51.1713 172.481 50.0895 169.391 52.6027C169.52 52.8385 169.569 53.1093 169.533 53.3754C169.496 53.6415 169.375 53.8889 169.188 54.0813C169.953 55.371 170.723 56.7126 171.493 58.0921C171.867 57.7566 172.438 57.9598 172.703 58.47C175.792 56.4764 180.233 57.5582 183.327 55.0498C183.197 54.8151 183.147 54.5447 183.184 54.279C183.22 54.0134 183.342 53.7667 183.53 53.5758C182.76 52.2909 181.99 50.9445 181.225 49.5651V49.5604ZM177.252 55.6733C176.241 55.8103 174.98 55.0781 174.418 54.0152C173.855 52.9523 174.191 51.9177 175.197 51.776C176.203 51.6343 177.474 52.3759 178.031 53.4388C178.589 54.5018 178.263 55.5316 177.252 55.6733Z" fill="#5F05DB"/>
<g opacity="0.2">
<path opacity="0.2" d="M176.963 54.7328L177.115 55.0209L176.921 55.0493L176.765 54.7611C176.523 54.7812 176.28 54.7372 176.061 54.6336L176.033 54.3548C176.214 54.4455 176.416 54.4893 176.619 54.4824L176.349 53.9675C176.184 53.9727 176.02 53.9345 175.874 53.8565C175.728 53.7786 175.605 53.6637 175.518 53.5234C175.477 53.4688 175.452 53.4042 175.445 53.3365C175.437 53.2688 175.448 53.2004 175.476 53.1383C175.504 53.0762 175.548 53.0227 175.603 52.9832C175.659 52.9438 175.724 52.9199 175.792 52.914L175.636 52.6211L175.834 52.5928L175.986 52.8809C176.182 52.867 176.378 52.8961 176.562 52.966C176.562 53.0605 176.586 53.1502 176.6 53.24C176.449 53.1834 176.288 53.1561 176.127 53.1597L176.406 53.6793C176.571 53.6736 176.734 53.7111 176.88 53.7882C177.026 53.8653 177.149 53.9792 177.237 54.1186C177.278 54.1737 177.303 54.2385 177.31 54.3064C177.317 54.3743 177.306 54.4428 177.279 54.5052C177.251 54.5675 177.207 54.6214 177.152 54.6614C177.096 54.7013 177.031 54.726 176.963 54.7328ZM176.208 53.6557L175.962 53.1833C175.806 53.24 175.782 53.3439 175.844 53.4573C175.883 53.5177 175.937 53.5674 176.001 53.6021C176.064 53.6367 176.135 53.6551 176.208 53.6557ZM176.973 54.1848C176.93 54.1259 176.874 54.0777 176.809 54.0441C176.744 54.0105 176.673 53.9924 176.6 53.9911L176.841 54.4635C176.978 54.3974 177.006 54.2982 176.949 54.1848H176.973Z" fill="#5F05DB"/>
</g>
<path d="M163.925 86.2236C150.439 112.232 132.551 135.708 111.053 155.611L78.0273 130.441C99.54 110.542 117.441 87.0657 130.937 61.0537L163.925 86.2236Z" fill="#5F05DB"/>
<path opacity="0.2" d="M163.925 86.2236C162.817 88.3683 161.673 90.4941 160.495 92.6011C147.458 116.091 130.769 137.36 111.053 155.611L78.0273 130.441C99.54 110.542 117.441 87.0657 130.937 61.0537L163.925 86.2236Z" fill="#9400FF"/>
<path opacity="0.2" d="M136.1 67.7759C135.786 68.4121 135.332 68.9692 134.772 69.4058C134.213 69.8425 133.562 70.1475 132.869 70.2982C132.175 70.4489 131.457 70.4414 130.766 70.2762C130.076 70.1111 129.432 69.7926 128.882 69.3443C117.172 90.2957 102.549 109.479 85.4487 126.321C86.0303 126.73 86.5115 127.265 86.8562 127.886C87.2009 128.508 87.4001 129.199 87.4388 129.909C87.4774 130.618 87.3546 131.327 87.0794 131.982C86.8042 132.638 86.384 133.222 85.8503 133.691L106.433 149.38C107.59 148.325 109.073 147.699 110.636 147.604C112.198 147.51 113.746 147.953 115.021 148.86C132.123 132.019 146.747 112.835 158.455 91.8828C155.974 89.9932 155.214 86.2423 156.683 83.4645L156.707 83.422L136.119 67.7334L136.1 67.7759ZM132.321 117.629C128.433 122.717 120.945 123.534 115.876 119.67C110.808 115.806 110.052 108.71 113.944 103.608C117.837 98.506 124.89 97.3722 129.968 101.246C135.047 105.12 136.237 112.541 132.34 117.629H132.321Z" fill="black"/>
<g opacity="0.8">
<path d="M128.788 113.378L130.153 114.417L129.388 115.418L128.022 114.374C127.035 115.518 125.745 116.368 124.715 116.576L123.912 115.097C124.995 114.804 125.971 114.206 126.723 113.373L124.286 111.516C122.925 112.622 121.352 113.727 119.661 112.433C118.418 111.488 118.045 109.773 119.321 107.732L117.946 106.684C118.201 106.353 118.456 106.017 118.706 105.682L120.057 106.712C120.758 105.865 121.655 105.202 122.67 104.78L123.525 106.225C122.713 106.567 121.981 107.074 121.375 107.713L123.832 109.603C125.193 108.493 126.723 107.321 128.414 108.611C129.652 109.542 130.049 111.29 128.788 113.378ZM122.826 110.397L120.657 108.743C120.128 109.712 120.279 110.411 120.818 110.817C121.357 111.223 122.065 110.945 122.826 110.397ZM127.361 110.26C126.766 109.787 126.081 110.132 125.315 110.732L127.47 112.376C128.022 111.356 127.876 110.661 127.351 110.26H127.361Z" fill="white"/>
</g>
<path opacity="0.2" d="M160.51 92.5913C147.468 116.086 130.775 137.358 111.053 155.61C111.053 155.61 97.0608 134.262 91.2549 130.294C91.2549 130.294 136.332 113.566 160.51 92.5913Z" fill="black"/>
<path d="M195.463 120.969C173.494 140.355 148.333 155.789 121.097 166.589L99.3662 131.197C126.602 120.398 151.761 104.963 173.728 85.5762C180.978 97.3769 188.223 109.174 195.463 120.969Z" fill="#5F05DB"/>
<path opacity="0.3" d="M195.463 120.969C173.493 140.355 148.333 155.79 121.097 166.589L111.71 151.293C107.616 144.6 103.507 137.903 99.3848 131.201C126.62 120.403 151.78 104.968 173.746 85.5811C180.984 97.3786 188.223 109.175 195.463 120.969Z" fill="#9400FF"/>
<path opacity="0.2" d="M176.156 93.7156C175.636 94.2005 175.014 94.5613 174.335 94.7706C173.656 94.98 172.938 95.0325 172.236 94.9243C171.533 94.816 170.865 94.5498 170.28 94.1457C169.696 93.7416 169.211 93.2101 168.862 92.5913C150.378 107.904 129.815 120.517 107.789 130.053C108.184 130.644 108.44 131.316 108.538 132.02C108.635 132.724 108.571 133.441 108.351 134.117C108.131 134.792 107.76 135.409 107.266 135.92C106.773 136.432 106.17 136.824 105.502 137.068L119.046 159.111C120.506 158.546 122.115 158.497 123.606 158.973C125.097 159.45 126.381 160.422 127.243 161.728C149.271 152.195 169.834 139.582 188.315 124.266C186.681 121.611 187.328 117.837 189.7 115.763L189.737 115.73L176.208 93.6826L176.156 93.7156ZM154.661 138.849C149.195 142.194 141.906 140.267 138.599 134.82C135.292 129.373 137.125 122.495 142.591 119.155C148.057 115.815 155.049 117.265 158.388 122.731C161.728 128.197 160.146 135.514 154.661 138.849Z" fill="black"/>
<g opacity="0.8">
<path d="M152.885 133.592L153.782 135.056L152.705 135.713C152.412 135.24 152.115 134.768 151.817 134.267C150.485 134.971 148.983 135.302 147.929 135.122C147.858 134.565 147.787 134.007 147.712 133.45C148.827 133.567 149.952 133.36 150.953 132.855C150.42 131.985 149.888 131.116 149.356 130.247C147.684 130.785 145.822 131.244 144.707 129.43C143.89 128.097 144.159 126.364 146.087 124.923L145.184 123.449L146.257 122.788L147.145 124.238C148.104 123.701 149.179 123.406 150.277 123.378C150.372 123.931 150.461 124.484 150.556 125.032C149.674 125.062 148.808 125.271 148.009 125.646L149.625 128.282C151.297 127.738 153.145 127.2 154.255 129.009C155.072 130.341 154.807 132.113 152.885 133.592ZM148.387 128.669C147.912 127.894 147.439 127.12 146.97 126.345C146.125 127.058 146.025 127.762 146.37 128.338C146.715 128.915 147.49 128.91 148.387 128.669ZM152.663 130.181C152.271 129.538 151.515 129.6 150.594 129.86L152.011 132.17C152.88 131.437 153.008 130.738 152.663 130.181Z" fill="white"/>
</g>
<path opacity="0.2" d="M195.463 120.969C173.494 140.355 148.333 155.79 121.097 166.59L111.71 151.293L110.071 127.592C110.071 127.592 162.177 131.353 195.463 120.969Z" fill="black"/>
<path d="M201.765 166.84C173.247 173.559 143.781 175.29 114.672 171.956C113.866 158.14 113.056 144.322 112.244 130.502C141.358 133.843 170.832 132.112 199.356 125.386C200.152 139.206 200.955 153.024 201.765 166.84Z" fill="#5F05DB"/>
<path opacity="0.4" d="M201.765 166.84C173.247 173.559 143.781 175.29 114.672 171.956C113.866 158.14 113.056 144.322 112.244 130.502C141.358 133.843 170.832 132.112 199.356 125.386C200.152 139.206 200.955 153.024 201.765 166.84Z" fill="#9400FF"/>
<path opacity="0.2" d="M197.617 133.691C196.93 133.867 196.211 133.885 195.516 133.745C194.82 133.605 194.165 133.31 193.599 132.882C193.033 132.454 192.571 131.904 192.247 131.273C191.923 130.642 191.745 129.946 191.726 129.236C168.203 134.008 144.122 135.415 120.204 133.417C120.273 134.124 120.181 134.838 119.934 135.505C119.687 136.171 119.292 136.773 118.779 137.264C118.266 137.756 117.648 138.125 116.972 138.343C116.296 138.561 115.579 138.623 114.875 138.524C115.382 147.137 115.886 155.751 116.387 164.365C117.941 164.554 119.383 165.27 120.473 166.393C121.563 167.517 122.235 168.98 122.377 170.539C146.295 172.537 170.376 171.129 193.899 166.358C193.715 163.245 196.068 160.217 199.134 159.527H199.181L197.664 133.691H197.617ZM157.359 163.335C150.962 163.698 145.463 158.554 145.076 152.191C144.689 145.827 149.597 140.631 155.993 140.267C162.39 139.903 167.855 144.519 168.229 150.882C168.602 157.245 163.75 162.98 157.359 163.335Z" fill="black"/>
<g opacity="0.8">
<path d="M158.256 157.86L158.356 159.57L157.099 159.645L157 157.949C155.641 157.987 154.303 157.61 153.164 156.867C153.367 156.343 153.565 155.819 153.764 155.294C154.692 155.921 155.78 156.27 156.9 156.301C156.844 155.28 156.784 154.261 156.721 153.244C154.997 152.928 153.135 152.455 153.013 150.329C152.923 148.77 153.981 147.372 156.357 147.023L156.258 145.298L157.515 145.223L157.614 146.919C158.713 146.893 159.8 147.141 160.779 147.641L160.24 149.229C159.45 148.837 158.589 148.612 157.708 148.567L157.893 151.657C159.617 151.964 161.502 152.361 161.629 154.491C161.738 156.027 160.67 157.467 158.256 157.86ZM156.617 151.392C156.56 150.488 156.507 149.583 156.456 148.676C155.375 148.903 154.949 149.474 154.987 150.15C155.025 150.825 155.729 151.17 156.636 151.392H156.617ZM159.674 154.746C159.631 154 158.937 153.693 158.001 153.49L158.157 156.197C159.286 155.956 159.73 155.422 159.674 154.746Z" fill="white"/>
</g>
<path d="M133.949 166.627C134.072 168.041 134.218 169.479 134.388 170.94H35.041C38.1495 144.679 35.041 133.294 35.041 133.294C68.2418 130.795 134.388 133.294 134.388 133.294C134.388 133.294 132.39 145.945 133.736 164.062C133.799 164.903 133.87 165.758 133.949 166.627Z" fill="#5F05DB"/>
<path opacity="0.2" d="M134.388 133.294C130.037 135.325 108.755 135.613 96.5106 134.853C84.2658 134.092 68.2418 136.412 68.2418 136.412C58.9637 133.209 35.041 133.294 35.041 133.294C68.2418 130.795 134.388 133.294 134.388 133.294Z" fill="white"/>
<path opacity="0.2" d="M35.041 170.94C38.1495 144.679 35.041 133.294 35.041 133.294C35.041 133.294 54.7357 132.864 68.2418 136.412C68.2418 136.412 68.7142 140.418 68.2418 142.477C68.2418 142.477 84.4879 139.841 98.9483 140.191C98.9483 140.191 76.5656 142.765 68.2418 144.679C68.2418 144.679 54.8538 142.591 46.3835 142.477C46.3835 142.477 63.9949 144.768 68.2418 146.138C68.2418 146.138 73.2776 145.222 75.9137 145.222C75.9137 145.222 69.6071 146.37 68.2418 147.395V154.651C68.2418 154.651 54.183 154.93 47.1299 153.924C50.4793 154.448 64.1366 156.55 68.2418 156.55C68.2418 156.55 83.7556 155.979 92.7644 156.55C92.7644 156.55 72.2384 157.731 68.2418 158.686H50.621L68.2418 160.164V161.633H75.8003L68.2418 162.937C68.2418 162.937 46.3835 161.548 40.0958 162.937C40.0958 162.937 65.8939 164.109 68.2134 165.021L68.2418 167.194C68.2418 167.194 97.172 163.372 122.758 166.66C122.758 166.66 85.3949 165.176 68.2418 169.334C68.2418 169.334 121.912 168.167 134.379 170.94H35.041Z" fill="black"/>
<path d="M35.6219 136.412L33 137.328C33 137.328 48.7926 137.871 58.9824 139.43C58.9729 139.43 43.2749 136.638 35.6219 136.412Z" fill="#5F05DB"/>
<path opacity="0.2" d="M70.542 139.43L74.5386 140.191C74.5386 140.191 93.1467 138.169 115.142 137.923C115.142 137.923 83.3726 136.383 70.542 139.43Z" fill="white"/>
<path opacity="0.2" d="M83.1509 143.705C83.1509 143.705 94.3091 140.663 104.093 140.814C113.876 140.965 132.499 139.43 132.499 139.43L133.231 140.814C133.231 140.814 118.629 141.669 106.578 141.57C98.7208 141.585 90.8809 142.3 83.1509 143.705Z" fill="white"/>
<path opacity="0.2" d="M72.0776 148.255C72.0776 148.255 85.3806 145.42 98.4238 145.68C111.467 145.94 127.893 146.96 127.893 146.96C127.893 146.96 92.2447 146.96 83.1509 148.85L72.0776 148.255Z" fill="white"/>
<path d="M95.0884 144.135C95.0884 144.135 106.544 143.19 116.432 143.705C126.319 144.22 136.703 144.683 136.703 144.683L133.231 145.666C133.231 145.666 109.426 143.28 95.0884 144.135Z" fill="#5F05DB"/>
<path opacity="0.2" d="M95.0884 144.135C95.0884 144.135 106.544 143.19 116.432 143.705C126.319 144.22 136.703 144.683 136.703 144.683L133.231 145.666C133.231 145.666 109.426 143.28 95.0884 144.135Z" fill="black"/>
<path opacity="0.2" d="M72.5073 150.659C72.5073 150.659 92.3484 150.414 101.905 149.936C111.462 149.459 124.278 152.109 124.278 152.109C124.278 152.109 108.467 151.774 103.573 152.549L72.5073 150.659Z" fill="black"/>
<path opacity="0.2" d="M70.542 153.664L83.1505 152.549L110.012 153.664L82.8057 154.779L70.542 153.664Z" fill="white"/>
<path opacity="0.2" d="M79.9712 159.583C79.9712 159.583 98.3053 157.873 105.448 157.783C112.591 157.694 131.813 156.409 131.813 156.409L129.678 159.243C129.678 159.243 93.534 158.473 79.9712 159.583Z" fill="white"/>
<path d="M126.461 149.936L133.231 150.574L135.073 149.936C132.209 149.668 129.325 149.668 126.461 149.936Z" fill="#5F05DB"/>
<path d="M134.086 135.646L136.703 136.067L133.892 137.536L117.358 137.187C117.358 137.187 129.754 137.021 134.086 135.646Z" fill="#5F05DB"/>
<path opacity="0.2" d="M126.461 149.936L133.231 150.574L135.073 149.936C132.209 149.668 129.325 149.668 126.461 149.936Z" fill="white"/>
<path opacity="0.2" d="M134.086 135.646L136.703 136.067L133.892 137.536L117.358 137.187C117.358 137.187 129.754 137.021 134.086 135.646Z" fill="black"/>
<path opacity="0.2" d="M133.949 166.627C129.508 166.338 98.3906 162.427 98.3906 162.427C100.464 162.186 127.628 163.792 133.736 164.061C133.799 164.902 133.87 165.757 133.949 166.627Z" fill="black"/>
<path d="M87.0952 161.893C87.0952 161.893 116.191 161.818 124.515 162.418C132.838 163.018 133.585 161.893 133.585 161.893L137.733 163.891C137.733 163.891 137.945 165.876 127.028 164.491C116.11 163.107 87.0952 161.893 87.0952 161.893Z" fill="#5F05DB"/>
<path d="M63.3241 147.263C63.3241 147.263 46.2843 144.561 36.3496 145.25C37.8428 145.59 39.2337 146.28 40.4076 147.263H63.3241Z" fill="#5F05DB"/>
<path d="M36.3304 154.651C36.7178 154.609 49.0854 156.238 53.8095 156.409L34.5825 157.183L36.3304 154.651Z" fill="#5F05DB"/>
<path d="M35.6313 165.337L54.3103 165.998L33 167.576L35.6313 165.337Z" fill="#5F05DB"/>
<path d="M69.6634 132.018C69.6634 132.018 96.1938 136.553 111.58 118.398L140.567 125.839C140.567 125.839 135.234 136.903 95.1734 135.433C55.1133 133.964 69.6634 132.018 69.6634 132.018Z" fill="#5F05DB"/>
<path opacity="0.5" d="M69.6634 132.018C69.6634 132.018 96.1938 136.553 111.58 118.398L140.567 125.839C140.567 125.839 135.234 136.903 95.1734 135.433C55.1133 133.964 69.6634 132.018 69.6634 132.018Z" fill="white"/>
<path opacity="0.2" d="M84.8135 132.996C84.8135 132.996 101.031 132.141 110.201 121.767C111.042 122.027 111.943 122.029 112.785 121.771C113.628 121.513 114.373 121.008 114.925 120.321L136.084 125.929C136.084 125.929 133.807 126.727 134.605 129.363C134.586 129.363 106.813 140.616 84.8135 132.996Z" fill="black"/>
<path d="M109.02 80.3793L109.516 77.748C109.516 77.748 108.49 76.7748 108.609 75.8583C108.727 74.9419 113.29 73.4963 114.098 73.416C114.906 73.3357 114.599 76.6425 114.353 77.2425C114.107 77.8424 111.367 78.5652 111.367 78.5652L111.023 81.3383L109.02 80.3793Z" fill="#FFA8A7"/>
<path d="M56.4076 93.3141L54.5982 91.3394C54.5982 91.3394 54.9525 89.9741 54.3762 89.275C53.7999 88.5758 49.1467 89.7238 48.4286 90.097C47.7105 90.4702 49.7041 93.1015 50.2332 93.4794C50.7623 93.8573 53.4645 93.007 53.4645 93.007L55.2218 95.1848L56.4076 93.3141Z" fill="#FFA8A7"/>
<path d="M92.3906 89.0717C97.4785 88.7883 102.089 89.8512 104.456 89.0717C106.823 88.2922 109.119 78.4473 109.119 78.4473L111.608 79.2881C111.608 79.2881 110.663 89.5347 106.572 92.2793C102.481 95.024 93 95.0004 93 95.0004L92.3906 89.0717Z" fill="#5F05DB"/>
<path opacity="0.7" d="M111.608 79.2881C111.608 79.2881 110.663 89.5347 106.572 92.2793C104.21 93.8383 100.162 94.5044 97.0864 94.7926C94.7574 95.0051 93 95.0004 93 95.0004L92.7166 92.2321L92.3906 89.0717C97.4785 88.7883 102.089 89.8512 104.456 89.0717C106.823 88.2922 109.119 78.4473 109.119 78.4473L111.608 79.2881Z" fill="white"/>
<path opacity="0.2" d="M97.0866 94.7924C94.7576 95.005 93.0002 95.0002 93.0002 95.0002L92.7168 92.2319C94.3004 92.8474 95.7756 93.7117 97.0866 94.7924Z" fill="black"/>
<path d="M124.916 168.653L128.209 167.751L127.618 159.71L124.33 160.617L124.916 168.653Z" fill="#B97964"/>
<path d="M128.412 167.312L124.585 167.576C124.521 167.579 124.46 167.606 124.416 167.653C124.372 167.7 124.348 167.762 124.349 167.827L124.373 170.864C124.384 171.023 124.457 171.171 124.576 171.276C124.696 171.381 124.852 171.435 125.011 171.426C126.343 171.313 126.976 171.19 128.658 171.063C130.158 171.011 131.653 170.854 133.131 170.59C134.548 170.264 134.171 168.894 133.547 168.908C131.936 168.821 130.375 168.319 129.017 167.449C128.835 167.338 128.623 167.29 128.412 167.312Z" fill="#263238"/>
<path d="M129.659 167.808C129.352 167.822 129.045 167.803 128.743 167.751C128.727 167.749 128.713 167.742 128.701 167.732C128.689 167.722 128.681 167.709 128.676 167.694C128.674 167.679 128.675 167.664 128.679 167.649C128.683 167.634 128.69 167.621 128.7 167.609C128.804 167.524 129.725 166.801 130.155 166.934C130.204 166.949 130.247 166.977 130.282 167.014C130.317 167.051 130.341 167.097 130.354 167.146C130.387 167.219 130.398 167.301 130.386 167.38C130.374 167.46 130.34 167.534 130.287 167.595C130.111 167.739 129.887 167.815 129.659 167.808ZM130.108 167.099C129.881 167.028 129.333 167.354 128.955 167.633C129.574 167.708 130.018 167.661 130.169 167.491C130.2 167.45 130.219 167.402 130.226 167.352C130.232 167.301 130.226 167.25 130.207 167.203C130.199 167.179 130.187 167.158 130.169 167.14C130.152 167.122 130.131 167.108 130.108 167.099Z" fill="#263238"/>
<path d="M128.757 167.751C128.752 167.753 128.746 167.755 128.74 167.755C128.734 167.755 128.729 167.753 128.724 167.751C128.712 167.745 128.702 167.737 128.694 167.727C128.686 167.718 128.68 167.706 128.676 167.694C128.676 167.661 128.53 166.679 128.846 166.319C128.889 166.275 128.94 166.239 128.997 166.217C129.054 166.194 129.116 166.184 129.177 166.187C129.245 166.185 129.312 166.205 129.367 166.244C129.423 166.284 129.464 166.34 129.484 166.405C129.583 166.773 129.125 167.519 128.804 167.741C128.797 167.746 128.79 167.75 128.781 167.751C128.773 167.753 128.765 167.753 128.757 167.751ZM129.135 166.362C129.103 166.363 129.071 166.372 129.043 166.386C129.014 166.401 128.989 166.422 128.969 166.447C128.803 166.785 128.752 167.168 128.823 167.538C129.118 167.255 129.298 166.873 129.328 166.466C129.328 166.419 129.286 166.367 129.172 166.362H129.135Z" fill="#263238"/>
<path opacity="0.2" d="M124.33 160.618L127.623 159.715L127.958 164.312L124.647 165.049L124.33 160.618Z" fill="black"/>
<path d="M120.608 168.535L117.494 169.957L116.705 166.613L115.643 162.115L118.742 160.693L119.809 165.186L120.608 168.535Z" fill="#B97964"/>
<path opacity="0.2" d="M119.809 165.186L116.705 166.613L115.643 162.115L118.742 160.693L119.809 165.186Z" fill="black"/>
<path d="M120.735 168.072L117.003 168.946C116.94 168.958 116.885 168.993 116.849 169.045C116.812 169.098 116.798 169.162 116.809 169.225L117.32 172.224C117.335 172.303 117.365 172.377 117.41 172.443C117.454 172.509 117.511 172.566 117.577 172.61C117.644 172.654 117.718 172.684 117.796 172.699C117.875 172.714 117.955 172.713 118.033 172.697C119.332 172.371 119.922 172.149 121.576 171.752C123.05 171.472 124.503 171.087 125.922 170.599C127.25 170.056 126.678 168.762 126.068 168.875C124.623 169.135 122.459 168.663 121.344 168.148C121.155 168.055 120.941 168.029 120.735 168.072Z" fill="#263238"/>
<path d="M122.049 168.365C121.747 168.427 121.44 168.455 121.132 168.45C121.117 168.453 121.101 168.45 121.087 168.442C121.073 168.434 121.063 168.422 121.057 168.408C121.05 168.395 121.046 168.38 121.046 168.365C121.046 168.35 121.05 168.336 121.057 168.323C121.146 168.224 121.935 167.378 122.384 167.42C122.434 167.429 122.481 167.45 122.52 167.481C122.56 167.513 122.591 167.554 122.611 167.6C122.658 167.67 122.682 167.752 122.682 167.836C122.682 167.92 122.658 168.003 122.611 168.072C122.463 168.232 122.264 168.335 122.049 168.365ZM122.379 167.595C122.138 167.557 121.652 167.968 121.321 168.304C121.945 168.28 122.379 168.162 122.497 167.973C122.524 167.929 122.538 167.878 122.538 167.827C122.538 167.775 122.524 167.725 122.497 167.68C122.489 167.658 122.474 167.638 122.455 167.623C122.436 167.608 122.413 167.598 122.389 167.595H122.379Z" fill="#263238"/>
<path d="M121.146 168.45C121.142 168.452 121.137 168.453 121.132 168.453C121.127 168.453 121.122 168.452 121.118 168.45C121.105 168.446 121.093 168.439 121.084 168.43C121.074 168.421 121.066 168.41 121.061 168.398C121.061 168.37 120.749 167.415 121.009 167.014C121.043 166.963 121.087 166.92 121.14 166.888C121.192 166.856 121.251 166.836 121.311 166.83C121.379 166.816 121.449 166.825 121.511 166.856C121.573 166.887 121.622 166.937 121.652 167C121.808 167.345 121.477 168.157 121.179 168.417C121.178 168.425 121.174 168.433 121.168 168.438C121.162 168.444 121.154 168.448 121.146 168.45ZM121.297 167.033C121.235 167.049 121.181 167.087 121.146 167.141C121.038 167.504 121.048 167.891 121.174 168.247C121.421 167.921 121.54 167.516 121.51 167.108C121.51 167.061 121.448 167.014 121.335 167.028L121.297 167.033Z" fill="#263238"/>
<path d="M97.5401 122.877L96.5339 111.766L77.9825 112.201C77.9825 112.201 75.7858 127.682 77.3825 130.525C80.2169 135.604 98.9337 132.722 103.308 133.152C105.094 134.097 114.646 165.781 114.646 165.781L119.998 163.622C119.998 163.622 114.244 136.889 112.912 131.853C111.112 124.852 103.686 124.975 97.5401 122.877Z" fill="#27005D" fill-opacity="0.9"/>
<path d="M128.284 163.074L123.56 163.509C123.56 163.509 117.773 134.035 117.324 133.908C116.521 133.676 114.173 133.412 112.912 133.081C104.154 130.804 82.5835 126.614 82.5835 126.614L90.5388 118.951C90.5388 118.951 126.602 123.278 127.387 131.744C127.788 135.797 128.284 163.074 128.284 163.074Z" fill="#27005D" fill-opacity="0.9"/>
<path opacity="0.2" d="M116.054 133.932C115.246 133.7 114.164 133.417 112.912 133.086C113.262 133.27 112.251 128.683 111.24 127.497C109.232 125.135 101.173 123.85 98.2865 123.388C95.8677 123 87.7612 122.287 87.7612 122.287C87.7612 122.287 102.075 121.049 112.86 124.011C118.194 125.476 117.244 130.681 116.054 133.932Z" fill="#9400FF"/>
<path d="M75.5068 91.7689C75.5068 91.7689 82.352 88.1361 92.3907 89.0714C92.3907 89.0714 95.8723 97.9243 96.5337 111.747L77.8689 113.041C77.8689 113.041 78.2043 101.193 75.5068 91.7689Z" fill="#5F05DB"/>
<path opacity="0.7" d="M77.8689 113.06C77.9167 109.834 77.7968 106.608 77.5098 103.395C77.3445 101.505 77.1083 99.5163 76.7682 97.4897C76.4556 95.5606 76.0345 93.6506 75.5068 91.7689C75.5068 91.7689 82.352 88.1361 92.3907 89.0714C92.3907 89.0714 95.8723 97.9243 96.5337 111.747L77.8689 113.06Z" fill="white"/>
<path opacity="0.2" d="M77.5244 103.395C77.3591 101.506 77.1228 99.5167 76.7827 97.4901C77.1142 97.1532 77.5136 96.8907 77.9543 96.7201L77.9779 96.5122C77.9637 96.739 78.9416 100.23 77.5244 103.395Z" fill="black"/>
<path d="M80.6797 90.4842C82.3898 92.0385 86.5753 91.4621 86.5753 91.4621C86.5753 91.4621 89.1877 90.7488 88.6398 89.9315C87.0997 89.6764 86.358 88.9584 86.0462 88.0419C85.8808 87.4701 85.8279 86.8717 85.8903 86.2798C85.8903 85.9586 85.9659 85.6279 86.0226 85.3019L80.8309 81.4707C81.5253 83.9981 82.3567 88.6513 80.6797 90.4842Z" fill="#FFA8A7"/>
<path opacity="0.2" d="M82.0405 83.9033C82.2484 87.007 84.7994 87.8668 86.0465 88.0416C85.8811 87.4699 85.8282 86.8714 85.8906 86.2795L82.0405 83.9033Z" fill="black"/>
<path d="M85.3235 70.8228C87.2462 71.3424 88.8476 75.7783 87.4068 78.712C85.9659 81.6456 81.6245 73.4399 81.6245 73.4399C81.6245 73.4399 84.081 70.4921 85.3235 70.8228Z" fill="#263238"/>
<path d="M89.3344 80.9982C89.3438 81.1776 89.3438 81.3573 89.3344 81.5367C89.3013 82.817 88.7848 84.0372 87.8888 84.9522C87.088 85.7863 86.0049 86.2917 84.8512 86.3694C84.0305 86.4101 83.2142 86.2272 82.4892 85.8404C80.1933 84.6735 79.5745 82.6516 78.2375 79.3164C77.9046 78.5403 77.7777 77.6914 77.8692 76.8519C77.9607 76.0124 78.2674 75.2107 78.7597 74.5246C79.252 73.8384 79.9131 73.291 80.6791 72.9354C81.445 72.5798 82.2898 72.4281 83.1317 72.4948C86.9109 72.7736 89.0415 77.6913 89.3344 80.9982Z" fill="#FFA8A7"/>
<path d="M83.722 78.5371C83.7929 78.8158 84.0291 79.0095 84.1944 78.9292C84.3598 78.8489 84.4495 78.5938 84.3598 78.3198C84.27 78.0458 84.0432 77.8474 83.8873 77.9277C83.7315 78.008 83.6322 78.2536 83.722 78.5371Z" fill="#263238"/>
<path d="M86.854 77.5073C86.9249 77.786 87.1658 77.9561 87.3264 77.8994C87.487 77.8427 87.5815 77.564 87.4918 77.2853C87.402 77.0066 87.18 76.8365 87.0193 76.8932C86.8587 76.9499 86.769 77.2428 86.854 77.5073Z" fill="#263238"/>
<path d="M85.9048 77.9702C86.514 78.7086 87.2213 79.3603 88.007 79.9071C87.8613 80.1061 87.6736 80.2706 87.4573 80.3889C87.241 80.5073 87.0012 80.5767 86.7551 80.5921L85.9048 77.9702Z" fill="#D58745"/>
<path d="M87.5769 75.8018C87.5541 75.8238 87.5263 75.84 87.4959 75.8491C87.4655 75.8581 87.4333 75.8597 87.4022 75.8538C87.1954 75.7973 86.9783 75.7901 86.7682 75.8327C86.5582 75.8754 86.3611 75.9667 86.1928 76.0994C86.1602 76.1307 86.1165 76.1478 86.0713 76.147C86.0262 76.1461 85.9832 76.1273 85.9519 76.0947C85.9205 76.0621 85.9034 76.0184 85.9043 75.9733C85.9052 75.9281 85.924 75.8851 85.9566 75.8538C86.1664 75.6815 86.4142 75.5616 86.6796 75.5041C86.9449 75.4466 87.2201 75.4531 87.4825 75.5231C87.5046 75.5276 87.5256 75.5364 87.5442 75.5491C87.5629 75.5618 87.5788 75.578 87.5911 75.597C87.6035 75.6159 87.6119 75.637 87.6159 75.6592C87.62 75.6814 87.6196 75.7042 87.6147 75.7262C87.605 75.7527 87.5923 75.7781 87.5769 75.8018Z" fill="#263238"/>
<path d="M82.6876 77.488C82.6557 77.4999 82.6204 77.4999 82.5884 77.488C82.5498 77.4653 82.5216 77.4282 82.5101 77.3849C82.4986 77.3415 82.5047 77.2954 82.527 77.2565C82.6648 77.0213 82.8567 76.8223 83.0867 76.6761C83.3167 76.5298 83.5783 76.4405 83.8498 76.4156C83.8721 76.415 83.8943 76.4187 83.9152 76.4267C83.9361 76.4347 83.9552 76.4467 83.9714 76.462C83.9877 76.4774 84.0007 76.4958 84.0098 76.5162C84.0189 76.5366 84.0239 76.5586 84.0246 76.5809C84.0246 76.6257 84.0075 76.6688 83.9768 76.7013C83.946 76.7338 83.9039 76.7533 83.8592 76.7557C83.6454 76.7815 83.4405 76.8569 83.2609 76.9758C83.0813 77.0947 82.9319 77.2539 82.8246 77.4407C82.8063 77.4577 82.7847 77.4706 82.7611 77.4788C82.7375 77.4869 82.7125 77.49 82.6876 77.488Z" fill="#263238"/>
<path d="M79.3432 74.2144L80.0848 75.6316C79.884 75.8489 79.7724 76.134 79.7724 76.4299C79.7724 76.7259 79.884 77.011 80.0848 77.2283C81.0297 78.2865 81.0675 80.4785 80.4061 81.6123C80.4061 81.6123 80.1746 81.0879 79.7683 81.3855C79.3621 81.6831 80.562 84.4372 81.9556 85.434C81.9556 85.434 80.1557 84.7396 78.2755 82.0894C76.5371 79.6423 75.5828 77.4078 75.7387 76.1418L79.3432 74.2144Z" fill="#263238"/>
<path d="M77.6753 82.5617C78.304 83.2083 79.1638 83.5787 80.0656 83.5915C81.2656 83.5915 81.549 82.453 80.9538 81.4846C80.4199 80.6295 79.1492 79.5666 78.0768 80.0343C77.0044 80.502 76.91 81.7586 77.6753 82.5617Z" fill="#FFA8A7"/>
<path d="M87.1236 81.7776C86.9059 82.2536 86.7228 82.7446 86.5756 83.2468L86.3016 83.2137C85.0639 83.0484 84.5395 82.5618 84.3411 82.0705C84.2489 81.8299 84.2149 81.5709 84.2419 81.3147C84.2515 81.1674 84.2833 81.0225 84.3364 80.8848C85.0547 81.3287 85.8604 81.6123 86.6984 81.7162C86.9724 81.7634 87.1236 81.7776 87.1236 81.7776Z" fill="#263238"/>
<path d="M86.7029 81.7162L86.5281 82.1461C85.3613 81.9855 84.5582 81.7162 84.2417 81.3147C84.2513 81.1674 84.2831 81.0225 84.3362 80.8848C85.0559 81.3293 85.8633 81.6129 86.7029 81.7162Z" fill="white"/>
<path d="M86.3013 83.214C85.0636 83.0487 84.5392 82.5621 84.3408 82.0708C84.8121 82.1492 85.2661 82.309 85.6825 82.5432C85.9531 82.6975 86.1693 82.9318 86.3013 83.214Z" fill="#DE5753"/>
<path d="M82.5031 74.4602C82.5031 74.4602 82.1724 72.202 83.5991 72.6414C85.0258 73.0807 85.125 72.2209 84.6998 70.4778C84.2746 68.7346 80.1836 68.1157 77.8688 70.9738C75.554 73.8319 74.7462 76.227 75.8658 77.493C76.9854 78.7591 81.2512 75.0223 81.2512 75.0223C81.3675 74.384 81.6384 73.7839 82.0401 73.2744C82.0663 73.7084 82.2283 74.1232 82.5031 74.4602Z" fill="#263238"/>
<path d="M84.7095 91.2826L86.9723 93.2809C86.9723 93.2809 88.2147 101.69 91.2665 105.365H93.1561L93.5293 104.061C90.6905 100.892 88.6526 97.0882 87.5864 92.9691V90.2905L84.7095 91.2826Z" fill="#263238"/>
<path d="M81.2561 88.6656L85.9046 90.4087L86.3014 88.042L88.7154 88.9159L89.3342 91.9063L86.0463 91.0937L84.4165 93.2763L79.6782 90.2103L81.2561 88.6656Z" fill="#5F05DB"/>
<path opacity="0.5" d="M81.2561 88.6656L85.9046 90.4087L86.3014 88.042L88.7154 88.9159L89.3342 91.9063L86.0463 91.0937L84.4165 93.2763L79.6782 90.2103L81.2561 88.6656Z" fill="white"/>
<path d="M77.6045 112.748L96.7512 110.93L96.7937 113.254L77.6139 114.822L77.6045 112.748Z" fill="black"/>
<path d="M92.6979 111.407C92.6115 111.329 92.5096 111.27 92.3988 111.234C92.2881 111.199 92.1711 111.187 92.0554 111.199L90.3595 111.374C90.1499 111.395 89.9559 111.494 89.8159 111.652C89.6759 111.809 89.6002 112.014 89.6036 112.224V113.311C89.6086 113.534 89.7018 113.747 89.8629 113.902C90.024 114.056 90.2399 114.141 90.4634 114.138H90.5343L92.2302 113.958C92.4394 113.937 92.6329 113.837 92.7721 113.68C92.9113 113.522 92.986 113.318 92.9813 113.108V112.026C92.9807 111.908 92.9551 111.793 92.9063 111.686C92.8574 111.579 92.7864 111.484 92.6979 111.407ZM92.2019 113.523L90.5106 113.703C90.4527 113.711 90.3937 113.707 90.3375 113.69C90.2813 113.674 90.2292 113.646 90.1846 113.608C90.14 113.57 90.1039 113.523 90.0787 113.47C90.0535 113.417 90.0397 113.36 90.0382 113.301V112.22C90.0365 112.117 90.0734 112.017 90.1416 111.94C90.2098 111.863 90.3044 111.814 90.4067 111.804L92.0979 111.629H92.1357C92.2431 111.629 92.3462 111.671 92.4231 111.746C92.4999 111.821 92.5443 111.923 92.5467 112.031V112.177H92.4806L92.0082 112.22C91.9703 112.223 91.9335 112.234 91.8999 112.251C91.8662 112.269 91.8364 112.293 91.812 112.322C91.7877 112.351 91.7693 112.385 91.758 112.421C91.7467 112.458 91.7426 112.496 91.746 112.534C91.7494 112.572 91.7602 112.608 91.7779 112.642C91.7955 112.676 91.8196 112.705 91.8488 112.73C91.8779 112.754 91.9116 112.773 91.9479 112.784C91.9842 112.795 92.0223 112.799 92.0601 112.796L92.5326 112.749H92.5562V113.122C92.5558 113.22 92.5197 113.315 92.4545 113.389C92.3894 113.463 92.2996 113.511 92.2019 113.523Z" fill="white"/>
<path d="M75.507 91.769C72.3135 93.6587 67.7028 99.8803 66.0825 99.7527C64.4621 99.6252 55.7226 91.8635 55.7226 91.8635L53.729 94.0224C53.729 94.0224 61.8024 103.664 65.5628 104.392C69.3232 105.119 77.6045 98.1465 77.6045 98.1465C78.0728 96.945 78.0728 95.6114 77.6045 94.4098C77.1798 93.3427 76.4503 92.4242 75.507 91.769Z" fill="#5F05DB"/>
<path opacity="0.7" d="M75.507 91.769C72.3135 93.6587 67.7028 99.8803 66.0825 99.7527C64.4621 99.6252 55.7226 91.8635 55.7226 91.8635L53.729 94.0224C53.729 94.0224 61.8024 103.664 65.5628 104.392C69.3232 105.119 77.6045 98.1465 77.6045 98.1465C78.0728 96.945 78.0728 95.6114 77.6045 94.4098C77.1798 93.3427 76.4503 92.4242 75.507 91.769Z" fill="white"/>
<path d="M104.74 135.684C104.74 135.684 41.338 136.123 37.4028 127.218L65.6386 125.168C71.2422 127.519 76.9774 129.542 82.8153 131.229C89.3345 133.133 97.0631 134.937 104.74 135.684Z" fill="#5F05DB"/>
<path opacity="0.2" d="M104.74 135.684C104.74 135.684 102.751 135.684 99.4439 135.684C85.8811 134.739 70.046 128.003 70.046 128.003C64.3299 129.259 60.3995 127.006 60.3995 127.006L44.9895 127.89C45.0725 128.269 45.0689 128.662 44.9789 129.04C44.889 129.418 44.715 129.771 44.4699 130.072C52.4583 132.316 61.0703 133.681 68.0903 134.508C53.2614 133.398 39.1884 131.281 37.3838 127.233L65.6196 125.183C65.6196 125.183 85.3426 133.795 104.74 135.684Z" fill="white"/>
<path opacity="0.2" d="M104.74 135.684C104.74 135.684 41.338 136.123 37.4028 127.218C37.4028 127.218 58.8265 136.473 82.8153 131.229C89.3345 133.133 97.0631 134.937 104.74 135.684Z" fill="black"/>
</svg>
