<svg width="20" height="20" viewBox="0 0 20 20" fill="none" xmlns="http://www.w3.org/2000/svg">
<g opacity="0.64">
<path fill-rule="evenodd" clip-rule="evenodd" d="M3.3335 9.99999C3.3335 13.6819 6.31826 16.6667 10.0002 16.6667C13.6821 16.6667 16.6668 13.6819 16.6668 9.99999C16.6668 6.3181 13.6821 3.33333 10.0002 3.33333C6.31826 3.33333 3.3335 6.3181 3.3335 9.99999ZM10.0354 5.92593H9.97277C9.77924 5.92593 9.61833 6.07493 9.60349 6.26789L9.2829 10.4356C9.26928 10.6127 9.38334 10.7745 9.55473 10.8213L12.9762 11.7544C13.0004 11.761 13.0255 11.7644 13.0506 11.7644C13.2068 11.7644 13.3335 11.6377 13.3335 11.4815V11.326C13.3335 11.1931 13.2623 11.0704 13.1469 11.0045L10.7409 9.62963L10.4039 6.25944C10.385 6.07011 10.2256 5.92593 10.0354 5.92593Z" fill="#010F07"/>
</g>
</svg>
