<svg width="50" height="48" viewBox="0 0 50 48" fill="none" xmlns="http://www.w3.org/2000/svg">
<path d="M29.1252 19.1668C29.1252 18.3877 29.8189 17.7502 30.6668 17.7502C31.5147 17.7502 32.2085 18.3877 32.2085 19.1668C32.2085 19.946 31.5147 20.5835 30.6668 20.5835C29.8189 20.5835 29.1252 19.946 29.1252 19.1668ZM18.3335 17.7502H26.0418V14.9168H18.3335V17.7502ZM39.9168 15.6252V25.4993L35.5693 26.831L32.9793 34.7502H24.5002V31.9168H21.4168V34.7502H12.9377C12.9377 34.7502 9.0835 22.7652 9.0835 18.4585C9.0835 14.1518 12.876 10.6668 17.5627 10.6668H25.271C26.6739 8.95266 28.9093 7.8335 31.4377 7.8335C31.8186 7.83357 32.1937 7.92025 32.5294 8.08582C32.865 8.25139 33.1509 8.4907 33.3616 8.78242C33.5722 9.07415 33.701 9.40922 33.7365 9.75779C33.7721 10.1063 33.7132 10.4576 33.5652 10.7802C33.3493 11.2618 33.1643 11.8143 33.0718 12.4093L36.5714 15.6252H39.9168ZM36.8335 18.4585H35.2918L29.896 13.5002C29.896 12.5793 30.0347 11.6727 30.2968 10.7943C28.8014 11.1485 27.5835 12.1685 27.0747 13.5002H17.5627C14.5872 13.5002 12.1668 15.7243 12.1668 18.4585C12.1668 21.1218 14.0477 27.8793 15.2656 31.9168H18.3335V29.0835H27.5835V31.9168H30.6822L33.0718 24.621L36.8335 23.4593V18.4585Z" fill="#372E52"/>
</svg>
