<svg width="22" height="20" viewBox="0 0 22 20" fill="none" xmlns="http://www.w3.org/2000/svg">
<path d="M5.68071 17.2047L13.9844 10.1979L17.892 13.7013M5.68071 17.2047H15.4498C17.0683 17.2047 18.3805 16.0283 18.3805 14.5771V10.1979M5.68071 17.2047C4.06212 17.2047 2.75 16.0283 2.75 14.5771V5.81868C2.75 4.36754 4.06212 3.19115 5.68071 3.19115H12.0306M17.4036 7.4201L17.4036 4.94284M17.4036 4.94284L17.4036 2.46558M17.4036 4.94284L14.6405 4.94284M17.4036 4.94284L20.1667 4.94284M8.61143 7.13245C8.61143 7.85802 7.95536 8.44622 7.14607 8.44622C6.33678 8.44622 5.68071 7.85802 5.68071 7.13245C5.68071 6.40688 6.33678 5.81868 7.14607 5.81868C7.95536 5.81868 8.61143 6.40688 8.61143 7.13245Z" stroke="#9400FF" stroke-opacity="0.3" stroke-width="2" stroke-linecap="round" stroke-linejoin="round"/>
</svg>
