<svg width="33" height="37" viewBox="0 0 33 37" fill="none" xmlns="http://www.w3.org/2000/svg">
<path d="M33 29.9524V31.7143H0V29.9524L3.66667 26.4286V15.8571C3.66667 10.3952 7.38833 5.58524 12.8333 4.03476V3.52381C12.8333 2.58924 13.2196 1.69294 13.9073 1.0321C14.5949 0.371257 15.5275 0 16.5 0C17.4725 0 18.4051 0.371257 19.0927 1.0321C19.7804 1.69294 20.1667 2.58924 20.1667 3.52381V4.03476C25.6117 5.58524 29.3333 10.3952 29.3333 15.8571V26.4286L33 29.9524ZM20.1667 33.4762C20.1667 34.4108 19.7804 35.3071 19.0927 35.9679C18.4051 36.6287 17.4725 37 16.5 37C15.5275 37 14.5949 36.6287 13.9073 35.9679C13.2196 35.3071 12.8333 34.4108 12.8333 33.4762" fill="#F24E1E"/>
</svg>
