<svg width="20" height="18" viewBox="0 0 20 18" fill="none" xmlns="http://www.w3.org/2000/svg">
<path d="M20 12.771C20 16.047 17.83 18 14.19 18H13C12.45 18 12 17.595 12 17.1V11.907C12 11.664 12.22 11.457 12.49 11.457L14.25 11.43C14.39 11.421 14.51 11.331 14.54 11.205L14.89 9.486C14.92 9.324 14.78 9.171 14.59 9.171L12.46 9.198C12.18 9.198 11.96 9 11.95 8.757L11.91 6.552C11.91 6.408 12.04 6.28201 12.21 6.28201L14.61 6.246C14.78 6.246 14.91 6.12901 14.91 5.97601L14.87 3.81599C14.87 3.66299 14.74 3.546 14.57 3.546L11.87 3.58201C10.21 3.60901 8.89 4.833 8.92 6.327L8.97 8.802C8.98 9.054 8.76 9.252 8.48 9.261L7.28 9.279C7.11 9.279 6.98001 9.396 6.98001 9.549L7.01001 11.259C7.01001 11.412 7.14 11.529 7.31 11.529L8.51 11.511C8.79 11.511 9.01 11.709 9.02 11.952L9.11 17.082C9.12 17.586 8.67 18 8.11 18H5.81C2.17 18 0 16.047 0 12.762V5.229C0 1.953 2.17 0 5.81 0H14.19C17.83 0 20 1.953 20 5.229V12.771Z" fill="#1877F2"/>
</svg>
