<svg width="72" height="5" viewBox="0 0 72 5" fill="none" xmlns="http://www.w3.org/2000/svg">
<path fill-rule="evenodd" clip-rule="evenodd" d="M32 2.5C32 1.11929 33.1193 0 34.5 0H37.5C38.8807 0 40 1.11929 40 2.5C40 3.88071 38.8807 5 37.5 5H34.5C33.1193 5 32 3.88071 32 2.5Z" fill="white"/>
<rect x="48" width="8" height="5" rx="2.5" fill="white" fill-opacity="0.3"/>
<path fill-rule="evenodd" clip-rule="evenodd" d="M64 2.5C64 1.11929 65.1193 0 66.5 0H69.5C70.8807 0 72 1.11929 72 2.5C72 3.88071 70.8807 5 69.5 5H66.5C65.1193 5 64 3.88071 64 2.5Z" fill="white" fill-opacity="0.3"/>
<path fill-rule="evenodd" clip-rule="evenodd" d="M16 2.5C16 1.11929 17.1193 0 18.5 0H21.5C22.8807 0 24 1.11929 24 2.5C24 3.88071 22.8807 5 21.5 5H18.5C17.1193 5 16 3.88071 16 2.5Z" fill="white" fill-opacity="0.3"/>
<path fill-rule="evenodd" clip-rule="evenodd" d="M0 2.5C0 1.11929 1.11929 0 2.5 0H5.5C6.88071 0 8 1.11929 8 2.5C8 3.88071 6.88071 5 5.5 5H2.5C1.11929 5 0 3.88071 0 2.5Z" fill="white" fill-opacity="0.3"/>
</svg>
