<svg width="20" height="20" viewBox="0 0 20 20" fill="none" xmlns="http://www.w3.org/2000/svg">
<path d="M19.7718 17.4865C19.1246 16.9096 18.558 16.2482 18.0872 15.5201C17.5733 14.5151 17.2652 13.4176 17.1812 12.2919V8.97649C17.1785 8.57378 17.1425 8.17197 17.0738 7.77515C16.5455 7.66956 16.0379 7.47918 15.5704 7.2114C15.7486 7.78512 15.8391 8.38246 15.8389 8.98321V12.2986C15.9212 13.6718 16.2989 15.011 16.9463 16.2248C17.4096 16.959 17.9594 17.635 18.5839 18.2382H1.39597C2.02041 17.635 2.5702 16.959 3.03355 16.2248C3.68094 15.011 4.05867 13.6718 4.14093 12.2986V8.97649C4.1374 8.19978 4.28711 7.42999 4.5815 6.71121C4.87588 5.99243 5.30916 5.33878 5.85651 4.78769C6.40387 4.23659 7.05455 3.79887 7.77131 3.4996C8.48807 3.20033 9.25681 3.04538 10.0335 3.04362C11.1703 3.04453 12.2815 3.3807 13.2282 4.01006C13.1238 3.62683 13.0652 3.23258 13.0537 2.83557V2.41275C12.3529 2.06802 11.6001 1.84127 10.8255 1.74161V0.895972C10.8255 0.658345 10.7311 0.430451 10.5631 0.262424C10.395 0.0943968 10.1671 0 9.92951 0C9.69189 0 9.46399 0.0943968 9.29597 0.262424C9.12794 0.430451 9.03354 0.658345 9.03354 0.895972V1.77516C7.29913 2.01983 5.71178 2.88372 4.56457 4.20733C3.41736 5.53094 2.78773 7.22491 2.79194 8.97649V12.2919C2.70788 13.4176 2.39985 14.5151 1.8859 15.5201C1.42341 16.2465 0.865901 16.9078 0.228188 17.4865C0.156598 17.5494 0.0992222 17.6269 0.0598774 17.7136C0.0205325 17.8004 0.000120668 17.8946 0 17.9899V18.9027C0 19.0807 0.0707091 19.2514 0.196572 19.3772C0.322435 19.5031 0.493143 19.5738 0.67114 19.5738H19.3288C19.5068 19.5738 19.6775 19.5031 19.8034 19.3772C19.9293 19.2514 20 19.0807 20 18.9027V17.9899C19.9998 17.8946 19.9794 17.8004 19.9401 17.7136C19.9007 17.6269 19.8434 17.5494 19.7718 17.4865Z" fill="#27005D"/>
</svg>
