<svg width="50" height="48" viewBox="0 0 50 48" fill="none" xmlns="http://www.w3.org/2000/svg">
<path d="M38.5 13.0833C38.5 11.5207 37.1545 10.25 35.5 10.25H14.5C12.8455 10.25 11.5 11.5207 11.5 13.0833V32.9167C11.5 34.4792 12.8455 35.75 14.5 35.75H35.5C37.1545 35.75 38.5 34.4792 38.5 32.9167V13.0833ZM14.5 32.9167V13.0833H35.5L35.503 32.9167H14.5Z" fill="#372E52"/>
<path d="M17.5 15.9165H20.497V18.7498H17.5V15.9165ZM23.5 15.9165H32.5V18.7498H23.5V15.9165ZM17.5 21.5832H20.497V24.4165H17.5V21.5832ZM23.5 21.5832H32.5V24.4165H23.5V21.5832ZM17.5 27.2498H20.497V30.0832H17.5V27.2498ZM23.5 27.2498H32.5V30.0832H23.5V27.2498Z" fill="#372E52"/>
</svg>
