<svg width="106" height="90" viewBox="0 0 106 90" fill="none" xmlns="http://www.w3.org/2000/svg">
<g opacity="0.3" clip-path="url(#clip0_1_12)">
<path d="M53 22.5C64.5717 22.5 74.5533 29.475 76.8058 39.1125L78.1308 44.7375L84.8883 45.15C88.2085 45.3396 91.3209 46.59 93.599 48.6494C95.8771 50.7089 97.1518 53.4246 97.1667 56.25C97.1667 62.4375 91.2042 67.5 83.9167 67.5H26.5C16.7392 67.5 8.83333 60.7875 8.83333 52.5C8.83333 44.8125 15.5908 38.4 24.5567 37.6125L29.2825 37.2L31.4908 33.6375C33.522 30.2804 36.6048 27.4643 40.3998 25.4992C44.1948 23.5342 48.5549 22.4963 53 22.5ZM53 15C40.2358 15 29.15 21.15 23.6292 30.15C17.1377 30.7456 11.1344 33.357 6.77291 37.4825C2.41137 41.6079 -0.00075835 46.9563 1.78843e-07 52.5C1.78843e-07 64.9125 11.8808 75 26.5 75H83.9167C96.1067 75 106 66.6 106 56.25C106 46.35 96.9458 38.325 85.4625 37.65C83.9789 31.2664 79.9311 25.5182 74.0104 21.3872C68.0897 17.2561 60.6634 14.9985 53 15Z" fill="#9400FF"/>
<g opacity="0.3" clip-path="url(#clip1_1_12)">
<path d="M78.2467 37.65C75.4579 24.7125 63.2117 15 48.5 15C36.8196 15 26.675 21.15 21.6229 30.15C15.6826 30.7456 10.1891 33.357 6.19785 37.4825C2.20663 41.6079 -0.000693961 46.9563 1.63658e-07 52.5C1.63658e-07 64.9125 10.8721 75 24.25 75H76.7917C87.9467 75 97 66.6 97 56.25C97 46.35 88.7146 38.325 78.2467 37.65Z" fill="#27005D"/>
</g>
</g>
<defs>
<clipPath id="clip0_1_12">
<rect width="106" height="90" fill="white"/>
</clipPath>
<clipPath id="clip1_1_12">
<rect width="97" height="90" fill="white"/>
</clipPath>
</defs>
</svg>
