<svg width="31" height="27" viewBox="0 0 31 27" fill="none" xmlns="http://www.w3.org/2000/svg">
<path d="M8.00513 23.5511L19.7058 13.9596L25.212 18.7554M8.00513 23.5511H21.7706C24.0513 23.5511 25.9002 21.9407 25.9002 19.9543V13.9596M8.00513 23.5511C5.72439 23.5511 3.87549 21.9407 3.87549 19.9543V7.96501C3.87549 5.97856 5.72439 4.36822 8.00513 4.36822H16.9527M24.5237 10.1572L24.5237 6.76608M24.5237 6.76608L24.5237 3.375M24.5237 6.76608L20.6302 6.76608M24.5237 6.76608L28.4172 6.76608M12.1348 9.7634C12.1348 10.7566 11.2103 11.5618 10.0699 11.5618C8.92958 11.5618 8.00513 10.7566 8.00513 9.7634C8.00513 8.77018 8.92958 7.96501 10.0699 7.96501C11.2103 7.96501 12.1348 8.77018 12.1348 9.7634Z" stroke="#9400FF" stroke-opacity="0.3" stroke-width="2" stroke-linecap="round" stroke-linejoin="round"/>
</svg>
