<svg width="16" height="16" viewBox="0 0 16 16" fill="none" xmlns="http://www.w3.org/2000/svg">
<path fill-rule="evenodd" clip-rule="evenodd" d="M14.6668 7.99998C14.6668 11.6819 11.6821 14.6666 8.00016 14.6666C4.31826 14.6666 1.3335 11.6819 1.3335 7.99998C1.3335 4.31808 4.31826 1.33331 8.00016 1.33331C11.6821 1.33331 14.6668 4.31808 14.6668 7.99998ZM8.04097 2.99998C7.74247 2.99998 7.50049 3.24196 7.50049 3.54046V4.25768C7.45991 4.26652 7.41937 4.27597 7.37889 4.28603C7.04343 4.36937 6.74221 4.50103 6.47521 4.68103C6.20821 4.86103 5.99256 5.09103 5.82826 5.37103C5.66395 5.65103 5.5818 5.9877 5.5818 6.38103C5.5818 6.70103 5.63486 6.9727 5.74097 7.19603C5.84709 7.41937 5.98743 7.60936 6.162 7.76603C6.33658 7.9227 6.53511 8.05103 6.75761 8.15103C6.98011 8.25103 7.20773 8.3377 7.4405 8.41103C7.68011 8.48437 7.89405 8.5527 8.08232 8.61603C8.27058 8.67937 8.42804 8.74936 8.55469 8.82603C8.68134 8.9027 8.7789 8.9877 8.84736 9.08103C8.91582 9.17437 8.95005 9.2877 8.95005 9.42103C8.95005 9.56103 8.92267 9.68103 8.8679 9.78103C8.81313 9.88103 8.73953 9.96103 8.64711 10.021C8.55469 10.081 8.44687 10.1244 8.32364 10.151C8.20041 10.1777 8.07376 10.191 7.94368 10.191C7.65615 10.191 7.36691 10.1194 7.07595 9.97603C6.78499 9.8327 6.55052 9.65437 6.37252 9.44103L5.22238 10.581C5.54415 10.9077 5.94806 11.1594 6.43413 11.336C6.78088 11.4621 7.13633 11.5431 7.50049 11.5793V12.4595C7.50049 12.758 7.74247 13 8.04097 13C8.33947 13 8.58145 12.758 8.58145 12.4595V11.5493C8.71616 11.5271 8.8493 11.4976 8.98086 11.461C9.31631 11.3677 9.61411 11.2244 9.87426 11.031C10.1344 10.8377 10.3415 10.5927 10.4955 10.296C10.6496 9.99936 10.7266 9.6477 10.7266 9.24103C10.7266 8.8877 10.6547 8.5927 10.5109 8.35603C10.3672 8.11936 10.1858 7.92103 9.96669 7.76103C9.74761 7.60103 9.50458 7.4727 9.23758 7.37603C8.97059 7.27937 8.71386 7.19103 8.4674 7.11103C8.29625 7.0577 8.14222 7.00603 8.0053 6.95603C7.86838 6.90603 7.75028 6.85103 7.65102 6.79103C7.55175 6.73103 7.47644 6.66103 7.4251 6.58103C7.37375 6.50103 7.34808 6.40103 7.34808 6.28103C7.34808 6.14103 7.3806 6.02603 7.44563 5.93603C7.51067 5.84603 7.59111 5.7727 7.68696 5.71603C7.7828 5.65937 7.89063 5.62103 8.01043 5.60103C8.13024 5.58103 8.24833 5.57103 8.36471 5.57103C8.59063 5.57103 8.82511 5.62603 9.06814 5.73603C9.31118 5.84603 9.508 5.99436 9.65861 6.18103L10.7779 5.03103C10.4562 4.74436 10.0814 4.5277 9.65348 4.38103C9.28996 4.25642 8.93261 4.18475 8.58145 4.16601V3.54046C8.58145 3.24196 8.33947 2.99998 8.04097 2.99998Z" fill="white"/>
</svg>
