<svg width="50" height="48" viewBox="0 0 50 48" fill="none" xmlns="http://www.w3.org/2000/svg">
<path d="M16.25 30.1667V19.6667C16.25 17.8102 17.1192 16.0298 18.6664 14.717C20.2135 13.4042 22.312 12.6667 24.5 12.6667C26.688 12.6667 28.7865 13.4042 30.3336 14.717C31.8808 16.0298 32.75 17.8102 32.75 19.6667V30.1667M16.25 30.1667H32.75M16.25 30.1667H13.5M32.75 30.1667H35.5M23.125 33.6667H25.875" stroke="#372E52" stroke-width="2.5" stroke-linecap="round" stroke-linejoin="round"/>
<path d="M24.5 12.6666C25.2594 12.6666 25.875 12.1443 25.875 11.4999C25.875 10.8556 25.2594 10.3333 24.5 10.3333C23.7406 10.3333 23.125 10.8556 23.125 11.4999C23.125 12.1443 23.7406 12.6666 24.5 12.6666Z" stroke="#372E52" stroke-width="2.5"/>
<path d="M32.5 20C34.9853 20 37 17.9853 37 15.5C37 13.0147 34.9853 11 32.5 11C30.0147 11 28 13.0147 28 15.5C28 17.9853 30.0147 20 32.5 20Z" fill="#FF0000"/>
</svg>
