<svg width="50" height="48" viewBox="0 0 50 48" fill="none" xmlns="http://www.w3.org/2000/svg">
<path d="M36.1448 23.3883C36.2048 22.935 36.2498 22.4816 36.2498 22C36.2498 21.5183 36.2048 21.065 36.1448 20.6117L39.3098 18.2741C39.5948 18.0617 39.6698 17.6791 39.4898 17.3675L36.4898 12.4658C36.4013 12.3197 36.2607 12.208 36.093 12.1509C35.9253 12.0938 35.7416 12.0949 35.5748 12.1542L31.8398 13.5708C31.0598 13.0042 30.2198 12.5367 29.3048 12.1825L28.7348 8.42832C28.7099 8.26164 28.6216 8.10923 28.4863 7.99969C28.351 7.89014 28.178 7.83099 27.9998 7.83332H21.9998C21.6248 7.83332 21.3098 8.08832 21.2648 8.42832L20.6948 12.1825C19.7798 12.5367 18.9398 13.0183 18.1598 13.5708L14.4248 12.1542C14.3378 12.1263 14.2466 12.1119 14.1548 12.1117C13.8998 12.1117 13.6448 12.2392 13.5098 12.4658L10.5098 17.3675C10.3148 17.6791 10.4048 18.0617 10.6898 18.2741L13.8548 20.6117C13.7948 21.065 13.7498 21.5325 13.7498 22C13.7498 22.4675 13.7948 22.935 13.8548 23.3883L10.6898 25.7258C10.4048 25.9383 10.3298 26.3208 10.5098 26.6325L13.5098 31.5341C13.5982 31.6803 13.7388 31.792 13.9065 31.8491C14.0742 31.9062 14.2579 31.905 14.4248 31.8458L18.1598 30.4291C18.9398 30.9958 19.7798 31.4633 20.6948 31.8175L21.2648 35.5716C21.3098 35.9116 21.6248 36.1666 21.9998 36.1666H27.9998C28.3748 36.1666 28.6898 35.9116 28.7348 35.5716L29.3048 31.8175C30.2198 31.4633 31.0598 30.9816 31.8398 30.4291L35.5748 31.8458C35.6648 31.8742 35.7548 31.8883 35.8448 31.8883C36.0998 31.8883 36.3548 31.7608 36.4898 31.5341L39.4898 26.6325C39.6698 26.3208 39.5948 25.9383 39.3098 25.7258L36.1448 23.3883ZM33.1748 20.9658C33.2348 21.405 33.2498 21.7025 33.2498 22C33.2498 22.2975 33.2198 22.6091 33.1748 23.0341L32.9648 24.635L34.2998 25.6266L35.9198 26.8166L34.8698 28.5308L32.9648 27.8083L31.4048 27.2133L30.0548 28.1767C29.4098 28.63 28.7948 28.97 28.1798 29.2108L26.5898 29.82L26.3498 31.4208L26.0498 33.3333H23.9498L23.6648 31.4208L23.4248 29.82L21.8348 29.2108C21.1898 28.9558 20.5898 28.63 19.9898 28.205L18.6248 27.2133L17.0348 27.8225L15.1298 28.545L14.0798 26.8308L15.6998 25.6408L17.0348 24.6491L16.8248 23.0483C16.7798 22.6091 16.7498 22.2833 16.7498 22C16.7498 21.7167 16.7798 21.3908 16.8248 20.9658L17.0348 19.365L15.6998 18.3733L14.0798 17.1833L15.1298 15.4692L17.0348 16.1917L18.5948 16.7866L19.9448 15.8233C20.5898 15.37 21.2048 15.03 21.8198 14.7892L23.4098 14.18L23.6498 12.5792L23.9498 10.6667H26.0348L26.3198 12.5792L26.5598 14.18L28.1498 14.7892C28.7948 15.0442 29.3948 15.37 29.9948 15.795L31.3598 16.7866L32.9498 16.1775L34.8548 15.455L35.9048 17.1692L34.2998 18.3733L32.9648 19.365L33.1748 20.9658ZM24.9998 16.3333C21.6848 16.3333 18.9998 18.8692 18.9998 22C18.9998 25.1308 21.6848 27.6666 24.9998 27.6666C28.3148 27.6666 30.9998 25.1308 30.9998 22C30.9998 18.8692 28.3148 16.3333 24.9998 16.3333ZM24.9998 24.8333C23.3498 24.8333 21.9998 23.5583 21.9998 22C21.9998 20.4417 23.3498 19.1666 24.9998 19.1666C26.6498 19.1666 27.9998 20.4417 27.9998 22C27.9998 23.5583 26.6498 24.8333 24.9998 24.8333Z" fill="#372E52"/>
</svg>
