<svg width="12" height="14" viewBox="0 0 12 14" fill="none" xmlns="http://www.w3.org/2000/svg">
<path d="M11.625 4.60017H10.1672C10.201 4.40219 10.2182 4.20141 10.2188 4.00018C10.2173 3.80087 10.2016 3.60196 10.1719 3.40519H11.5453C11.6448 3.40519 11.7402 3.36305 11.8105 3.28804C11.8808 3.21302 11.9203 3.11128 11.9203 3.0052C11.9203 2.89911 11.8808 2.79737 11.8105 2.72236C11.7402 2.64735 11.6448 2.60521 11.5453 2.60521H9.96562C9.66339 1.82681 9.14962 1.16273 8.49049 0.698469C7.83135 0.234214 7.05702 -0.00896233 6.26719 0.000252518H2.25C2.12568 0.000252518 2.00645 0.0529301 1.91854 0.146697C1.83064 0.240463 1.78125 0.367638 1.78125 0.500243V2.60021H0.375C0.275544 2.60021 0.180161 2.64235 0.109835 2.71736C0.039509 2.79237 0 2.89411 0 3.0002C0 3.10628 0.039509 3.20802 0.109835 3.28304C0.180161 3.35805 0.275544 3.40019 0.375 3.40019H1.78125V4.60017H0.375C0.275544 4.60017 0.180161 4.64231 0.109835 4.71732C0.039509 4.79234 0 4.89408 0 5.00016C0 5.10625 0.039509 5.20799 0.109835 5.283C0.180161 5.35801 0.275544 5.40016 0.375 5.40016H1.78125V13.5C1.78125 13.6326 1.83064 13.7598 1.91854 13.8536C2.00645 13.9473 2.12568 14 2.25 14C2.37432 14 2.49355 13.9473 2.58146 13.8536C2.66936 13.7598 2.71875 13.6326 2.71875 13.5V8.00011H6.26719C7.05634 8.00905 7.83001 7.76634 8.48897 7.3031C9.14793 6.83987 9.66213 6.17722 9.96562 5.40016H11.625C11.7245 5.40016 11.8198 5.35801 11.8902 5.283C11.9605 5.20799 12 5.10625 12 5.00016C12 4.89408 11.9605 4.79234 11.8902 4.71732C11.8198 4.64231 11.7245 4.60017 11.625 4.60017ZM2.71875 1.00023H6.26719C6.80368 0.993726 7.33229 1.13821 7.79974 1.41911C8.26718 1.70001 8.65693 2.1074 8.92969 2.60021H2.71875V1.00023ZM2.71875 3.40019H9.22031C9.30162 3.79548 9.30162 4.20488 9.22031 4.60017H2.71875V3.40019ZM6.26719 7.00013H2.71875V5.40016H8.92969C8.65693 5.89296 8.26718 6.30035 7.79974 6.58126C7.33229 6.86216 6.80368 7.00664 6.26719 7.00013Z" fill="black"/>
</svg>
