<svg width="104" height="104" viewBox="0 0 104 104" fill="none" xmlns="http://www.w3.org/2000/svg">
<path fill-rule="evenodd" clip-rule="evenodd" d="M27.625 11.3758C27.625 7.78593 30.5351 4.87578 34.125 4.87578C37.7148 4.87578 40.625 7.78593 40.625 11.3758C40.625 14.9656 37.7148 17.8758 34.125 17.8758C30.5351 17.8758 27.625 14.9656 27.625 11.3758Z" fill="#403F3E"/>
<path d="M68.9231 0.858463C71.0884 0.0543604 73.6401 0.86874 74.7672 3.03904C79.2819 11.7316 78.8724 19.0453 75.3665 25.6893C74.5383 27.2588 73.618 28.4963 72.6598 29.5094C84.1604 38.5114 92.0631 53.2286 92.8579 67.8522C94.0439 68.0498 95.161 68.6525 95.9769 69.6502L98.8741 73.1929C100.701 75.4266 100.377 79.0047 97.5559 80.49C95.5329 81.5552 93.2985 82.4204 90.9027 82.8965C87.5169 91.6597 77.4476 95.4512 67.7697 95.4758L17.1721 95.6048C11.192 95.62 7.11816 89.5576 9.40657 84.0487L28.9746 36.9425C32.4962 28.465 39.2165 20.8103 48.4187 20.7337C52.1005 20.703 55.6893 21.2624 59.1287 22.3182C59.7744 21.8413 60.4437 21.2909 61.1453 20.6288C63.7866 18.136 64.4124 15.9087 64.3284 14.0072C64.2387 11.9755 63.3407 10.0928 62.4335 8.26508C61.2132 5.8065 62.5745 3.21601 64.9022 2.35163L68.9231 0.858463Z" fill="#403F3E"/>
<path d="M100.75 48.7508C100.75 50.5457 99.2949 52.0008 97.5 52.0008C95.7051 52.0008 94.25 50.5457 94.25 48.7508C94.25 46.9559 95.7051 45.5008 97.5 45.5008C99.2949 45.5008 100.75 46.9559 100.75 48.7508Z" fill="#403F3E"/>
<path d="M10.5016 30.3805C11.1208 28.8742 13.2542 28.8742 13.8734 30.3805L14.8942 32.8637C15.0793 33.314 15.4368 33.6715 15.8871 33.8566L18.3703 34.8774C19.8766 35.4966 19.8766 37.6299 18.3703 38.2492L15.8871 39.27C15.4368 39.4551 15.0793 39.8126 14.8942 40.2628L13.8734 42.746C13.2542 44.2524 11.1208 44.2524 10.5016 42.746L9.48078 40.2628C9.29569 39.8126 8.93819 39.4551 8.48794 39.27L6.00474 38.2492C4.49842 37.6299 4.49842 35.4966 6.00474 34.8774L8.48794 33.8566C8.93819 33.6715 9.29569 33.314 9.48078 32.8637L10.5016 30.3805Z" fill="#403F3E"/>
<path d="M90.0998 20.6485C90.7289 19.1182 92.8961 19.1182 93.5252 20.6485L94.055 21.9372C94.243 22.3946 94.6062 22.7578 95.0636 22.9458L96.3523 23.4756C97.8826 24.1047 97.8826 26.2719 96.3523 26.901L95.0636 27.4307C94.6062 27.6188 94.243 27.982 94.055 28.4394L93.5252 29.7281C92.8961 31.2583 90.7289 31.2583 90.0998 29.7281L89.57 28.4394C89.382 27.982 89.0188 27.6188 88.5614 27.4307L87.2727 26.901C85.7424 26.2719 85.7424 24.1047 87.2727 23.4756L88.5614 22.9458C89.0188 22.7578 89.382 22.3946 89.57 21.9372L90.0998 20.6485Z" fill="#403F3E"/>
<path d="M23.311 59.0476L31.976 38.1885C32.3757 37.2262 32.8119 36.2919 33.2825 35.3926C30.2696 45.0616 33.0219 58.7632 41.3888 71.0625C50.1051 83.8755 62.4925 91.6061 72.8885 91.8244C71.2357 92.0865 69.5161 92.2206 67.7614 92.2251L41.4909 92.292C22.6713 82.2624 21.7206 65.5695 23.311 59.0476Z" fill="#CC86FF"/>
<path d="M19.7591 67.5982L12.4079 85.2947C11.0155 88.6466 13.4903 92.3634 17.1637 92.354L35.2673 92.3079C24.595 84.9257 20.6674 75.2703 19.7591 67.5982Z" fill="#CC86FF"/>
<path d="M30.875 11.3744C30.875 9.57949 32.3301 8.12442 34.125 8.12442C35.9199 8.12442 37.375 9.57949 37.375 11.3744C37.375 13.1693 35.9199 14.6244 34.125 14.6244C32.3301 14.6244 30.875 13.1693 30.875 11.3744Z" fill="#F0ECE9"/>
<path d="M45.5 63.3744C45.5 61.5795 46.9551 60.1244 48.75 60.1244C50.5449 60.1244 52 61.5795 52 63.3744C52 65.1693 50.5449 66.6244 48.75 66.6244C46.9551 66.6244 45.5 65.1693 45.5 63.3744Z" fill="#F0ECE9"/>
<path d="M70.0545 3.90381C70.8112 3.62281 71.5736 3.93976 71.883 4.53563C75.9282 12.3242 75.4791 18.5105 72.4921 24.1712C70.659 27.6452 68.6248 28.8755 66.2318 30.3229C65.3775 30.8395 64.4774 31.3839 63.5245 32.0679C61.74 33.3488 60.0108 35.0245 58.5258 37.801C57.0605 40.5408 55.868 44.2865 55.0282 49.6658C54.8267 50.9562 53.4372 51.5698 52.4528 51.0012L47.7395 48.2785C47.1262 47.9243 46.8226 47.2226 46.9743 46.5568C49.4981 35.4773 51.7271 31.616 53.9662 29.5586C54.9955 28.6128 56.0682 28.0004 57.4324 27.2216C57.5944 27.1291 57.7605 27.0343 57.9311 26.9363C59.5184 26.0246 61.3353 24.9169 63.376 22.991C66.6273 19.9226 67.7054 16.8084 67.5753 13.8624C67.4517 11.0636 66.2316 8.60573 65.3604 6.85053L65.3446 6.81876C65.1942 6.5158 65.2096 6.24912 65.3079 6.02749C65.4125 5.79191 65.6443 5.54153 66.0336 5.39698L70.0545 3.90381Z" fill="#F0ECE9"/>
<path d="M68.9748 46.6471C69.6039 45.1169 71.7711 45.1169 72.4002 46.6471L72.93 47.9358C73.118 48.3932 73.4812 48.7564 73.9386 48.9444L75.2273 49.4742C76.7576 50.1033 76.7576 52.2705 75.2273 52.8996L73.9386 53.4294C73.4812 53.6174 73.118 53.9806 72.93 54.438L72.4002 55.7267C71.7711 57.257 69.6039 57.257 68.9748 55.7267L68.445 54.438C68.257 53.9806 67.8938 53.6174 67.4364 53.4294L66.1477 52.8996C64.6174 52.2705 64.6174 50.1033 66.1477 49.4742L67.4364 48.9444C67.8938 48.7564 68.257 48.3932 68.445 47.9358L68.9748 46.6471Z" fill="#F0ECE9"/>
<path d="M61.5691 71.9223C63.3538 70.82 66.014 69.4004 68.8404 68.6473C71.6848 67.8894 74.4452 67.8695 76.6763 69.2028C79.3652 70.8096 81.4607 72.0005 83.6829 72.3907C85.9942 72.7967 88.2424 72.3158 91.2255 71.1695C92.0613 70.8483 92.9564 71.0892 93.461 71.7062L96.3582 75.249C97.0787 76.1299 96.781 77.2237 96.0417 77.6129C90.67 80.4413 83.8838 81.5939 76.4639 76.6473C74.6751 75.4548 72.6604 75.3767 70.8583 75.7516C69.0714 76.1233 67.3534 76.9638 65.9435 77.818C64.5433 78.6662 62.8448 78.0884 62.3708 76.9755L61.0445 73.8615C60.7078 73.071 60.982 72.2849 61.5691 71.9223Z" fill="#F0ECE9"/>
</svg>
