<svg width="106" height="60" viewBox="0 0 106 60" fill="none" xmlns="http://www.w3.org/2000/svg">
<path d="M53 7.5C64.5717 7.5 74.5533 14.475 76.8058 24.1125L78.1308 29.7375L84.8883 30.15C88.2085 30.3396 91.3209 31.59 93.599 33.6494C95.8771 35.7089 97.1518 38.4246 97.1667 41.25C97.1667 47.4375 91.2042 52.5 83.9167 52.5H26.5C16.7392 52.5 8.83333 45.7875 8.83333 37.5C8.83333 29.8125 15.5908 23.4 24.5567 22.6125L29.2825 22.2L31.4908 18.6375C33.522 15.2804 36.6048 12.4643 40.3998 10.4992C44.1948 8.53415 48.5549 7.49632 53 7.5ZM53 7.19013e-07C40.2358 7.19013e-07 29.15 6.15 23.6292 15.15C17.1377 15.7456 11.1344 18.357 6.77291 22.4825C2.41137 26.6079 -0.00075835 31.9563 1.78843e-07 37.5C1.78843e-07 49.9125 11.8808 60 26.5 60H83.9167C96.1067 60 106 51.6 106 41.25C106 31.35 96.9458 23.325 85.4625 22.65C83.9789 16.2664 79.9311 10.5182 74.0104 6.38717C68.0897 2.25612 60.6634 -0.00147091 53 7.19013e-07Z" fill="white"/>
</svg>
