<svg width="29" height="39" viewBox="0 0 29 39" fill="none" xmlns="http://www.w3.org/2000/svg">
<path d="M19.4063 35.0123C19.7461 34.5552 19.937 33.9353 19.937 33.2889C19.937 32.6426 19.7461 32.0227 19.4063 31.5656L10.4345 19.5L19.4063 7.43438C19.7365 6.97466 19.9192 6.35894 19.9151 5.71984C19.9109 5.08073 19.7203 4.46938 19.3843 4.01744C19.0482 3.56551 18.5936 3.30917 18.1184 3.30361C17.6431 3.29806 17.1853 3.54374 16.8435 3.98775L6.59015 17.7767C6.25036 18.2338 6.05947 18.8537 6.05947 19.5C6.05947 20.1463 6.25036 20.7662 6.59015 21.2233L16.8435 35.0123C17.1834 35.4692 17.6443 35.7259 18.1249 35.7259C18.6055 35.7259 19.0664 35.4692 19.4063 35.0123Z" fill="black" fill-opacity="0.7"/>
</svg>
