<svg width="16" height="16" viewBox="0 0 16 16" fill="none" xmlns="http://www.w3.org/2000/svg">
<path d="M13.3335 3.33301H11.6095L9.80483 1.52834C9.74303 1.46631 9.66957 1.41712 9.58867 1.3836C9.50778 1.35007 9.42106 1.33288 9.3335 1.33301H6.66683C6.57927 1.33288 6.49254 1.35007 6.41165 1.3836C6.33076 1.41712 6.2573 1.46631 6.1955 1.52834L4.39083 3.33301H2.66683C1.9315 3.33301 1.3335 3.93101 1.3335 4.66634V11.9997C1.3335 12.735 1.9315 13.333 2.66683 13.333H13.3335C14.0688 13.333 14.6668 12.735 14.6668 11.9997V4.66634C14.6668 3.93101 14.0688 3.33301 13.3335 3.33301ZM8.00016 11.333C6.1935 11.333 4.66683 9.80634 4.66683 7.99967C4.66683 6.19234 6.1935 4.66634 8.00016 4.66634C9.80683 4.66634 11.3335 6.19234 11.3335 7.99967C11.3335 9.80634 9.80683 11.333 8.00016 11.333Z" fill="#9400FF"/>
<path d="M8.66667 6H7.33333V7.33333H6V8.66667H7.33333V10H8.66667V8.66667H10V7.33333H8.66667V6Z" fill="#9400FF"/>
</svg>
